<svg width="27" height="22" viewBox="0 0 27 22" fill="none" xmlns="http://www.w3.org/2000/svg">
<path d="M4.5 5H4.54688C4.92188 3.3125 6.42188 2 8.25 2C8.90625 2 9.5625 2.23438 10.125 2.5625C10.7812 1.34375 12.0469 0.5 13.5 0.5C14.9062 0.5 16.1719 1.34375 16.8281 2.5625C17.3906 2.23438 18.0469 2 18.75 2C20.5312 2 22.0312 3.3125 22.4062 5C22.4062 5 22.4531 5 22.5 5C24.1406 5 25.5 6.35938 25.5 8C25.5 8.5625 25.3125 9.07812 25.0781 9.5H1.875C1.64062 9.07812 1.5 8.5625 1.5 8C1.5 6.35938 2.8125 5 4.5 5ZM0.75 12.3125C0.75 11.6094 1.3125 11 2.01562 11H24.9375C25.6406 11 26.25 11.6094 26.25 12.3125C26.25 15.7344 24 18.6406 20.9062 19.625C20.9531 19.7656 21 19.9062 21 20C21 20.8438 20.2969 21.5 19.5 21.5H7.5C6.65625 21.5 6 20.8438 6 20C6 19.9062 6 19.7656 6.04688 19.625C2.95312 18.6406 0.75 15.7344 0.75 12.3125Z" fill="#898989"/>
</svg>
