<svg width="25" height="22" viewBox="0 0 25 22" fill="none" xmlns="http://www.w3.org/2000/svg">
<path d="M2.32812 8.23438L3.96875 3.54688C4.625 1.71875 6.3125 0.5 8.23438 0.5H16.7188C18.6406 0.5 20.3281 1.71875 20.9844 3.54688L22.625 8.23438C23.7031 8.70312 24.5 9.78125 24.5 11V20C24.5 20.8438 23.7969 21.5 23 21.5H21.5C20.6562 21.5 20 20.8438 20 20V17.75H5V20C5 20.8438 4.29688 21.5 3.5 21.5H2C1.15625 21.5 0.5 20.8438 0.5 20V11C0.5 9.78125 1.25 8.70312 2.32812 8.23438ZM5.60938 8H19.3438L18.125 4.53125C17.9375 3.92188 17.375 3.5 16.7188 3.5H8.23438C7.57812 3.5 7.01562 3.92188 6.82812 4.53125L5.60938 8ZM5 11C4.15625 11 3.5 11.7031 3.5 12.5C3.5 13.3438 4.15625 14 5 14C5.79688 14 6.5 13.3438 6.5 12.5C6.5 11.7031 5.79688 11 5 11ZM20 14C20.7969 14 21.5 13.3438 21.5 12.5C21.5 11.7031 20.7969 11 20 11C19.1562 11 18.5 11.7031 18.5 12.5C18.5 13.3438 19.1562 14 20 14Z" fill="#898989"/>
</svg>
