<svg width="30" height="25" viewBox="0 0 30 25" fill="none" xmlns="http://www.w3.org/2000/svg">
<path d="M15 7C15.375 7 15.75 7.375 15.75 7.75V8.5H16.5C16.875 8.5 17.25 8.875 17.25 9.25C17.25 9.67188 16.875 10 16.5 10H15C14.5781 10 14.25 9.67188 14.25 9.25V7.75C14.25 7.375 14.5781 7 15 7ZM22.3125 5.64062L28.2188 6.90625C29.25 7.14062 30 8.07812 30 9.10938V22.75C30 24.0156 28.9688 25 27.75 25H2.25C0.984375 25 0 24.0156 0 22.75V9.10938C0 8.07812 0.703125 7.14062 1.73438 6.90625L7.64062 5.64062L14.1562 1.28125C14.625 0.953125 15.3281 0.953125 15.7969 1.28125L22.3125 5.64062ZM12 25H18V20.5C18 18.8594 16.6406 17.5 15 17.5C13.3125 17.5 12 18.8594 12 20.5V25ZM4.5 10C4.07812 10 3.75 10.375 3.75 10.75V13.75C3.75 14.1719 4.07812 14.5 4.5 14.5H6C6.375 14.5 6.75 14.1719 6.75 13.75V10.75C6.75 10.375 6.375 10 6 10H4.5ZM23.25 13.75C23.25 14.1719 23.5781 14.5 24 14.5H25.5C25.875 14.5 26.25 14.1719 26.25 13.75V10.75C26.25 10.375 25.875 10 25.5 10H24C23.5781 10 23.25 10.375 23.25 10.75V13.75ZM4.5 16C4.07812 16 3.75 16.375 3.75 16.75V19.75C3.75 20.1719 4.07812 20.5 4.5 20.5H6C6.375 20.5 6.75 20.1719 6.75 19.75V16.75C6.75 16.375 6.375 16 6 16H4.5ZM23.25 19.75C23.25 20.1719 23.5781 20.5 24 20.5H25.5C25.875 20.5 26.25 20.1719 26.25 19.75V16.75C26.25 16.375 25.875 16 25.5 16H24C23.5781 16 23.25 16.375 23.25 16.75V19.75ZM15 5.125C12.7031 5.125 10.875 7 10.875 9.25C10.875 11.5469 12.7031 13.375 15 13.375C17.25 13.375 19.125 11.5469 19.125 9.25C19.125 7 17.25 5.125 15 5.125Z" fill="#898989"/>
</svg>
