<svg width="24" height="22" viewBox="0 0 24 22" fill="none" xmlns="http://www.w3.org/2000/svg">
<path d="M21.7031 0.5C22.9688 0.5 23.9531 1.53125 23.9531 2.75V19.25C23.9531 20.5156 22.9219 21.5 21.7031 21.5H2.20312C0.984375 21.5 0 20.5156 0 19.25V2.75C0 1.53125 0.984375 0.5 2.20312 0.5H21.7031ZM5.20312 18.125L5.15625 15.875C5.15625 15.6875 4.96875 15.5 4.78125 15.5H2.57812C2.34375 15.5 2.20312 15.6875 2.20312 15.875V18.125C2.20312 18.3594 2.34375 18.5 2.57812 18.5H4.82812C5.01562 18.5 5.20312 18.3594 5.20312 18.125ZM5.20312 12.125H5.15625V9.875C5.15625 9.6875 4.96875 9.5 4.78125 9.5H2.57812C2.34375 9.5 2.20312 9.6875 2.20312 9.875V12.125C2.20312 12.3594 2.34375 12.5 2.57812 12.5H4.82812C5.01562 12.5 5.20312 12.3594 5.20312 12.125ZM5.20312 6.125L5.15625 3.875C5.15625 3.6875 4.96875 3.5 4.78125 3.5H2.57812C2.34375 3.5 2.20312 3.6875 2.20312 3.875V6.125C2.20312 6.35938 2.34375 6.5 2.57812 6.5H4.82812C5.01562 6.5 5.20312 6.35938 5.20312 6.125ZM16.4531 17.75V13.25C16.4531 12.875 16.0781 12.5 15.7031 12.5H8.20312C7.78125 12.5 7.45312 12.875 7.45312 13.25V17.75C7.45312 18.1719 7.78125 18.5 8.20312 18.5H15.7031C16.0781 18.5 16.4531 18.1719 16.4531 17.75ZM16.4531 8.75V4.25C16.4531 3.875 16.0781 3.5 15.7031 3.5H8.20312C7.78125 3.5 7.45312 3.875 7.45312 4.25V8.75C7.45312 9.17188 7.78125 9.5 8.20312 9.5H15.7031C16.0781 9.5 16.4531 9.17188 16.4531 8.75ZM21.7031 18.125H21.75V15.875C21.75 15.6875 21.5625 15.5 21.375 15.5H19.125C18.9375 15.5 18.75 15.6875 18.75 15.875V18.125C18.75 18.3594 18.8906 18.5 19.125 18.5H21.3281C21.5156 18.5 21.7031 18.3594 21.7031 18.125ZM21.7031 12.125V9.875C21.7031 9.6875 21.5156 9.5 21.3281 9.5H19.125C18.8906 9.5 18.75 9.6875 18.75 9.875V12.125C18.75 12.3594 18.8906 12.5 19.125 12.5H21.3281C21.5156 12.5 21.7031 12.3594 21.7031 12.125ZM21.7031 6.125H21.6562V3.875C21.6562 3.6875 21.4688 3.5 21.2812 3.5H19.0781C18.8906 3.5 18.75 3.6875 18.75 3.875V6.125C18.75 6.35938 18.8906 6.5 19.125 6.5H21.3281C21.5156 6.5 21.7031 6.35938 21.7031 6.125Z" fill="#898989"/>
</svg>
