<svg width="26" height="23" viewBox="0 0 26 23" fill="none" xmlns="http://www.w3.org/2000/svg">
<path d="M16 11.4375L17.0781 13.5469L22.3281 13.5L14.0312 22.0781C13.4688 22.6875 12.4844 22.6875 11.875 22.0781L3.625 13.5L8.21875 13.5469L9.625 10.1719L12.2969 16.0781C12.5781 16.6406 13.375 16.6875 13.6562 16.125L16 11.4375ZM22.7031 2.95312C25.375 5.29688 25.7031 9.28125 23.6406 12.0469H17.9688L16.6562 9.42188C16.375 8.90625 15.5781 8.90625 15.2969 9.42188L13 14.0156L10.2812 7.96875C10 7.35938 9.15625 7.35938 8.92188 7.96875L7.23438 12H2.3125C0.25 9.28125 0.578125 5.29688 3.25 2.95312C5.82812 0.75 9.71875 1.17188 12.0625 3.5625L13 4.54688L13.8906 3.5625C16.2344 1.17188 20.125 0.75 22.7031 2.95312Z" fill="#898989"/>
</svg>
