<svg width="24" height="24" viewBox="0 0 24 24" fill="none" xmlns="http://www.w3.org/2000/svg">
<path d="M22.5 16.5C23.2969 16.5 24 17.2031 24 18V22.5C24 23.3438 23.2969 24 22.5 24H1.5C0.65625 24 0 23.3438 0 22.5V18C0 17.2031 0.65625 16.5 1.5 16.5H7.73438L9.84375 18.6562C10.4062 19.2188 11.1562 19.5 12 19.5C12.7969 19.5 13.5469 19.2188 14.1094 18.6562L16.2188 16.5H22.5ZM20.25 21.375C20.8594 21.375 21.375 20.9062 21.375 20.25C21.375 19.6406 20.8594 19.125 20.25 19.125C19.5938 19.125 19.125 19.6406 19.125 20.25C19.125 20.9062 19.5938 21.375 20.25 21.375ZM10.9219 17.5781L4.92188 11.5781C4.3125 11.0156 4.3125 10.0312 4.92188 9.46875C5.48438 8.85938 6.46875 8.85938 7.03125 9.46875L10.5 12.8906V1.5C10.5 0.703125 11.1562 0 12 0C12.7969 0 13.5 0.703125 13.5 1.5V12.8906L16.9219 9.46875C17.4844 8.85938 18.4688 8.85938 19.0312 9.46875C19.6406 10.0312 19.6406 11.0156 19.0312 11.5781L13.0312 17.5781C12.75 17.8594 12.375 18 12 18C11.5781 18 11.2031 17.8594 10.9219 17.5781Z" fill="#898989"/>
</svg>
