<svg width="16" height="22" viewBox="0 0 16 22" fill="none" xmlns="http://www.w3.org/2000/svg">
<path d="M10.0625 0.546875C13.0625 0.546875 15.5 2.9375 15.5 5.9375C15.5 8 14.3281 9.875 12.5 10.8125L8.75 13.0156V14C8.75 14.8438 8.04688 15.5 7.25 15.5C6.40625 15.5 5.75 14.8438 5.75 14V12.125C5.75 11.6094 5.98438 11.1406 6.45312 10.8594L11.0469 8.1875C11.9844 7.71875 12.5 6.875 12.5 5.9375C12.5 4.625 11.375 3.54688 10.0625 3.54688H5C4.15625 3.54688 3.5 4.20312 3.5 5.04688C3.5 5.79688 2.79688 6.5 2 6.5C1.15625 6.5 0.5 5.84375 0.5 5.04688C0.5 2.5625 2.51562 0.546875 5 0.546875H10.0625ZM7.25 17.75C8.28125 17.75 9.125 18.6406 9.125 19.625C9.125 20.6562 8.28125 21.5 7.25 21.5C6.17188 21.5 5.375 20.7031 5.375 19.625C5.375 18.5938 6.17188 17.75 7.25 17.75Z" fill="#898989"/>
</svg>
