<svg width="31" height="25" viewBox="0 0 31 25" fill="none" xmlns="http://www.w3.org/2000/svg">
<path d="M8.5 2.25C8.5 1.03125 9.48438 0 10.75 0C11.9688 0 13 1.03125 13 2.25C13 3.51562 11.9688 4.5 10.75 4.5C9.48438 4.5 8.5 3.51562 8.5 2.25ZM6.25 9.65625C5.54688 9.98438 4.98438 10.5469 4.70312 11.2969L4.60938 11.4375C4.32812 12.2344 3.4375 12.6094 2.6875 12.2812C1.89062 12 1.51562 11.1094 1.84375 10.3594L1.89062 10.1719C2.5 8.71875 3.625 7.54688 5.03125 6.89062L5.54688 6.65625C6.53125 6.23438 7.5625 6 8.64062 6C10.75 6 12.625 7.26562 13.4219 9.1875L14.125 10.9219L15.1562 11.4375C15.9062 11.8125 16.1875 12.7031 15.8125 13.4531C15.4375 14.2031 14.5469 14.4844 13.7969 14.1094L12.5781 13.5C12.0625 13.2656 11.6875 12.8438 11.5 12.3281L11.0312 11.25L10.1406 14.3438L12.4375 16.875C12.7188 17.1562 12.9062 17.4844 13 17.8594L14.0781 22.1719C14.2656 22.9688 13.75 23.7656 12.9531 23.9531C12.1562 24.1875 11.3594 23.6719 11.125 22.875L10.0938 18.75L6.8125 15.1406C6.10938 14.3906 5.82812 13.3125 6.10938 12.3281L6.90625 9.375C6.85938 9.375 6.8125 9.42188 6.76562 9.42188L6.25 9.65625ZM5.6875 16.1719L7.60938 18.2344L6.90625 19.9219C6.8125 20.2031 6.625 20.4844 6.4375 20.6719L3.53125 23.5781C2.96875 24.1875 1.98438 24.1875 1.42188 23.5781C0.8125 23.0156 0.8125 22.0312 1.42188 21.4688L4.1875 18.6562L5.35938 15.75C5.45312 15.8906 5.59375 16.0312 5.6875 16.1719ZM17.9219 17.5781C17.3125 17.0156 17.3125 16.0312 17.9219 15.4688L21.6719 11.7188C22.2344 11.1094 23.2188 11.1094 23.7812 11.7188C24.3906 12.2812 24.3906 13.2656 23.7812 13.8281L22.6094 15H23.5C25.9844 15 28 12.9844 28 10.5C28 8.01562 25.9844 6 23.5 6H17.5C16.6562 6 15.9531 5.34375 15.9531 4.5C15.9531 3.70312 16.6562 3 17.5 3H23.5C27.625 3 31 6.375 31 10.5C31 14.6719 27.625 18 23.5 18H22.6094L23.7812 19.2188C24.3906 19.7812 24.3906 20.7656 23.7812 21.3281C23.2188 21.9375 22.2344 21.9375 21.6719 21.3281L17.9219 17.5781Z" fill="#898989"/>
</svg>
