<svg width="42" height="42" viewBox="0 0 42 42" fill="none" xmlns="http://www.w3.org/2000/svg">
<circle cx="21" cy="21" r="20.5" stroke="#A1A5AD"/>
<path d="M15.5 9H23V15C23 15.8438 23.6562 16.5 24.5 16.5H30.5V30C30.5 31.6875 29.1406 33 27.5 33H15.5C13.8125 33 12.5 31.6875 12.5 30V12C12.5 10.3594 13.8125 9 15.5 9ZM24.5 9L30.5 15H24.5V9ZM16.25 12C15.8281 12 15.5 12.375 15.5 12.75C15.5 13.1719 15.8281 13.5 16.25 13.5H19.25C19.625 13.5 20 13.1719 20 12.75C20 12.375 19.625 12 19.25 12H16.25ZM16.25 15C15.8281 15 15.5 15.375 15.5 15.75C15.5 16.1719 15.8281 16.5 16.25 16.5H19.25C19.625 16.5 20 16.1719 20 15.75C20 15.375 19.625 15 19.25 15H16.25ZM17 19.5C16.1562 19.5 15.5 20.2031 15.5 21V24C15.5 24.8438 16.1562 25.5 17 25.5H26C26.7969 25.5 27.5 24.8438 27.5 24V21C27.5 20.2031 26.7969 19.5 26 19.5H17ZM17 21H26V24H17V21ZM23.75 28.5C23.3281 28.5 23 28.875 23 29.25C23 29.6719 23.3281 30 23.75 30H26.75C27.125 30 27.5 29.6719 27.5 29.25C27.5 28.875 27.125 28.5 26.75 28.5H23.75Z" fill="#A1A5AD"/>
</svg>
