<svg width="20" height="22" viewBox="0 0 20 22" fill="none" xmlns="http://www.w3.org/2000/svg">
<path d="M18.5312 10.6242C18.25 10.9054 17.875 11.0461 17.5 11.0461C17.0781 11.0461 16.7031 10.9054 16.4219 10.6242L11.5 5.7023V20.0461C11.5 20.8898 10.7969 21.5461 10 21.5461C9.25 21.5461 8.5 20.8898 8.5 20.0461V5.7023L3.53125 10.6242C2.96875 11.2336 1.98438 11.2336 1.42188 10.6242C0.8125 10.0617 0.8125 9.0773 1.42188 8.5148L8.92188 1.0148C9.48438 0.405426 10.4688 0.405426 11.0312 1.0148L18.5312 8.5148C19.1406 9.0773 19.1406 10.0617 18.5312 10.6242Z" fill="#AB3428"/>
</svg>
