<svg width="18" height="24" viewBox="0 0 18 24" fill="none" xmlns="http://www.w3.org/2000/svg">
<g clip-path="url(#clip0_477_268)">
<path d="M17.3247 12.0697H0.796578C0.411652 12.0697 0.0996094 11.6257 0.0996094 11.078C0.0996094 10.5302 0.411652 10.0862 0.796578 10.0862H17.3247C17.7096 10.0862 18.0217 10.5302 18.0217 11.078C18.0217 11.6257 17.7096 12.0697 17.3247 12.0697Z" fill="#1D1D1B"/>
<path d="M17.3247 12.0697H0.796578C0.411652 12.0697 0.0996094 11.6257 0.0996094 11.078C0.0996094 10.5302 0.411652 10.0862 0.796578 10.0862H17.3247C17.7096 10.0862 18.0217 10.5302 18.0217 11.078C18.0217 11.6257 17.7096 12.0697 17.3247 12.0697Z" fill="#1D1D1B"/>
</g>
<defs>
<clipPath id="clip0_477_268">
<rect width="18" height="24" fill="white"/>
</clipPath>
</defs>
</svg>
