<svg width="92" height="20" viewBox="0 0 92 20" fill="none" xmlns="http://www.w3.org/2000/svg">
<path d="M1.28125 9.3125L6.28125 4.3125C6.65625 3.90625 7.3125 3.90625 7.6875 4.3125C8.09375 4.6875 8.09375 5.34375 7.6875 5.71875L4.40625 9H14C14.5312 9 15 9.46875 15 10C15 10.5625 14.5312 11 14 11H4.40625L7.6875 14.3125C8.09375 14.6875 8.09375 15.3438 7.6875 15.7188C7.3125 16.125 6.65625 16.125 6.28125 15.7188L1.28125 10.7188C0.875 10.3438 0.875 9.6875 1.28125 9.3125Z" fill="#4FBA74"/>
<path d="M40.008 4.8H42.6V16H40.008V4.8ZM34.92 16H32.328V4.8H34.92V16ZM40.2 11.408H34.728V9.216H40.2V11.408ZM45.0739 16V7.392H47.5699V16H45.0739ZM46.3219 6.192C45.8632 6.192 45.4899 6.05867 45.2019 5.792C44.9139 5.52533 44.7699 5.19467 44.7699 4.8C44.7699 4.40533 44.9139 4.07467 45.2019 3.808C45.4899 3.54133 45.8632 3.408 46.3219 3.408C46.7805 3.408 47.1539 3.536 47.4419 3.792C47.7299 4.03733 47.8739 4.35733 47.8739 4.752C47.8739 5.168 47.7299 5.51467 47.4419 5.792C47.1645 6.05867 46.7912 6.192 46.3219 6.192ZM52.7824 16.128C52.0464 16.128 51.337 16.0427 50.6544 15.872C49.9824 15.6907 49.449 15.4667 49.0544 15.2L49.8864 13.408C50.281 13.6533 50.745 13.856 51.2784 14.016C51.8224 14.1653 52.3557 14.24 52.8784 14.24C53.4544 14.24 53.8597 14.1707 54.0944 14.032C54.3397 13.8933 54.4624 13.7013 54.4624 13.456C54.4624 13.2533 54.3664 13.104 54.1744 13.008C53.993 12.9013 53.7477 12.8213 53.4384 12.768C53.129 12.7147 52.7877 12.6613 52.4144 12.608C52.0517 12.5547 51.6837 12.4853 51.3104 12.4C50.937 12.304 50.5957 12.1653 50.2864 11.984C49.977 11.8027 49.7264 11.5573 49.5344 11.248C49.353 10.9387 49.2624 10.5387 49.2624 10.048C49.2624 9.504 49.417 9.024 49.7264 8.608C50.0464 8.192 50.505 7.86667 51.1024 7.632C51.6997 7.38667 52.4144 7.264 53.2464 7.264C53.833 7.264 54.4304 7.328 55.0384 7.456C55.6464 7.584 56.153 7.77067 56.5584 8.016L55.7264 9.792C55.3104 9.54667 54.889 9.38133 54.4624 9.296C54.0464 9.2 53.641 9.152 53.2464 9.152C52.6917 9.152 52.2864 9.22667 52.0304 9.376C51.7744 9.52533 51.6464 9.71733 51.6464 9.952C51.6464 10.1653 51.737 10.3253 51.9184 10.432C52.1104 10.5387 52.361 10.624 52.6704 10.688C52.9797 10.752 53.3157 10.8107 53.6784 10.864C54.0517 10.9067 54.425 10.976 54.7984 11.072C55.1717 11.168 55.5077 11.3067 55.8064 11.488C56.1157 11.6587 56.3664 11.8987 56.5584 12.208C56.7504 12.5067 56.8464 12.9013 56.8464 13.392C56.8464 13.9253 56.6864 14.4 56.3664 14.816C56.0464 15.2213 55.5824 15.5413 54.9744 15.776C54.377 16.0107 53.6464 16.128 52.7824 16.128ZM61.9064 16.128C60.893 16.128 60.1037 15.872 59.5384 15.36C58.973 14.8373 58.6904 14.064 58.6904 13.04V5.488H61.1864V13.008C61.1864 13.3707 61.2824 13.6533 61.4744 13.856C61.6664 14.048 61.9277 14.144 62.2584 14.144C62.653 14.144 62.989 14.0373 63.2664 13.824L63.9384 15.584C63.6824 15.7653 63.373 15.904 63.0104 16C62.6584 16.0853 62.2904 16.128 61.9064 16.128ZM57.3624 9.504V7.584H63.3304V9.504H57.3624ZM69.1699 16.128C68.2525 16.128 67.4365 15.936 66.7219 15.552C66.0179 15.168 65.4579 14.6453 65.0419 13.984C64.6365 13.312 64.4339 12.5493 64.4339 11.696C64.4339 10.832 64.6365 10.0693 65.0419 9.408C65.4579 8.736 66.0179 8.21333 66.7219 7.84C67.4365 7.456 68.2525 7.264 69.1699 7.264C70.0765 7.264 70.8872 7.456 71.6019 7.84C72.3165 8.21333 72.8765 8.73067 73.2819 9.392C73.6872 10.0533 73.8899 10.8213 73.8899 11.696C73.8899 12.5493 73.6872 13.312 73.2819 13.984C72.8765 14.6453 72.3165 15.168 71.6019 15.552C70.8872 15.936 70.0765 16.128 69.1699 16.128ZM69.1699 14.08C69.5859 14.08 69.9592 13.984 70.2899 13.792C70.6205 13.6 70.8819 13.328 71.0739 12.976C71.2659 12.6133 71.3619 12.1867 71.3619 11.696C71.3619 11.1947 71.2659 10.768 71.0739 10.416C70.8819 10.064 70.6205 9.792 70.2899 9.6C69.9592 9.408 69.5859 9.312 69.1699 9.312C68.7539 9.312 68.3805 9.408 68.0499 9.6C67.7192 9.792 67.4525 10.064 67.2499 10.416C67.0579 10.768 66.9619 11.1947 66.9619 11.696C66.9619 12.1867 67.0579 12.6133 67.2499 12.976C67.4525 13.328 67.7192 13.6 68.0499 13.792C68.3805 13.984 68.7539 14.08 69.1699 14.08ZM75.5583 16V7.392H77.9423V9.824L77.6063 9.12C77.8623 8.512 78.2729 8.05333 78.8383 7.744C79.4036 7.424 80.0916 7.264 80.9023 7.264V9.568C80.7956 9.55733 80.6996 9.552 80.6143 9.552C80.5289 9.54133 80.4383 9.536 80.3423 9.536C79.6596 9.536 79.1049 9.73333 78.6783 10.128C78.2623 10.512 78.0543 11.1147 78.0543 11.936V16H75.5583ZM83.7713 19.232C83.3233 19.232 82.8806 19.1627 82.4433 19.024C82.0059 18.8853 81.6486 18.6933 81.3712 18.448L82.2833 16.672C82.4753 16.8427 82.6939 16.976 82.9393 17.072C83.1953 17.168 83.4459 17.216 83.6913 17.216C84.0433 17.216 84.3206 17.1307 84.5233 16.96C84.7366 16.8 84.9286 16.528 85.0993 16.144L85.5473 15.088L85.7393 14.816L88.8273 7.392H91.2273L87.3393 16.528C87.0619 17.2213 86.7419 17.7653 86.3793 18.16C86.0273 18.5547 85.6326 18.832 85.1953 18.992C84.7686 19.152 84.2939 19.232 83.7713 19.232ZM85.2433 16.336L81.4032 7.392H83.9793L86.9553 14.592L85.2433 16.336Z" fill="#4FBA74"/>
</svg>
