<svg width="106" height="20" viewBox="0 0 106 20" fill="none" xmlns="http://www.w3.org/2000/svg">
<path d="M14.9688 10C14.9688 10.5625 14.5312 11 14 11H4.40625L7.6875 14.3125C8.09375 14.6875 8.09375 15.3438 7.6875 15.7188C7.5 15.9062 7.25 16 7 16C6.71875 16 6.46875 15.9062 6.28125 15.7188L1.28125 10.7188C0.875 10.3438 0.875 9.6875 1.28125 9.3125L6.28125 4.3125C6.65625 3.90625 7.3125 3.90625 7.6875 4.3125C8.09375 4.6875 8.09375 5.34375 7.6875 5.71875L4.40625 9H14C14.5312 9 14.9688 9.46875 14.9688 10Z" fill="#4FBA74"/>
<path d="M30.856 16L35.848 4.8H38.408L43.416 16H40.696L36.6 6.112H37.624L33.512 16H30.856ZM33.352 13.6L34.04 11.632H39.8L40.504 13.6H33.352ZM48.0199 16.128C47.2092 16.128 46.4785 15.9467 45.8279 15.584C45.1772 15.2107 44.6599 14.6933 44.2759 14.032C43.9025 13.3707 43.7159 12.592 43.7159 11.696C43.7159 10.7893 43.9025 10.0053 44.2759 9.344C44.6599 8.68267 45.1772 8.17067 45.8279 7.808C46.4785 7.44533 47.2092 7.264 48.0199 7.264C48.7452 7.264 49.3799 7.424 49.9239 7.744C50.4679 8.064 50.8892 8.54933 51.1879 9.2C51.4865 9.85067 51.6359 10.6827 51.6359 11.696C51.6359 12.6987 51.4919 13.5307 51.2039 14.192C50.9159 14.8427 50.4999 15.328 49.9559 15.648C49.4225 15.968 48.7772 16.128 48.0199 16.128ZM48.4519 14.08C48.8572 14.08 49.2252 13.984 49.5559 13.792C49.8865 13.6 50.1479 13.328 50.3399 12.976C50.5425 12.6133 50.6439 12.1867 50.6439 11.696C50.6439 11.1947 50.5425 10.768 50.3399 10.416C50.1479 10.064 49.8865 9.792 49.5559 9.6C49.2252 9.408 48.8572 9.312 48.4519 9.312C48.0359 9.312 47.6625 9.408 47.3319 9.6C47.0012 9.792 46.7345 10.064 46.5319 10.416C46.3399 10.768 46.2439 11.1947 46.2439 11.696C46.2439 12.1867 46.3399 12.6133 46.5319 12.976C46.7345 13.328 47.0012 13.6 47.3319 13.792C47.6625 13.984 48.0359 14.08 48.4519 14.08ZM50.7079 16V14.24L50.7559 11.68L50.5959 9.136V4.128H53.0919V16H50.7079ZM59.098 16.128C58.2873 16.128 57.5567 15.9467 56.906 15.584C56.2553 15.2107 55.738 14.6933 55.354 14.032C54.9807 13.3707 54.794 12.592 54.794 11.696C54.794 10.7893 54.9807 10.0053 55.354 9.344C55.738 8.68267 56.2553 8.17067 56.906 7.808C57.5567 7.44533 58.2873 7.264 59.098 7.264C59.8233 7.264 60.458 7.424 61.002 7.744C61.546 8.064 61.9673 8.54933 62.266 9.2C62.5647 9.85067 62.714 10.6827 62.714 11.696C62.714 12.6987 62.57 13.5307 62.282 14.192C61.994 14.8427 61.578 15.328 61.034 15.648C60.5007 15.968 59.8553 16.128 59.098 16.128ZM59.53 14.08C59.9353 14.08 60.3033 13.984 60.634 13.792C60.9647 13.6 61.226 13.328 61.418 12.976C61.6207 12.6133 61.722 12.1867 61.722 11.696C61.722 11.1947 61.6207 10.768 61.418 10.416C61.226 10.064 60.9647 9.792 60.634 9.6C60.3033 9.408 59.9353 9.312 59.53 9.312C59.114 9.312 58.7407 9.408 58.41 9.6C58.0793 9.792 57.8127 10.064 57.61 10.416C57.418 10.768 57.322 11.1947 57.322 11.696C57.322 12.1867 57.418 12.6133 57.61 12.976C57.8127 13.328 58.0793 13.6 58.41 13.792C58.7407 13.984 59.114 14.08 59.53 14.08ZM61.786 16V14.24L61.834 11.68L61.674 9.136V4.128H64.17V16H61.786ZM71.1874 16V4.8H76.6594C78.0674 4.8 79.1234 5.06667 79.8274 5.6C80.542 6.13333 80.8994 6.83733 80.8994 7.712C80.8994 8.29867 80.7554 8.81067 80.4674 9.248C80.1794 9.67467 79.7847 10.0053 79.2834 10.24C78.782 10.4747 78.206 10.592 77.5554 10.592L77.8594 9.936C78.5634 9.936 79.1874 10.0533 79.7314 10.288C80.2754 10.512 80.6967 10.848 80.9954 11.296C81.3047 11.744 81.4594 12.2933 81.4594 12.944C81.4594 13.904 81.0807 14.656 80.3234 15.2C79.566 15.7333 78.4514 16 76.9794 16H71.1874ZM73.7634 14.048H76.7874C77.4594 14.048 77.966 13.9413 78.3074 13.728C78.6594 13.504 78.8354 13.152 78.8354 12.672C78.8354 12.2027 78.6594 11.856 78.3074 11.632C77.966 11.3973 77.4594 11.28 76.7874 11.28H73.5714V9.392H76.3394C76.9687 9.392 77.4487 9.28533 77.7794 9.072C78.1207 8.848 78.2914 8.512 78.2914 8.064C78.2914 7.62667 78.1207 7.30133 77.7794 7.088C77.4487 6.864 76.9687 6.752 76.3394 6.752H73.7634V14.048ZM83.2458 16V7.392H85.7418V16H83.2458ZM84.4938 6.192C84.0351 6.192 83.6618 6.05867 83.3738 5.792C83.0858 5.52533 82.9418 5.19467 82.9418 4.8C82.9418 4.40533 83.0858 4.07467 83.3738 3.808C83.6618 3.54133 84.0351 3.408 84.4938 3.408C84.9524 3.408 85.3258 3.536 85.6138 3.792C85.9018 4.03733 86.0458 4.35733 86.0458 4.752C86.0458 5.168 85.9018 5.51467 85.6138 5.792C85.3364 6.05867 84.9631 6.192 84.4938 6.192ZM88.0583 16V4.128H90.5543V16H88.0583ZM92.8708 16V4.128H95.3668V16H92.8708ZM100.579 16.128C99.8433 16.128 99.1339 16.0427 98.4513 15.872C97.7793 15.6907 97.2459 15.4667 96.8513 15.2L97.6833 13.408C98.0779 13.6533 98.5419 13.856 99.0753 14.016C99.6193 14.1653 100.153 14.24 100.675 14.24C101.251 14.24 101.657 14.1707 101.891 14.032C102.137 13.8933 102.259 13.7013 102.259 13.456C102.259 13.2533 102.163 13.104 101.971 13.008C101.79 12.9013 101.545 12.8213 101.235 12.768C100.926 12.7147 100.585 12.6613 100.211 12.608C99.8486 12.5547 99.4806 12.4853 99.1073 12.4C98.7339 12.304 98.3926 12.1653 98.0833 11.984C97.7739 11.8027 97.5233 11.5573 97.3313 11.248C97.1499 10.9387 97.0592 10.5387 97.0592 10.048C97.0592 9.504 97.2139 9.024 97.5233 8.608C97.8433 8.192 98.3019 7.86667 98.8993 7.632C99.4966 7.38667 100.211 7.264 101.043 7.264C101.63 7.264 102.227 7.328 102.835 7.456C103.443 7.584 103.95 7.77067 104.355 8.016L103.523 9.792C103.107 9.54667 102.686 9.38133 102.259 9.296C101.843 9.2 101.438 9.152 101.043 9.152C100.489 9.152 100.083 9.22667 99.8273 9.376C99.5713 9.52533 99.4433 9.71733 99.4433 9.952C99.4433 10.1653 99.5339 10.3253 99.7153 10.432C99.9073 10.5387 100.158 10.624 100.467 10.688C100.777 10.752 101.113 10.8107 101.475 10.864C101.849 10.9067 102.222 10.976 102.595 11.072C102.969 11.168 103.305 11.3067 103.603 11.488C103.913 11.6587 104.163 11.8987 104.355 12.208C104.547 12.5067 104.643 12.9013 104.643 13.392C104.643 13.9253 104.483 14.4 104.163 14.816C103.843 15.2213 103.379 15.5413 102.771 15.776C102.174 16.0107 101.443 16.128 100.579 16.128Z" fill="#4FBA74"/>
</svg>
