<svg width="89" height="20" viewBox="0 0 89 20" fill="none" xmlns="http://www.w3.org/2000/svg">
<path d="M14.9688 10C14.9688 10.5625 14.5312 11 14 11H4.40625L7.6875 14.3125C8.09375 14.6875 8.09375 15.3438 7.6875 15.7188C7.5 15.9062 7.25 16 7 16C6.71875 16 6.46875 15.9062 6.28125 15.7188L1.28125 10.7188C0.875 10.3438 0.875 9.6875 1.28125 9.3125L6.28125 4.3125C6.65625 3.90625 7.3125 3.90625 7.6875 4.3125C8.09375 4.6875 8.09375 5.34375 7.6875 5.71875L4.40625 9H14C14.5312 9 14.9688 9.46875 14.9688 10Z" fill="#4FBA74"/>
<path d="M37.768 16.192C36.8827 16.192 36.0613 16.048 35.304 15.76C34.5573 15.472 33.9067 15.0667 33.352 14.544C32.808 14.0213 32.3813 13.408 32.072 12.704C31.7733 12 31.624 11.232 31.624 10.4C31.624 9.568 31.7733 8.8 32.072 8.096C32.3813 7.392 32.8133 6.77867 33.368 6.256C33.9227 5.73333 34.5733 5.328 35.32 5.04C36.0667 4.752 36.8773 4.608 37.752 4.608C38.6373 4.608 39.448 4.752 40.184 5.04C40.9307 5.328 41.576 5.73333 42.12 6.256C42.6747 6.77867 43.1067 7.392 43.416 8.096C43.7253 8.78933 43.88 9.55733 43.88 10.4C43.88 11.232 43.7253 12.0053 43.416 12.72C43.1067 13.424 42.6747 14.0373 42.12 14.56C41.576 15.072 40.9307 15.472 40.184 15.76C39.448 16.048 38.6427 16.192 37.768 16.192ZM37.752 13.984C38.2533 13.984 38.712 13.8987 39.128 13.728C39.5547 13.5573 39.928 13.312 40.248 12.992C40.568 12.672 40.8133 12.2933 40.984 11.856C41.1653 11.4187 41.256 10.9333 41.256 10.4C41.256 9.86667 41.1653 9.38133 40.984 8.944C40.8133 8.50667 40.568 8.128 40.248 7.808C39.9387 7.488 39.5707 7.24267 39.144 7.072C38.7173 6.90133 38.2533 6.816 37.752 6.816C37.2507 6.816 36.7867 6.90133 36.36 7.072C35.944 7.24267 35.576 7.488 35.256 7.808C34.936 8.128 34.6853 8.50667 34.504 8.944C34.3333 9.38133 34.248 9.86667 34.248 10.4C34.248 10.9227 34.3333 11.408 34.504 11.856C34.6853 12.2933 34.9307 12.672 35.24 12.992C35.56 13.312 35.9333 13.5573 36.36 13.728C36.7867 13.8987 37.2507 13.984 37.752 13.984ZM49.2501 16.128C48.2368 16.128 47.4475 15.872 46.8821 15.36C46.3168 14.8373 46.0341 14.064 46.0341 13.04V5.488H48.5301V13.008C48.5301 13.3707 48.6261 13.6533 48.8181 13.856C49.0101 14.048 49.2715 14.144 49.6021 14.144C49.9968 14.144 50.3328 14.0373 50.6101 13.824L51.2821 15.584C51.0261 15.7653 50.7168 15.904 50.3541 16C50.0021 16.0853 49.6341 16.128 49.2501 16.128ZM44.7061 9.504V7.584H50.6741V9.504H44.7061ZM57.9153 7.264C58.5979 7.264 59.2059 7.40267 59.7393 7.68C60.2833 7.94667 60.7099 8.36267 61.0193 8.928C61.3286 9.48267 61.4833 10.1973 61.4833 11.072V16H58.9873V11.456C58.9873 10.7627 58.8326 10.2507 58.5233 9.92C58.2246 9.58933 57.7979 9.424 57.2433 9.424C56.8486 9.424 56.4913 9.50933 56.1713 9.68C55.8619 9.84 55.6166 10.0907 55.4353 10.432C55.2646 10.7733 55.1793 11.2107 55.1793 11.744V16H52.6833V4.128H55.1793V9.776L54.6193 9.056C54.9286 8.48 55.3713 8.03733 55.9473 7.728C56.5233 7.41867 57.1793 7.264 57.9153 7.264ZM68.0803 16.128C67.0989 16.128 66.2349 15.936 65.4883 15.552C64.7523 15.168 64.1816 14.6453 63.7763 13.984C63.3709 13.312 63.1683 12.5493 63.1683 11.696C63.1683 10.832 63.3656 10.0693 63.7603 9.408C64.1656 8.736 64.7149 8.21333 65.4083 7.84C66.1016 7.456 66.8856 7.264 67.7603 7.264C68.6029 7.264 69.3603 7.44533 70.0323 7.808C70.7149 8.16 71.2536 8.672 71.6483 9.344C72.0429 10.0053 72.2403 10.8 72.2403 11.728C72.2403 11.824 72.2349 11.936 72.2243 12.064C72.2136 12.1813 72.2029 12.2933 72.1923 12.4H65.2003V10.944H70.8802L69.9203 11.376C69.9203 10.928 69.8296 10.5387 69.6483 10.208C69.4669 9.87733 69.2163 9.62133 68.8963 9.44C68.5763 9.248 68.2029 9.152 67.7763 9.152C67.3496 9.152 66.9709 9.248 66.6403 9.44C66.3203 9.62133 66.0696 9.88267 65.8883 10.224C65.7069 10.5547 65.6163 10.9493 65.6163 11.408V11.792C65.6163 12.2613 65.7176 12.6773 65.9203 13.04C66.1336 13.392 66.4269 13.664 66.8003 13.856C67.1843 14.0373 67.6323 14.128 68.1443 14.128C68.6029 14.128 69.0029 14.0587 69.3443 13.92C69.6963 13.7813 70.0163 13.5733 70.3043 13.296L71.6323 14.736C71.2376 15.184 70.7416 15.5307 70.1443 15.776C69.5469 16.0107 68.8589 16.128 68.0803 16.128ZM73.902 16V7.392H76.286V9.824L75.95 9.12C76.206 8.512 76.6167 8.05333 77.182 7.744C77.7473 7.424 78.4353 7.264 79.246 7.264V9.568C79.1393 9.55733 79.0433 9.552 78.958 9.552C78.8727 9.54133 78.782 9.536 78.686 9.536C78.0033 9.536 77.4487 9.73333 77.022 10.128C76.606 10.512 76.398 11.1147 76.398 11.936V16H73.902ZM83.6886 16.128C82.9526 16.128 82.2433 16.0427 81.5606 15.872C80.8886 15.6907 80.3553 15.4667 79.9606 15.2L80.7926 13.408C81.1873 13.6533 81.6513 13.856 82.1846 14.016C82.7286 14.1653 83.262 14.24 83.7846 14.24C84.3606 14.24 84.766 14.1707 85.0006 14.032C85.246 13.8933 85.3686 13.7013 85.3686 13.456C85.3686 13.2533 85.2726 13.104 85.0806 13.008C84.8993 12.9013 84.654 12.8213 84.3446 12.768C84.0353 12.7147 83.694 12.6613 83.3206 12.608C82.958 12.5547 82.59 12.4853 82.2166 12.4C81.8433 12.304 81.502 12.1653 81.1926 11.984C80.8833 11.8027 80.6326 11.5573 80.4406 11.248C80.2593 10.9387 80.1686 10.5387 80.1686 10.048C80.1686 9.504 80.3233 9.024 80.6326 8.608C80.9526 8.192 81.4113 7.86667 82.0086 7.632C82.606 7.38667 83.3206 7.264 84.1526 7.264C84.7393 7.264 85.3366 7.328 85.9446 7.456C86.5526 7.584 87.0593 7.77067 87.4646 8.016L86.6326 9.792C86.2166 9.54667 85.7953 9.38133 85.3686 9.296C84.9526 9.2 84.5473 9.152 84.1526 9.152C83.598 9.152 83.1926 9.22667 82.9366 9.376C82.6806 9.52533 82.5526 9.71733 82.5526 9.952C82.5526 10.1653 82.6433 10.3253 82.8246 10.432C83.0166 10.5387 83.2673 10.624 83.5766 10.688C83.886 10.752 84.222 10.8107 84.5846 10.864C84.958 10.9067 85.3313 10.976 85.7046 11.072C86.078 11.168 86.414 11.3067 86.7126 11.488C87.022 11.6587 87.2726 11.8987 87.4646 12.208C87.6566 12.5067 87.7526 12.9013 87.7526 13.392C87.7526 13.9253 87.5926 14.4 87.2726 14.816C86.9526 15.2213 86.4886 15.5413 85.8806 15.776C85.2833 16.0107 84.5526 16.128 83.6886 16.128Z" fill="#4FBA74"/>
</svg>
