<svg width="167" height="20" viewBox="0 0 167 20" fill="none" xmlns="http://www.w3.org/2000/svg">
<path d="M14.9688 10C14.9688 10.5625 14.5312 11 14 11H4.40625L7.6875 14.3125C8.09375 14.6875 8.09375 15.3438 7.6875 15.7188C7.5 15.9062 7.25 16 7 16C6.71875 16 6.46875 15.9062 6.28125 15.7188L1.28125 10.7188C0.875 10.3438 0.875 9.6875 1.28125 9.3125L6.28125 4.3125C6.65625 3.90625 7.3125 3.90625 7.6875 4.3125C8.09375 4.6875 8.09375 5.34375 7.6875 5.71875L4.40625 9H14C14.5312 9 14.9688 9.46875 14.9688 10Z" fill="#4FBA74"/>
<path d="M34.648 16V6.912H31.064V4.8H40.824V6.912H37.24V16H34.648ZM41.8551 16V7.392H44.2391V9.824L43.9031 9.12C44.1591 8.512 44.5698 8.05333 45.1351 7.744C45.7005 7.424 46.3885 7.264 47.1991 7.264V9.568C47.0925 9.55733 46.9965 9.552 46.9111 9.552C46.8258 9.54133 46.7351 9.536 46.6391 9.536C45.9565 9.536 45.4018 9.73333 44.9751 10.128C44.5591 10.512 44.3511 11.1147 44.3511 11.936V16H41.8551ZM53.4008 16V14.32L53.2408 13.952V10.944C53.2408 10.4107 53.0754 9.99467 52.7448 9.696C52.4248 9.39733 51.9288 9.248 51.2568 9.248C50.7981 9.248 50.3448 9.32267 49.8968 9.472C49.4594 9.61067 49.0861 9.80267 48.7768 10.048L47.8808 8.304C48.3501 7.97333 48.9154 7.71733 49.5768 7.536C50.2381 7.35467 50.9101 7.264 51.5928 7.264C52.9048 7.264 53.9234 7.57333 54.6488 8.192C55.3741 8.81067 55.7368 9.776 55.7368 11.088V16H53.4008ZM50.7768 16.128C50.1048 16.128 49.5288 16.016 49.0488 15.792C48.5688 15.5573 48.2008 15.2427 47.9448 14.848C47.6888 14.4533 47.5608 14.0107 47.5608 13.52C47.5608 13.008 47.6834 12.56 47.9288 12.176C48.1848 11.792 48.5848 11.4933 49.1288 11.28C49.6728 11.056 50.3821 10.944 51.2568 10.944H53.5448V12.4H51.5288C50.9421 12.4 50.5368 12.496 50.3128 12.688C50.0994 12.88 49.9928 13.12 49.9928 13.408C49.9928 13.728 50.1154 13.984 50.3608 14.176C50.6168 14.3573 50.9634 14.448 51.4008 14.448C51.8168 14.448 52.1901 14.352 52.5208 14.16C52.8514 13.9573 53.0914 13.664 53.2408 13.28L53.6248 14.432C53.4434 14.9867 53.1128 15.408 52.6328 15.696C52.1528 15.984 51.5341 16.128 50.7768 16.128ZM63.2278 7.264C63.9104 7.264 64.5184 7.40267 65.0518 7.68C65.5958 7.94667 66.0224 8.36267 66.3318 8.928C66.6411 9.48267 66.7958 10.1973 66.7958 11.072V16H64.2998V11.456C64.2998 10.7627 64.1451 10.2507 63.8358 9.92C63.5371 9.58933 63.1104 9.424 62.5558 9.424C62.1611 9.424 61.8038 9.50933 61.4838 9.68C61.1744 9.84 60.9291 10.0907 60.7478 10.432C60.5771 10.7733 60.4918 11.2107 60.4918 11.744V16H57.9958V7.392H60.3798V9.776L59.9318 9.056C60.2411 8.48 60.6838 8.03733 61.2598 7.728C61.8358 7.41867 62.4918 7.264 63.2278 7.264ZM71.9543 16.128C71.2183 16.128 70.5089 16.0427 69.8263 15.872C69.1543 15.6907 68.6209 15.4667 68.2263 15.2L69.0583 13.408C69.4529 13.6533 69.9169 13.856 70.4503 14.016C70.9943 14.1653 71.5276 14.24 72.0503 14.24C72.6263 14.24 73.0316 14.1707 73.2663 14.032C73.5116 13.8933 73.6343 13.7013 73.6343 13.456C73.6343 13.2533 73.5383 13.104 73.3463 13.008C73.1649 12.9013 72.9196 12.8213 72.6102 12.768C72.3009 12.7147 71.9596 12.6613 71.5863 12.608C71.2236 12.5547 70.8556 12.4853 70.4823 12.4C70.1089 12.304 69.7676 12.1653 69.4583 11.984C69.1489 11.8027 68.8983 11.5573 68.7063 11.248C68.5249 10.9387 68.4342 10.5387 68.4342 10.048C68.4342 9.504 68.5889 9.024 68.8983 8.608C69.2183 8.192 69.6769 7.86667 70.2743 7.632C70.8716 7.38667 71.5863 7.264 72.4183 7.264C73.0049 7.264 73.6023 7.328 74.2103 7.456C74.8183 7.584 75.3249 7.77067 75.7303 8.016L74.8983 9.792C74.4823 9.54667 74.0609 9.38133 73.6343 9.296C73.2183 9.2 72.8129 9.152 72.4183 9.152C71.8636 9.152 71.4583 9.22667 71.2023 9.376C70.9463 9.52533 70.8183 9.71733 70.8183 9.952C70.8183 10.1653 70.9089 10.3253 71.0903 10.432C71.2823 10.5387 71.5329 10.624 71.8423 10.688C72.1516 10.752 72.4876 10.8107 72.8503 10.864C73.2236 10.9067 73.5969 10.976 73.9703 11.072C74.3436 11.168 74.6796 11.3067 74.9783 11.488C75.2876 11.6587 75.5383 11.8987 75.7303 12.208C75.9223 12.5067 76.0183 12.9013 76.0183 13.392C76.0183 13.9253 75.8583 14.4 75.5383 14.816C75.2183 15.2213 74.7543 15.5413 74.1463 15.776C73.5489 16.0107 72.8183 16.128 71.9543 16.128ZM82.8383 16V14.32L82.6783 13.952V10.944C82.6783 10.4107 82.5129 9.99467 82.1823 9.696C81.8623 9.39733 81.3663 9.248 80.6943 9.248C80.2356 9.248 79.7823 9.32267 79.3343 9.472C78.8969 9.61067 78.5236 9.80267 78.2143 10.048L77.3183 8.304C77.7876 7.97333 78.3529 7.71733 79.0143 7.536C79.6756 7.35467 80.3476 7.264 81.0303 7.264C82.3423 7.264 83.3609 7.57333 84.0863 8.192C84.8116 8.81067 85.1743 9.776 85.1743 11.088V16H82.8383ZM80.2143 16.128C79.5423 16.128 78.9663 16.016 78.4863 15.792C78.0063 15.5573 77.6383 15.2427 77.3823 14.848C77.1263 14.4533 76.9983 14.0107 76.9983 13.52C76.9983 13.008 77.1209 12.56 77.3663 12.176C77.6223 11.792 78.0223 11.4933 78.5663 11.28C79.1103 11.056 79.8196 10.944 80.6943 10.944H82.9823V12.4H80.9663C80.3796 12.4 79.9743 12.496 79.7503 12.688C79.5369 12.88 79.4303 13.12 79.4303 13.408C79.4303 13.728 79.5529 13.984 79.7983 14.176C80.0543 14.3573 80.4009 14.448 80.8383 14.448C81.2543 14.448 81.6276 14.352 81.9583 14.16C82.2889 13.9573 82.5289 13.664 82.6783 13.28L83.0623 14.432C82.8809 14.9867 82.5503 15.408 82.0703 15.696C81.5903 15.984 80.9716 16.128 80.2143 16.128ZM91.6558 16.128C90.7278 16.128 89.9011 15.9413 89.1758 15.568C88.4504 15.184 87.8798 14.656 87.4638 13.984C87.0584 13.312 86.8558 12.5493 86.8558 11.696C86.8558 10.832 87.0584 10.0693 87.4638 9.408C87.8798 8.736 88.4504 8.21333 89.1758 7.84C89.9011 7.456 90.7278 7.264 91.6558 7.264C92.5624 7.264 93.3518 7.456 94.0238 7.84C94.6958 8.21333 95.1918 8.752 95.5118 9.456L93.5758 10.496C93.3518 10.0907 93.0691 9.792 92.7278 9.6C92.3971 9.408 92.0344 9.312 91.6398 9.312C91.2131 9.312 90.8291 9.408 90.4878 9.6C90.1464 9.792 89.8744 10.064 89.6718 10.416C89.4798 10.768 89.3838 11.1947 89.3838 11.696C89.3838 12.1973 89.4798 12.624 89.6718 12.976C89.8744 13.328 90.1464 13.6 90.4878 13.792C90.8291 13.984 91.2131 14.08 91.6398 14.08C92.0344 14.08 92.3971 13.9893 92.7278 13.808C93.0691 13.616 93.3518 13.312 93.5758 12.896L95.5118 13.952C95.1918 14.6453 94.6958 15.184 94.0238 15.568C93.3518 15.9413 92.5624 16.128 91.6558 16.128ZM100.594 16.128C99.5805 16.128 98.7912 15.872 98.2259 15.36C97.6605 14.8373 97.3779 14.064 97.3779 13.04V5.488H99.8739V13.008C99.8739 13.3707 99.9699 13.6533 100.162 13.856C100.354 14.048 100.615 14.144 100.946 14.144C101.341 14.144 101.677 14.0373 101.954 13.824L102.626 15.584C102.37 15.7653 102.061 15.904 101.698 16C101.346 16.0853 100.978 16.128 100.594 16.128ZM96.0499 9.504V7.584H102.018V9.504H96.0499ZM104.027 16V7.392H106.523V16H104.027ZM105.275 6.192C104.816 6.192 104.443 6.05867 104.155 5.792C103.867 5.52533 103.723 5.19467 103.723 4.8C103.723 4.40533 103.867 4.07467 104.155 3.808C104.443 3.54133 104.816 3.408 105.275 3.408C105.734 3.408 106.107 3.536 106.395 3.792C106.683 4.03733 106.827 4.35733 106.827 4.752C106.827 5.168 106.683 5.51467 106.395 5.792C106.118 6.05867 105.744 6.192 105.275 6.192ZM112.936 16.128C112.018 16.128 111.202 15.936 110.488 15.552C109.784 15.168 109.224 14.6453 108.808 13.984C108.402 13.312 108.2 12.5493 108.2 11.696C108.2 10.832 108.402 10.0693 108.808 9.408C109.224 8.736 109.784 8.21333 110.488 7.84C111.202 7.456 112.018 7.264 112.936 7.264C113.842 7.264 114.653 7.456 115.368 7.84C116.082 8.21333 116.642 8.73067 117.048 9.392C117.453 10.0533 117.656 10.8213 117.656 11.696C117.656 12.5493 117.453 13.312 117.048 13.984C116.642 14.6453 116.082 15.168 115.368 15.552C114.653 15.936 113.842 16.128 112.936 16.128ZM112.936 14.08C113.352 14.08 113.725 13.984 114.056 13.792C114.386 13.6 114.648 13.328 114.84 12.976C115.032 12.6133 115.128 12.1867 115.128 11.696C115.128 11.1947 115.032 10.768 114.84 10.416C114.648 10.064 114.386 9.792 114.056 9.6C113.725 9.408 113.352 9.312 112.936 9.312C112.52 9.312 112.146 9.408 111.816 9.6C111.485 9.792 111.218 10.064 111.016 10.416C110.824 10.768 110.728 11.1947 110.728 11.696C110.728 12.1867 110.824 12.6133 111.016 12.976C111.218 13.328 111.485 13.6 111.816 13.792C112.146 13.984 112.52 14.08 112.936 14.08ZM124.556 7.264C125.239 7.264 125.847 7.40267 126.38 7.68C126.924 7.94667 127.351 8.36267 127.66 8.928C127.969 9.48267 128.124 10.1973 128.124 11.072V16H125.628V11.456C125.628 10.7627 125.473 10.2507 125.164 9.92C124.865 9.58933 124.439 9.424 123.884 9.424C123.489 9.424 123.132 9.50933 122.812 9.68C122.503 9.84 122.257 10.0907 122.076 10.432C121.905 10.7733 121.82 11.2107 121.82 11.744V16H119.324V7.392H121.708V9.776L121.26 9.056C121.569 8.48 122.012 8.03733 122.588 7.728C123.164 7.41867 123.82 7.264 124.556 7.264ZM135.094 16V4.8H137.686V16H135.094ZM145.4 7.264C146.082 7.264 146.69 7.40267 147.224 7.68C147.768 7.94667 148.194 8.36267 148.504 8.928C148.813 9.48267 148.968 10.1973 148.968 11.072V16H146.472V11.456C146.472 10.7627 146.317 10.2507 146.008 9.92C145.709 9.58933 145.282 9.424 144.728 9.424C144.333 9.424 143.976 9.50933 143.656 9.68C143.346 9.84 143.101 10.0907 142.92 10.432C142.749 10.7733 142.664 11.2107 142.664 11.744V16H140.168V7.392H142.552V9.776L142.104 9.056C142.413 8.48 142.856 8.03733 143.432 7.728C144.008 7.41867 144.664 7.264 145.4 7.264ZM151.534 16V7.2C151.534 6.22933 151.822 5.456 152.398 4.88C152.974 4.29333 153.795 4 154.862 4C155.225 4 155.571 4.03733 155.902 4.112C156.243 4.18667 156.531 4.304 156.766 4.464L156.11 6.272C155.971 6.176 155.817 6.10133 155.646 6.048C155.475 5.99467 155.294 5.968 155.102 5.968C154.739 5.968 154.457 6.07467 154.254 6.288C154.062 6.49067 153.966 6.8 153.966 7.216V8.016L154.03 9.088V16H151.534ZM150.206 9.504V7.584H156.174V9.504H150.206ZM161.404 16.128C160.487 16.128 159.671 15.936 158.956 15.552C158.252 15.168 157.692 14.6453 157.276 13.984C156.871 13.312 156.668 12.5493 156.668 11.696C156.668 10.832 156.871 10.0693 157.276 9.408C157.692 8.736 158.252 8.21333 158.956 7.84C159.671 7.456 160.487 7.264 161.404 7.264C162.311 7.264 163.122 7.456 163.836 7.84C164.551 8.21333 165.111 8.73067 165.516 9.392C165.922 10.0533 166.124 10.8213 166.124 11.696C166.124 12.5493 165.922 13.312 165.516 13.984C165.111 14.6453 164.551 15.168 163.836 15.552C163.122 15.936 162.311 16.128 161.404 16.128ZM161.404 14.08C161.82 14.08 162.194 13.984 162.524 13.792C162.855 13.6 163.116 13.328 163.308 12.976C163.5 12.6133 163.596 12.1867 163.596 11.696C163.596 11.1947 163.5 10.768 163.308 10.416C163.116 10.064 162.855 9.792 162.524 9.6C162.194 9.408 161.82 9.312 161.404 9.312C160.988 9.312 160.615 9.408 160.284 9.6C159.954 9.792 159.687 10.064 159.484 10.416C159.292 10.768 159.196 11.1947 159.196 11.696C159.196 12.1867 159.292 12.6133 159.484 12.976C159.687 13.328 159.954 13.6 160.284 13.792C160.615 13.984 160.988 14.08 161.404 14.08Z" fill="#4FBA74"/>
</svg>
