<svg width="82" height="20" viewBox="0 0 82 20" fill="none" xmlns="http://www.w3.org/2000/svg">
<path d="M14.9688 10C14.9688 10.5625 14.5312 11 14 11H4.40625L7.6875 14.3125C8.09375 14.6875 8.09375 15.3438 7.6875 15.7188C7.5 15.9062 7.25 16 7 16C6.71875 16 6.46875 15.9062 6.28125 15.7188L1.28125 10.7188C0.875 10.3438 0.875 9.6875 1.28125 9.3125L6.28125 4.3125C6.65625 3.90625 7.3125 3.90625 7.6875 4.3125C8.09375 4.6875 8.09375 5.34375 7.6875 5.71875L4.40625 9H14C14.5312 9 14.9688 9.46875 14.9688 10Z" fill="#4FBA74"/>
<path d="M37.736 16.192C36.8507 16.192 36.0347 16.0533 35.288 15.776C34.552 15.488 33.9067 15.0827 33.352 14.56C32.808 14.0373 32.3813 13.424 32.072 12.72C31.7733 12.016 31.624 11.2427 31.624 10.4C31.624 9.55733 31.7733 8.784 32.072 8.08C32.3813 7.376 32.8133 6.76267 33.368 6.24C33.9227 5.71733 34.5733 5.31733 35.32 5.04C36.0667 4.752 36.888 4.608 37.784 4.608C38.776 4.608 39.6667 4.77333 40.456 5.104C41.256 5.43467 41.928 5.91467 42.472 6.544L40.808 8.08C40.4027 7.65333 39.96 7.33867 39.48 7.136C39 6.92267 38.4773 6.816 37.912 6.816C37.368 6.816 36.872 6.90133 36.424 7.072C35.976 7.24267 35.5867 7.488 35.256 7.808C34.936 8.128 34.6853 8.50667 34.504 8.944C34.3333 9.38133 34.248 9.86667 34.248 10.4C34.248 10.9227 34.3333 11.4027 34.504 11.84C34.6853 12.2773 34.936 12.6613 35.256 12.992C35.5867 13.312 35.9707 13.5573 36.408 13.728C36.856 13.8987 37.3467 13.984 37.88 13.984C38.392 13.984 38.888 13.904 39.368 13.744C39.8587 13.5733 40.3333 13.2907 40.792 12.896L42.264 14.768C41.656 15.2267 40.9467 15.5787 40.136 15.824C39.336 16.0693 38.536 16.192 37.736 16.192ZM39.896 14.432V10.224H42.264V14.768L39.896 14.432ZM44.4958 16V7.392H46.8798V9.824L46.5438 9.12C46.7998 8.512 47.2104 8.05333 47.7758 7.744C48.3411 7.424 49.0291 7.264 49.8398 7.264V9.568C49.7331 9.55733 49.6371 9.552 49.5518 9.552C49.4664 9.54133 49.3758 9.536 49.2798 9.536C48.5971 9.536 48.0424 9.73333 47.6158 10.128C47.1998 10.512 46.9918 11.1147 46.9918 11.936V16H44.4958ZM56.0414 16V14.32L55.8814 13.952V10.944C55.8814 10.4107 55.716 9.99467 55.3854 9.696C55.0654 9.39733 54.5694 9.248 53.8974 9.248C53.4387 9.248 52.9854 9.32267 52.5374 9.472C52.1 9.61067 51.7267 9.80267 51.4174 10.048L50.5214 8.304C50.9907 7.97333 51.556 7.71733 52.2174 7.536C52.8787 7.35467 53.5507 7.264 54.2334 7.264C55.5454 7.264 56.564 7.57333 57.2894 8.192C58.0147 8.81067 58.3774 9.776 58.3774 11.088V16H56.0414ZM53.4174 16.128C52.7454 16.128 52.1694 16.016 51.6894 15.792C51.2094 15.5573 50.8414 15.2427 50.5854 14.848C50.3294 14.4533 50.2014 14.0107 50.2014 13.52C50.2014 13.008 50.324 12.56 50.5694 12.176C50.8254 11.792 51.2254 11.4933 51.7694 11.28C52.3134 11.056 53.0227 10.944 53.8974 10.944H56.1854V12.4H54.1694C53.5827 12.4 53.1774 12.496 52.9534 12.688C52.74 12.88 52.6334 13.12 52.6334 13.408C52.6334 13.728 52.756 13.984 53.0014 14.176C53.2574 14.3573 53.604 14.448 54.0414 14.448C54.4574 14.448 54.8307 14.352 55.1614 14.16C55.492 13.9573 55.732 13.664 55.8814 13.28L56.2654 14.432C56.084 14.9867 55.7534 15.408 55.2734 15.696C54.7934 15.984 54.1747 16.128 53.4174 16.128ZM65.7244 16.128C64.999 16.128 64.3644 15.968 63.8204 15.648C63.2764 15.328 62.8497 14.8427 62.5404 14.192C62.2417 13.5307 62.0924 12.6987 62.0924 11.696C62.0924 10.6827 62.2364 9.85067 62.5244 9.2C62.8124 8.54933 63.2284 8.064 63.7724 7.744C64.3164 7.424 64.967 7.264 65.7244 7.264C66.535 7.264 67.2604 7.45067 67.9004 7.824C68.551 8.18667 69.063 8.69867 69.4364 9.36C69.8204 10.0213 70.0124 10.8 70.0124 11.696C70.0124 12.6027 69.8204 13.3867 69.4364 14.048C69.063 14.7093 68.551 15.2213 67.9004 15.584C67.2604 15.9467 66.535 16.128 65.7244 16.128ZM60.6364 19.104V7.392H63.0204V9.152L62.9724 11.712L63.1324 14.256V19.104H60.6364ZM65.2924 14.08C65.7084 14.08 66.0764 13.984 66.3964 13.792C66.727 13.6 66.9884 13.328 67.1804 12.976C67.383 12.6133 67.4844 12.1867 67.4844 11.696C67.4844 11.1947 67.383 10.768 67.1804 10.416C66.9884 10.064 66.727 9.792 66.3964 9.6C66.0764 9.408 65.7084 9.312 65.2924 9.312C64.8764 9.312 64.503 9.408 64.1724 9.6C63.8417 9.792 63.5804 10.064 63.3884 10.416C63.1964 10.768 63.1004 11.1947 63.1004 11.696C63.1004 12.1867 63.1964 12.6133 63.3884 12.976C63.5804 13.328 63.8417 13.6 64.1724 13.792C64.503 13.984 64.8764 14.08 65.2924 14.08ZM76.9153 7.264C77.5979 7.264 78.2059 7.40267 78.7393 7.68C79.2833 7.94667 79.7099 8.36267 80.0193 8.928C80.3286 9.48267 80.4833 10.1973 80.4833 11.072V16H77.9873V11.456C77.9873 10.7627 77.8326 10.2507 77.5233 9.92C77.2246 9.58933 76.7979 9.424 76.2433 9.424C75.8486 9.424 75.4913 9.50933 75.1713 9.68C74.8619 9.84 74.6166 10.0907 74.4353 10.432C74.2646 10.7733 74.1793 11.2107 74.1793 11.744V16H71.6833V4.128H74.1793V9.776L73.6193 9.056C73.9286 8.48 74.3713 8.03733 74.9473 7.728C75.5233 7.41867 76.1793 7.264 76.9153 7.264Z" fill="#4FBA74"/>
</svg>
