<svg width="93" height="20" viewBox="0 0 93 20" fill="none" xmlns="http://www.w3.org/2000/svg">
<path d="M14.9688 10C14.9688 10.5625 14.5312 11 14 11H4.40625L7.6875 14.3125C8.09375 14.6875 8.09375 15.3438 7.6875 15.7188C7.5 15.9062 7.25 16 7 16C6.71875 16 6.46875 15.9062 6.28125 15.7188L1.28125 10.7188C0.875 10.3438 0.875 9.6875 1.28125 9.3125L6.28125 4.3125C6.65625 3.90625 7.3125 3.90625 7.6875 4.3125C8.09375 4.6875 8.09375 5.34375 7.6875 5.71875L4.40625 9H14C14.5312 9 14.9688 9.46875 14.9688 10Z" fill="#4FBA74"/>
<path d="M36.008 16.192C35.112 16.192 34.2533 16.0747 33.432 15.84C32.6107 15.5947 31.9493 15.28 31.448 14.896L32.328 12.944C32.808 13.2853 33.3733 13.568 34.024 13.792C34.6853 14.0053 35.352 14.112 36.024 14.112C36.536 14.112 36.9467 14.064 37.256 13.968C37.576 13.8613 37.8107 13.7173 37.96 13.536C38.1093 13.3547 38.184 13.1467 38.184 12.912C38.184 12.6133 38.0667 12.3787 37.832 12.208C37.5973 12.0267 37.288 11.8827 36.904 11.776C36.52 11.6587 36.0933 11.552 35.624 11.456C35.1653 11.3493 34.7013 11.2213 34.232 11.072C33.7733 10.9227 33.352 10.7307 32.968 10.496C32.584 10.2613 32.2693 9.952 32.024 9.568C31.7893 9.184 31.672 8.69333 31.672 8.096C31.672 7.456 31.8427 6.87467 32.184 6.352C32.536 5.81867 33.0587 5.39733 33.752 5.088C34.456 4.768 35.336 4.608 36.392 4.608C37.096 4.608 37.7893 4.69333 38.472 4.864C39.1547 5.024 39.7573 5.26933 40.28 5.6L39.48 7.568C38.9573 7.26933 38.4347 7.05067 37.912 6.912C37.3893 6.76267 36.8773 6.688 36.376 6.688C35.8747 6.688 35.464 6.74667 35.144 6.864C34.824 6.98133 34.5947 7.136 34.456 7.328C34.3173 7.50933 34.248 7.72267 34.248 7.968C34.248 8.256 34.3653 8.49067 34.6 8.672C34.8347 8.84267 35.144 8.98133 35.528 9.088C35.912 9.19467 36.3333 9.30133 36.792 9.408C37.2613 9.51467 37.7253 9.63733 38.184 9.776C38.6533 9.91467 39.08 10.1013 39.464 10.336C39.848 10.5707 40.1573 10.88 40.392 11.264C40.6373 11.648 40.76 12.1333 40.76 12.72C40.76 13.3493 40.584 13.9253 40.232 14.448C39.88 14.9707 39.352 15.392 38.648 15.712C37.9547 16.032 37.0747 16.192 36.008 16.192ZM46.6271 16.128C45.6458 16.128 44.7818 15.936 44.0351 15.552C43.2991 15.168 42.7285 14.6453 42.3231 13.984C41.9178 13.312 41.7151 12.5493 41.7151 11.696C41.7151 10.832 41.9125 10.0693 42.3071 9.408C42.7125 8.736 43.2618 8.21333 43.9551 7.84C44.6485 7.456 45.4325 7.264 46.3071 7.264C47.1498 7.264 47.9071 7.44533 48.5791 7.808C49.2618 8.16 49.8005 8.672 50.1951 9.344C50.5898 10.0053 50.7871 10.8 50.7871 11.728C50.7871 11.824 50.7818 11.936 50.7711 12.064C50.7605 12.1813 50.7498 12.2933 50.7391 12.4H43.7471V10.944H49.4271L48.4671 11.376C48.4671 10.928 48.3765 10.5387 48.1951 10.208C48.0138 9.87733 47.7631 9.62133 47.4431 9.44C47.1231 9.248 46.7498 9.152 46.3231 9.152C45.8965 9.152 45.5178 9.248 45.1871 9.44C44.8671 9.62133 44.6165 9.88267 44.4351 10.224C44.2538 10.5547 44.1631 10.9493 44.1631 11.408V11.792C44.1631 12.2613 44.2645 12.6773 44.4671 13.04C44.6805 13.392 44.9738 13.664 45.3471 13.856C45.7311 14.0373 46.1791 14.128 46.6911 14.128C47.1498 14.128 47.5498 14.0587 47.8911 13.92C48.2431 13.7813 48.5631 13.5733 48.8511 13.296L50.1791 14.736C49.7845 15.184 49.2885 15.5307 48.6911 15.776C48.0938 16.0107 47.4058 16.128 46.6271 16.128ZM55.9689 16.128C54.9555 16.128 54.1662 15.872 53.6009 15.36C53.0355 14.8373 52.7529 14.064 52.7529 13.04V5.488H55.2489V13.008C55.2489 13.3707 55.3449 13.6533 55.5369 13.856C55.7289 14.048 55.9902 14.144 56.3209 14.144C56.7155 14.144 57.0515 14.0373 57.3289 13.824L58.0009 15.584C57.7449 15.7653 57.4355 15.904 57.0729 16C56.7209 16.0853 56.3529 16.128 55.9689 16.128ZM51.4249 9.504V7.584H57.3929V9.504H51.4249ZM62.7345 16.128C61.7212 16.128 60.9318 15.872 60.3665 15.36C59.8012 14.8373 59.5185 14.064 59.5185 13.04V5.488H62.0145V13.008C62.0145 13.3707 62.1105 13.6533 62.3025 13.856C62.4945 14.048 62.7558 14.144 63.0865 14.144C63.4812 14.144 63.8172 14.0373 64.0945 13.824L64.7665 15.584C64.5105 15.7653 64.2012 15.904 63.8385 16C63.4865 16.0853 63.1185 16.128 62.7345 16.128ZM58.1905 9.504V7.584H64.1585V9.504H58.1905ZM66.1676 16V7.392H68.6636V16H66.1676ZM67.4156 6.192C66.957 6.192 66.5836 6.05867 66.2956 5.792C66.0076 5.52533 65.8636 5.19467 65.8636 4.8C65.8636 4.40533 66.0076 4.07467 66.2956 3.808C66.5836 3.54133 66.957 3.408 67.4156 3.408C67.8743 3.408 68.2476 3.536 68.5356 3.792C68.8236 4.03733 68.9676 4.35733 68.9676 4.752C68.9676 5.168 68.8236 5.51467 68.5356 5.792C68.2583 6.05867 67.885 6.192 67.4156 6.192ZM76.2121 7.264C76.8948 7.264 77.5028 7.40267 78.0361 7.68C78.5801 7.94667 79.0068 8.36267 79.3161 8.928C79.6255 9.48267 79.7801 10.1973 79.7801 11.072V16H77.2841V11.456C77.2841 10.7627 77.1295 10.2507 76.8201 9.92C76.5215 9.58933 76.0948 9.424 75.5401 9.424C75.1455 9.424 74.7881 9.50933 74.4681 9.68C74.1588 9.84 73.9135 10.0907 73.7321 10.432C73.5615 10.7733 73.4761 11.2107 73.4761 11.744V16H70.9801V7.392H73.3641V9.776L72.9161 9.056C73.2255 8.48 73.6681 8.03733 74.2441 7.728C74.8201 7.41867 75.4761 7.264 76.2121 7.264ZM86.1531 19.232C85.3425 19.232 84.5585 19.1307 83.8011 18.928C83.0545 18.736 82.4305 18.4427 81.9291 18.048L82.9211 16.256C83.2838 16.5547 83.7425 16.7893 84.2971 16.96C84.8625 17.1413 85.4171 17.232 85.9611 17.232C86.8465 17.232 87.4865 17.0347 87.8811 16.64C88.2865 16.2453 88.4891 15.6587 88.4891 14.88V13.584L88.6491 11.424L88.6171 9.248V7.392H90.9851V14.56C90.9851 16.16 90.5691 17.3387 89.7371 18.096C88.9051 18.8533 87.7105 19.232 86.1531 19.232ZM85.7691 15.584C84.9691 15.584 84.2438 15.4133 83.5931 15.072C82.9531 14.72 82.4358 14.2347 82.0411 13.616C81.6571 12.9867 81.4651 12.256 81.4651 11.424C81.4651 10.5813 81.6571 9.85067 82.0411 9.232C82.4358 8.60267 82.9531 8.11733 83.5931 7.776C84.2438 7.43467 84.9691 7.264 85.7691 7.264C86.4945 7.264 87.1345 7.41333 87.6891 7.712C88.2438 8 88.6758 8.45333 88.9851 9.072C89.2945 9.68 89.4491 10.464 89.4491 11.424C89.4491 12.3733 89.2945 13.1573 88.9851 13.776C88.6758 14.384 88.2438 14.8373 87.6891 15.136C87.1345 15.4347 86.4945 15.584 85.7691 15.584ZM86.2651 13.536C86.7025 13.536 87.0918 13.4507 87.4331 13.28C87.7745 13.0987 88.0411 12.848 88.2331 12.528C88.4251 12.208 88.5211 11.84 88.5211 11.424C88.5211 10.9973 88.4251 10.6293 88.2331 10.32C88.0411 10 87.7745 9.75467 87.4331 9.584C87.0918 9.40267 86.7025 9.312 86.2651 9.312C85.8278 9.312 85.4385 9.40267 85.0971 9.584C84.7558 9.75467 84.4838 10 84.2811 10.32C84.0891 10.6293 83.9931 10.9973 83.9931 11.424C83.9931 11.84 84.0891 12.208 84.2811 12.528C84.4838 12.848 84.7558 13.0987 85.0971 13.28C85.4385 13.4507 85.8278 13.536 86.2651 13.536Z" fill="#4FBA74"/>
</svg>
