<svg width="168" height="20" viewBox="0 0 168 20" fill="none" xmlns="http://www.w3.org/2000/svg">
<path d="M14.9688 10C14.9688 10.5625 14.5312 11 14 11H4.40625L7.6875 14.3125C8.09375 14.6875 8.09375 15.3438 7.6875 15.7188C7.5 15.9062 7.25 16 7 16C6.71875 16 6.46875 15.9062 6.28125 15.7188L1.28125 10.7188C0.875 10.3438 0.875 9.6875 1.28125 9.3125L6.28125 4.3125C6.65625 3.90625 7.3125 3.90625 7.6875 4.3125C8.09375 4.6875 8.09375 5.34375 7.6875 5.71875L4.40625 9H14C14.5312 9 14.9688 9.46875 14.9688 10Z" fill="#4FBA74"/>
<path d="M37.688 16.192C36.824 16.192 36.0187 16.0533 35.272 15.776C34.536 15.488 33.896 15.0827 33.352 14.56C32.808 14.0373 32.3813 13.424 32.072 12.72C31.7733 12.016 31.624 11.2427 31.624 10.4C31.624 9.55733 31.7733 8.784 32.072 8.08C32.3813 7.376 32.808 6.76267 33.352 6.24C33.9067 5.71733 34.552 5.31733 35.288 5.04C36.024 4.752 36.8293 4.608 37.704 4.608C38.6747 4.608 39.5493 4.77867 40.328 5.12C41.1173 5.45067 41.7787 5.94133 42.312 6.592L40.648 8.128C40.264 7.69067 39.8373 7.36533 39.368 7.152C38.8987 6.928 38.3867 6.816 37.832 6.816C37.3093 6.816 36.8293 6.90133 36.392 7.072C35.9547 7.24267 35.576 7.488 35.256 7.808C34.936 8.128 34.6853 8.50667 34.504 8.944C34.3333 9.38133 34.248 9.86667 34.248 10.4C34.248 10.9333 34.3333 11.4187 34.504 11.856C34.6853 12.2933 34.936 12.672 35.256 12.992C35.576 13.312 35.9547 13.5573 36.392 13.728C36.8293 13.8987 37.3093 13.984 37.832 13.984C38.3867 13.984 38.8987 13.8773 39.368 13.664C39.8373 13.44 40.264 13.104 40.648 12.656L42.312 14.192C41.7787 14.8427 41.1173 15.3387 40.328 15.68C39.5493 16.0213 38.6693 16.192 37.688 16.192ZM49.1195 16V14.32L48.9595 13.952V10.944C48.9595 10.4107 48.7942 9.99467 48.4635 9.696C48.1435 9.39733 47.6475 9.248 46.9755 9.248C46.5168 9.248 46.0635 9.32267 45.6155 9.472C45.1782 9.61067 44.8048 9.80267 44.4955 10.048L43.5995 8.304C44.0688 7.97333 44.6342 7.71733 45.2955 7.536C45.9568 7.35467 46.6288 7.264 47.3115 7.264C48.6235 7.264 49.6422 7.57333 50.3675 8.192C51.0928 8.81067 51.4555 9.776 51.4555 11.088V16H49.1195ZM46.4955 16.128C45.8235 16.128 45.2475 16.016 44.7675 15.792C44.2875 15.5573 43.9195 15.2427 43.6635 14.848C43.4075 14.4533 43.2795 14.0107 43.2795 13.52C43.2795 13.008 43.4022 12.56 43.6475 12.176C43.9035 11.792 44.3035 11.4933 44.8475 11.28C45.3915 11.056 46.1008 10.944 46.9755 10.944H49.2635V12.4H47.2475C46.6608 12.4 46.2555 12.496 46.0315 12.688C45.8182 12.88 45.7115 13.12 45.7115 13.408C45.7115 13.728 45.8342 13.984 46.0795 14.176C46.3355 14.3573 46.6822 14.448 47.1195 14.448C47.5355 14.448 47.9088 14.352 48.2395 14.16C48.5702 13.9573 48.8102 13.664 48.9595 13.28L49.3435 14.432C49.1622 14.9867 48.8315 15.408 48.3515 15.696C47.8715 15.984 47.2528 16.128 46.4955 16.128ZM58.8025 16.128C58.0772 16.128 57.4425 15.968 56.8985 15.648C56.3545 15.328 55.9278 14.8427 55.6185 14.192C55.3198 13.5307 55.1705 12.6987 55.1705 11.696C55.1705 10.6827 55.3145 9.85067 55.6025 9.2C55.8905 8.54933 56.3065 8.064 56.8505 7.744C57.3945 7.424 58.0452 7.264 58.8025 7.264C59.6132 7.264 60.3385 7.45067 60.9785 7.824C61.6292 8.18667 62.1412 8.69867 62.5145 9.36C62.8985 10.0213 63.0905 10.8 63.0905 11.696C63.0905 12.6027 62.8985 13.3867 62.5145 14.048C62.1412 14.7093 61.6292 15.2213 60.9785 15.584C60.3385 15.9467 59.6132 16.128 58.8025 16.128ZM53.7145 19.104V7.392H56.0985V9.152L56.0505 11.712L56.2105 14.256V19.104H53.7145ZM58.3705 14.08C58.7865 14.08 59.1545 13.984 59.4745 13.792C59.8052 13.6 60.0665 13.328 60.2585 12.976C60.4612 12.6133 60.5625 12.1867 60.5625 11.696C60.5625 11.1947 60.4612 10.768 60.2585 10.416C60.0665 10.064 59.8052 9.792 59.4745 9.6C59.1545 9.408 58.7865 9.312 58.3705 9.312C57.9545 9.312 57.5812 9.408 57.2505 9.6C56.9198 9.792 56.6585 10.064 56.4665 10.416C56.2745 10.768 56.1785 11.1947 56.1785 11.696C56.1785 12.1867 56.2745 12.6133 56.4665 12.976C56.6585 13.328 56.9198 13.6 57.2505 13.792C57.5812 13.984 57.9545 14.08 58.3705 14.08ZM68.2814 16.128C67.268 16.128 66.4787 15.872 65.9134 15.36C65.348 14.8373 65.0654 14.064 65.0654 13.04V5.488H67.5614V13.008C67.5614 13.3707 67.6574 13.6533 67.8494 13.856C68.0414 14.048 68.3027 14.144 68.6334 14.144C69.028 14.144 69.364 14.0373 69.6414 13.824L70.3134 15.584C70.0574 15.7653 69.748 15.904 69.3854 16C69.0334 16.0853 68.6654 16.128 68.2814 16.128ZM63.7374 9.504V7.584H69.7054V9.504H63.7374ZM75.3465 16.128C74.6318 16.128 73.9918 15.9893 73.4265 15.712C72.8718 15.4347 72.4398 15.0133 72.1305 14.448C71.8212 13.872 71.6665 13.1413 71.6665 12.256V7.392H74.1625V11.888C74.1625 12.6027 74.3118 13.1307 74.6105 13.472C74.9198 13.8027 75.3518 13.968 75.9065 13.968C76.2905 13.968 76.6318 13.888 76.9305 13.728C77.2292 13.5573 77.4638 13.3013 77.6345 12.96C77.8052 12.608 77.8905 12.1707 77.8905 11.648V7.392H80.3865V16H78.0185V13.632L78.4505 14.32C78.1625 14.9173 77.7358 15.3707 77.1705 15.68C76.6158 15.9787 76.0078 16.128 75.3465 16.128ZM82.6989 16V7.392H85.0829V9.824L84.7469 9.12C85.0029 8.512 85.4135 8.05333 85.9789 7.744C86.5442 7.424 87.2322 7.264 88.0429 7.264V9.568C87.9362 9.55733 87.8402 9.552 87.7549 9.552C87.6695 9.54133 87.5789 9.536 87.4829 9.536C86.8002 9.536 86.2455 9.73333 85.8189 10.128C85.4029 10.512 85.1949 11.1147 85.1949 11.936V16H82.6989ZM93.7365 16.128C92.7552 16.128 91.8912 15.936 91.1445 15.552C90.4085 15.168 89.8378 14.6453 89.4325 13.984C89.0272 13.312 88.8245 12.5493 88.8245 11.696C88.8245 10.832 89.0218 10.0693 89.4165 9.408C89.8218 8.736 90.3712 8.21333 91.0645 7.84C91.7578 7.456 92.5418 7.264 93.4165 7.264C94.2592 7.264 95.0165 7.44533 95.6885 7.808C96.3712 8.16 96.9098 8.672 97.3045 9.344C97.6992 10.0053 97.8965 10.8 97.8965 11.728C97.8965 11.824 97.8912 11.936 97.8805 12.064C97.8698 12.1813 97.8592 12.2933 97.8485 12.4H90.8565V10.944H96.5365L95.5765 11.376C95.5765 10.928 95.4858 10.5387 95.3045 10.208C95.1232 9.87733 94.8725 9.62133 94.5525 9.44C94.2325 9.248 93.8592 9.152 93.4325 9.152C93.0058 9.152 92.6272 9.248 92.2965 9.44C91.9765 9.62133 91.7258 9.88267 91.5445 10.224C91.3632 10.5547 91.2725 10.9493 91.2725 11.408V11.792C91.2725 12.2613 91.3738 12.6773 91.5765 13.04C91.7898 13.392 92.0832 13.664 92.4565 13.856C92.8405 14.0373 93.2885 14.128 93.8005 14.128C94.2592 14.128 94.6592 14.0587 95.0005 13.92C95.3525 13.7813 95.6725 13.5733 95.9605 13.296L97.2885 14.736C96.8938 15.184 96.3978 15.5307 95.8005 15.776C95.2032 16.0107 94.5152 16.128 93.7365 16.128ZM104.266 16V4.8H109.114C110.116 4.8 110.98 4.96533 111.706 5.296C112.431 5.616 112.991 6.08 113.386 6.688C113.78 7.296 113.978 8.02133 113.978 8.864C113.978 9.696 113.78 10.416 113.386 11.024C112.991 11.6213 112.431 12.08 111.706 12.4C110.98 12.72 110.116 12.88 109.114 12.88H105.706L106.858 11.744V16H104.266ZM111.385 16L108.586 11.936H111.354L114.186 16H111.385ZM106.858 12.032L105.706 10.816H108.97C109.77 10.816 110.367 10.6453 110.762 10.304C111.156 9.952 111.354 9.472 111.354 8.864C111.354 8.24533 111.156 7.76533 110.762 7.424C110.367 7.08267 109.77 6.912 108.97 6.912H105.706L106.858 5.68V12.032ZM120.127 16.128C119.146 16.128 118.282 15.936 117.535 15.552C116.799 15.168 116.228 14.6453 115.823 13.984C115.418 13.312 115.215 12.5493 115.215 11.696C115.215 10.832 115.412 10.0693 115.807 9.408C116.212 8.736 116.762 8.21333 117.455 7.84C118.148 7.456 118.932 7.264 119.807 7.264C120.65 7.264 121.407 7.44533 122.079 7.808C122.762 8.16 123.3 8.672 123.695 9.344C124.09 10.0053 124.287 10.8 124.287 11.728C124.287 11.824 124.282 11.936 124.271 12.064C124.26 12.1813 124.25 12.2933 124.239 12.4H117.247V10.944H122.927L121.967 11.376C121.967 10.928 121.876 10.5387 121.695 10.208C121.514 9.87733 121.263 9.62133 120.943 9.44C120.623 9.248 120.25 9.152 119.823 9.152C119.396 9.152 119.018 9.248 118.687 9.44C118.367 9.62133 118.116 9.88267 117.935 10.224C117.754 10.5547 117.663 10.9493 117.663 11.408V11.792C117.663 12.2613 117.764 12.6773 117.967 13.04C118.18 13.392 118.474 13.664 118.847 13.856C119.231 14.0373 119.679 14.128 120.191 14.128C120.65 14.128 121.05 14.0587 121.391 13.92C121.743 13.7813 122.063 13.5733 122.351 13.296L123.679 14.736C123.284 15.184 122.788 15.5307 122.191 15.776C121.594 16.0107 120.906 16.128 120.127 16.128ZM130.109 16.128C129.181 16.128 128.354 15.9413 127.629 15.568C126.904 15.184 126.333 14.656 125.917 13.984C125.512 13.312 125.309 12.5493 125.309 11.696C125.309 10.832 125.512 10.0693 125.917 9.408C126.333 8.736 126.904 8.21333 127.629 7.84C128.354 7.456 129.181 7.264 130.109 7.264C131.016 7.264 131.805 7.456 132.477 7.84C133.149 8.21333 133.645 8.752 133.965 9.456L132.029 10.496C131.805 10.0907 131.522 9.792 131.181 9.6C130.85 9.408 130.488 9.312 130.093 9.312C129.666 9.312 129.282 9.408 128.941 9.6C128.6 9.792 128.328 10.064 128.125 10.416C127.933 10.768 127.837 11.1947 127.837 11.696C127.837 12.1973 127.933 12.624 128.125 12.976C128.328 13.328 128.6 13.6 128.941 13.792C129.282 13.984 129.666 14.08 130.093 14.08C130.488 14.08 130.85 13.9893 131.181 13.808C131.522 13.616 131.805 13.312 132.029 12.896L133.965 13.952C133.645 14.6453 133.149 15.184 132.477 15.568C131.805 15.9413 131.016 16.128 130.109 16.128ZM139.565 16.128C138.583 16.128 137.719 15.936 136.973 15.552C136.237 15.168 135.666 14.6453 135.261 13.984C134.855 13.312 134.653 12.5493 134.653 11.696C134.653 10.832 134.85 10.0693 135.245 9.408C135.65 8.736 136.199 8.21333 136.893 7.84C137.586 7.456 138.37 7.264 139.245 7.264C140.087 7.264 140.845 7.44533 141.517 7.808C142.199 8.16 142.738 8.672 143.133 9.344C143.527 10.0053 143.725 10.8 143.725 11.728C143.725 11.824 143.719 11.936 143.709 12.064C143.698 12.1813 143.687 12.2933 143.677 12.4H136.685V10.944H142.365L141.405 11.376C141.405 10.928 141.314 10.5387 141.133 10.208C140.951 9.87733 140.701 9.62133 140.381 9.44C140.061 9.248 139.687 9.152 139.261 9.152C138.834 9.152 138.455 9.248 138.125 9.44C137.805 9.62133 137.554 9.88267 137.373 10.224C137.191 10.5547 137.101 10.9493 137.101 11.408V11.792C137.101 12.2613 137.202 12.6773 137.405 13.04C137.618 13.392 137.911 13.664 138.285 13.856C138.669 14.0373 139.117 14.128 139.629 14.128C140.087 14.128 140.487 14.0587 140.829 13.92C141.181 13.7813 141.501 13.5733 141.789 13.296L143.117 14.736C142.722 15.184 142.226 15.5307 141.629 15.776C141.031 16.0107 140.343 16.128 139.565 16.128ZM145.386 16V7.392H147.882V16H145.386ZM146.634 6.192C146.176 6.192 145.802 6.05867 145.514 5.792C145.226 5.52533 145.082 5.19467 145.082 4.8C145.082 4.40533 145.226 4.07467 145.514 3.808C145.802 3.54133 146.176 3.408 146.634 3.408C147.093 3.408 147.466 3.536 147.754 3.792C148.042 4.03733 148.186 4.35733 148.186 4.752C148.186 5.168 148.042 5.51467 147.754 5.792C147.477 6.05867 147.104 6.192 146.634 6.192ZM155.287 16.128C154.562 16.128 153.927 15.968 153.383 15.648C152.839 15.328 152.412 14.8427 152.103 14.192C151.804 13.5307 151.655 12.6987 151.655 11.696C151.655 10.6827 151.799 9.85067 152.087 9.2C152.375 8.54933 152.791 8.064 153.335 7.744C153.879 7.424 154.53 7.264 155.287 7.264C156.098 7.264 156.823 7.45067 157.463 7.824C158.114 8.18667 158.626 8.69867 158.999 9.36C159.383 10.0213 159.575 10.8 159.575 11.696C159.575 12.6027 159.383 13.3867 158.999 14.048C158.626 14.7093 158.114 15.2213 157.463 15.584C156.823 15.9467 156.098 16.128 155.287 16.128ZM150.199 19.104V7.392H152.583V9.152L152.535 11.712L152.695 14.256V19.104H150.199ZM154.855 14.08C155.271 14.08 155.639 13.984 155.959 13.792C156.29 13.6 156.551 13.328 156.743 12.976C156.946 12.6133 157.047 12.1867 157.047 11.696C157.047 11.1947 156.946 10.768 156.743 10.416C156.551 10.064 156.29 9.792 155.959 9.6C155.639 9.408 155.271 9.312 154.855 9.312C154.439 9.312 154.066 9.408 153.735 9.6C153.404 9.792 153.143 10.064 152.951 10.416C152.759 10.768 152.663 11.1947 152.663 11.696C152.663 12.1867 152.759 12.6133 152.951 12.976C153.143 13.328 153.404 13.6 153.735 13.792C154.066 13.984 154.439 14.08 154.855 14.08ZM164.766 16.128C163.752 16.128 162.963 15.872 162.398 15.36C161.832 14.8373 161.55 14.064 161.55 13.04V5.488H164.046V13.008C164.046 13.3707 164.142 13.6533 164.334 13.856C164.526 14.048 164.787 14.144 165.118 14.144C165.512 14.144 165.848 14.0373 166.126 13.824L166.798 15.584C166.542 15.7653 166.232 15.904 165.87 16C165.518 16.0853 165.15 16.128 164.766 16.128ZM160.222 9.504V7.584H166.19V9.504H160.222Z" fill="#4FBA74"/>
</svg>
