<svg width="156" height="20" viewBox="0 0 156 20" fill="none" xmlns="http://www.w3.org/2000/svg">
<path d="M14.9688 10C14.9688 10.5625 14.5312 11 14 11H4.40625L7.6875 14.3125C8.09375 14.6875 8.09375 15.3438 7.6875 15.7188C7.5 15.9062 7.25 16 7 16C6.71875 16 6.46875 15.9062 6.28125 15.7188L1.28125 10.7188C0.875 10.3438 0.875 9.6875 1.28125 9.3125L6.28125 4.3125C6.65625 3.90625 7.3125 3.90625 7.6875 4.3125C8.09375 4.6875 8.09375 5.34375 7.6875 5.71875L4.40625 9H14C14.5312 9 14.9688 9.46875 14.9688 10Z" fill="#4FBA74"/>
<path d="M32.328 16V4.8H37.416C38.632 4.8 39.704 5.03467 40.632 5.504C41.56 5.96267 42.2853 6.608 42.808 7.44C43.3307 8.272 43.592 9.25867 43.592 10.4C43.592 11.5307 43.3307 12.5173 42.808 13.36C42.2853 14.192 41.56 14.8427 40.632 15.312C39.704 15.7707 38.632 16 37.416 16H32.328ZM34.92 13.872H37.288C38.0347 13.872 38.68 13.7333 39.224 13.456C39.7787 13.168 40.2053 12.7627 40.504 12.24C40.8133 11.7173 40.968 11.104 40.968 10.4C40.968 9.68533 40.8133 9.072 40.504 8.56C40.2053 8.03733 39.7787 7.63733 39.224 7.36C38.68 7.072 38.0347 6.928 37.288 6.928H34.92V13.872ZM45.5468 16V4.8H48.1388V16H45.5468ZM50.6208 16V7.392H53.0048V9.824L52.6688 9.12C52.9248 8.512 53.3354 8.05333 53.9008 7.744C54.4661 7.424 55.1541 7.264 55.9648 7.264V9.568C55.8581 9.55733 55.7621 9.552 55.6768 9.552C55.5914 9.54133 55.5008 9.536 55.4048 9.536C54.7221 9.536 54.1674 9.73333 53.7408 10.128C53.3248 10.512 53.1168 11.1147 53.1168 11.936V16H50.6208ZM61.6584 16.128C60.677 16.128 59.813 15.936 59.0664 15.552C58.3304 15.168 57.7597 14.6453 57.3544 13.984C56.949 13.312 56.7464 12.5493 56.7464 11.696C56.7464 10.832 56.9437 10.0693 57.3384 9.408C57.7437 8.736 58.293 8.21333 58.9864 7.84C59.6797 7.456 60.4637 7.264 61.3384 7.264C62.181 7.264 62.9384 7.44533 63.6104 7.808C64.293 8.16 64.8317 8.672 65.2264 9.344C65.621 10.0053 65.8184 10.8 65.8184 11.728C65.8184 11.824 65.813 11.936 65.8024 12.064C65.7917 12.1813 65.781 12.2933 65.7704 12.4H58.7784V10.944H64.4584L63.4984 11.376C63.4984 10.928 63.4077 10.5387 63.2264 10.208C63.045 9.87733 62.7944 9.62133 62.4744 9.44C62.1544 9.248 61.781 9.152 61.3544 9.152C60.9277 9.152 60.549 9.248 60.2184 9.44C59.8984 9.62133 59.6477 9.88267 59.4664 10.224C59.285 10.5547 59.1944 10.9493 59.1944 11.408V11.792C59.1944 12.2613 59.2957 12.6773 59.4984 13.04C59.7117 13.392 60.005 13.664 60.3784 13.856C60.7624 14.0373 61.2104 14.128 61.7224 14.128C62.181 14.128 62.581 14.0587 62.9224 13.92C63.2744 13.7813 63.5944 13.5733 63.8824 13.296L65.2104 14.736C64.8157 15.184 64.3197 15.5307 63.7224 15.776C63.125 16.0107 62.437 16.128 61.6584 16.128ZM71.6401 16.128C70.7121 16.128 69.8855 15.9413 69.1601 15.568C68.4348 15.184 67.8641 14.656 67.4481 13.984C67.0428 13.312 66.8401 12.5493 66.8401 11.696C66.8401 10.832 67.0428 10.0693 67.4481 9.408C67.8641 8.736 68.4348 8.21333 69.1601 7.84C69.8855 7.456 70.7121 7.264 71.6401 7.264C72.5468 7.264 73.3361 7.456 74.0081 7.84C74.6801 8.21333 75.1761 8.752 75.4961 9.456L73.5601 10.496C73.3361 10.0907 73.0535 9.792 72.7121 9.6C72.3815 9.408 72.0188 9.312 71.6241 9.312C71.1975 9.312 70.8135 9.408 70.4721 9.6C70.1308 9.792 69.8588 10.064 69.6561 10.416C69.4641 10.768 69.3681 11.1947 69.3681 11.696C69.3681 12.1973 69.4641 12.624 69.6561 12.976C69.8588 13.328 70.1308 13.6 70.4721 13.792C70.8135 13.984 71.1975 14.08 71.6241 14.08C72.0188 14.08 72.3815 13.9893 72.7121 13.808C73.0535 13.616 73.3361 13.312 73.5601 12.896L75.4961 13.952C75.1761 14.6453 74.6801 15.184 74.0081 15.568C73.3361 15.9413 72.5468 16.128 71.6401 16.128ZM80.5783 16.128C79.5649 16.128 78.7756 15.872 78.2103 15.36C77.6449 14.8373 77.3623 14.064 77.3623 13.04V5.488H79.8583V13.008C79.8583 13.3707 79.9543 13.6533 80.1463 13.856C80.3383 14.048 80.5996 14.144 80.9303 14.144C81.3249 14.144 81.6609 14.0373 81.9383 13.824L82.6103 15.584C82.3543 15.7653 82.0449 15.904 81.6823 16C81.3303 16.0853 80.9623 16.128 80.5783 16.128ZM76.0343 9.504V7.584H82.0023V9.504H76.0343ZM91.0386 16V6.912H87.4546V4.8H97.2146V6.912H93.6306V16H91.0386ZM98.2458 16V7.392H100.63V9.824L100.294 9.12C100.55 8.512 100.96 8.05333 101.526 7.744C102.091 7.424 102.779 7.264 103.59 7.264V9.568C103.483 9.55733 103.387 9.552 103.302 9.552C103.216 9.54133 103.126 9.536 103.03 9.536C102.347 9.536 101.792 9.73333 101.366 10.128C100.95 10.512 100.742 11.1147 100.742 11.936V16H98.2458ZM109.791 16V14.32L109.631 13.952V10.944C109.631 10.4107 109.466 9.99467 109.135 9.696C108.815 9.39733 108.319 9.248 107.647 9.248C107.189 9.248 106.735 9.32267 106.287 9.472C105.85 9.61067 105.477 9.80267 105.167 10.048L104.271 8.304C104.741 7.97333 105.306 7.71733 105.967 7.536C106.629 7.35467 107.301 7.264 107.983 7.264C109.295 7.264 110.314 7.57333 111.039 8.192C111.765 8.81067 112.127 9.776 112.127 11.088V16H109.791ZM107.167 16.128C106.495 16.128 105.919 16.016 105.439 15.792C104.959 15.5573 104.591 15.2427 104.335 14.848C104.079 14.4533 103.951 14.0107 103.951 13.52C103.951 13.008 104.074 12.56 104.319 12.176C104.575 11.792 104.975 11.4933 105.519 11.28C106.063 11.056 106.773 10.944 107.647 10.944H109.935V12.4H107.919C107.333 12.4 106.927 12.496 106.703 12.688C106.49 12.88 106.383 13.12 106.383 13.408C106.383 13.728 106.506 13.984 106.751 14.176C107.007 14.3573 107.354 14.448 107.791 14.448C108.207 14.448 108.581 14.352 108.911 14.16C109.242 13.9573 109.482 13.664 109.631 13.28L110.015 14.432C109.834 14.9867 109.503 15.408 109.023 15.696C108.543 15.984 107.925 16.128 107.167 16.128ZM119.618 7.264C120.301 7.264 120.909 7.40267 121.442 7.68C121.986 7.94667 122.413 8.36267 122.722 8.928C123.032 9.48267 123.186 10.1973 123.186 11.072V16H120.69V11.456C120.69 10.7627 120.536 10.2507 120.226 9.92C119.928 9.58933 119.501 9.424 118.946 9.424C118.552 9.424 118.194 9.50933 117.874 9.68C117.565 9.84 117.32 10.0907 117.138 10.432C116.968 10.7733 116.882 11.2107 116.882 11.744V16H114.386V7.392H116.77V9.776L116.322 9.056C116.632 8.48 117.074 8.03733 117.65 7.728C118.226 7.41867 118.882 7.264 119.618 7.264ZM128.345 16.128C127.609 16.128 126.9 16.0427 126.217 15.872C125.545 15.6907 125.012 15.4667 124.617 15.2L125.449 13.408C125.844 13.6533 126.308 13.856 126.841 14.016C127.385 14.1653 127.918 14.24 128.441 14.24C129.017 14.24 129.422 14.1707 129.657 14.032C129.902 13.8933 130.025 13.7013 130.025 13.456C130.025 13.2533 129.929 13.104 129.737 13.008C129.556 12.9013 129.31 12.8213 129.001 12.768C128.692 12.7147 128.35 12.6613 127.977 12.608C127.614 12.5547 127.246 12.4853 126.873 12.4C126.5 12.304 126.158 12.1653 125.849 11.984C125.54 11.8027 125.289 11.5573 125.097 11.248C124.916 10.9387 124.825 10.5387 124.825 10.048C124.825 9.504 124.98 9.024 125.289 8.608C125.609 8.192 126.068 7.86667 126.665 7.632C127.262 7.38667 127.977 7.264 128.809 7.264C129.396 7.264 129.993 7.328 130.601 7.456C131.209 7.584 131.716 7.77067 132.121 8.016L131.289 9.792C130.873 9.54667 130.452 9.38133 130.025 9.296C129.609 9.2 129.204 9.152 128.809 9.152C128.254 9.152 127.849 9.22667 127.593 9.376C127.337 9.52533 127.209 9.71733 127.209 9.952C127.209 10.1653 127.3 10.3253 127.481 10.432C127.673 10.5387 127.924 10.624 128.233 10.688C128.542 10.752 128.878 10.8107 129.241 10.864C129.614 10.9067 129.988 10.976 130.361 11.072C130.734 11.168 131.07 11.3067 131.369 11.488C131.678 11.6587 131.929 11.8987 132.121 12.208C132.313 12.5067 132.409 12.9013 132.409 13.392C132.409 13.9253 132.249 14.4 131.929 14.816C131.609 15.2213 131.145 15.5413 130.537 15.776C129.94 16.0107 129.209 16.128 128.345 16.128ZM134.253 16V7.2C134.253 6.22933 134.541 5.456 135.117 4.88C135.693 4.29333 136.514 4 137.581 4C137.944 4 138.29 4.03733 138.621 4.112C138.962 4.18667 139.25 4.304 139.485 4.464L138.829 6.272C138.69 6.176 138.536 6.10133 138.365 6.048C138.194 5.99467 138.013 5.968 137.821 5.968C137.458 5.968 137.176 6.07467 136.973 6.288C136.781 6.49067 136.685 6.8 136.685 7.216V8.016L136.749 9.088V16H134.253ZM132.925 9.504V7.584H138.893V9.504H132.925ZM144.299 16.128C143.318 16.128 142.454 15.936 141.707 15.552C140.971 15.168 140.4 14.6453 139.995 13.984C139.59 13.312 139.387 12.5493 139.387 11.696C139.387 10.832 139.584 10.0693 139.979 9.408C140.384 8.736 140.934 8.21333 141.627 7.84C142.32 7.456 143.104 7.264 143.979 7.264C144.822 7.264 145.579 7.44533 146.251 7.808C146.934 8.16 147.472 8.672 147.867 9.344C148.262 10.0053 148.459 10.8 148.459 11.728C148.459 11.824 148.454 11.936 148.443 12.064C148.432 12.1813 148.422 12.2933 148.411 12.4H141.419V10.944H147.099L146.139 11.376C146.139 10.928 146.048 10.5387 145.867 10.208C145.686 9.87733 145.435 9.62133 145.115 9.44C144.795 9.248 144.422 9.152 143.995 9.152C143.568 9.152 143.19 9.248 142.859 9.44C142.539 9.62133 142.288 9.88267 142.107 10.224C141.926 10.5547 141.835 10.9493 141.835 11.408V11.792C141.835 12.2613 141.936 12.6773 142.139 13.04C142.352 13.392 142.646 13.664 143.019 13.856C143.403 14.0373 143.851 14.128 144.363 14.128C144.822 14.128 145.222 14.0587 145.563 13.92C145.915 13.7813 146.235 13.5733 146.523 13.296L147.851 14.736C147.456 15.184 146.96 15.5307 146.363 15.776C145.766 16.0107 145.078 16.128 144.299 16.128ZM150.121 16V7.392H152.505V9.824L152.169 9.12C152.425 8.512 152.835 8.05333 153.401 7.744C153.966 7.424 154.654 7.264 155.465 7.264V9.568C155.358 9.55733 155.262 9.552 155.177 9.552C155.091 9.54133 155.001 9.536 154.905 9.536C154.222 9.536 153.667 9.73333 153.241 10.128C152.825 10.512 152.617 11.1147 152.617 11.936V16H150.121Z" fill="#4FBA74"/>
</svg>
