<svg width="163" height="20" viewBox="0 0 163 20" fill="none" xmlns="http://www.w3.org/2000/svg">
<path d="M14.9688 10C14.9688 10.5625 14.5312 11 14 11H4.40625L7.6875 14.3125C8.09375 14.6875 8.09375 15.3438 7.6875 15.7188C7.5 15.9062 7.25 16 7 16C6.71875 16 6.46875 15.9062 6.28125 15.7188L1.28125 10.7188C0.875 10.3438 0.875 9.6875 1.28125 9.3125L6.28125 4.3125C6.65625 3.90625 7.3125 3.90625 7.6875 4.3125C8.09375 4.6875 8.09375 5.34375 7.6875 5.71875L4.40625 9H14C14.5312 9 14.9688 9.46875 14.9688 10Z" fill="#4FBA74"/>
<path d="M32.328 16V4.8H37.8C39.208 4.8 40.264 5.06667 40.968 5.6C41.6827 6.13333 42.04 6.83733 42.04 7.712C42.04 8.29867 41.896 8.81067 41.608 9.248C41.32 9.67467 40.9253 10.0053 40.424 10.24C39.9227 10.4747 39.3467 10.592 38.696 10.592L39 9.936C39.704 9.936 40.328 10.0533 40.872 10.288C41.416 10.512 41.8373 10.848 42.136 11.296C42.4453 11.744 42.6 12.2933 42.6 12.944C42.6 13.904 42.2213 14.656 41.464 15.2C40.7067 15.7333 39.592 16 38.12 16H32.328ZM34.904 14.048H37.928C38.6 14.048 39.1067 13.9413 39.448 13.728C39.8 13.504 39.976 13.152 39.976 12.672C39.976 12.2027 39.8 11.856 39.448 11.632C39.1067 11.3973 38.6 11.28 37.928 11.28H34.712V9.392H37.48C38.1093 9.392 38.5893 9.28533 38.92 9.072C39.2613 8.848 39.432 8.512 39.432 8.064C39.432 7.62667 39.2613 7.30133 38.92 7.088C38.5893 6.864 38.1093 6.752 37.48 6.752H34.904V14.048ZM48.0184 16.128C47.3037 16.128 46.6637 15.9893 46.0984 15.712C45.5437 15.4347 45.1117 15.0133 44.8024 14.448C44.493 13.872 44.3384 13.1413 44.3384 12.256V7.392H46.8344V11.888C46.8344 12.6027 46.9837 13.1307 47.2824 13.472C47.5917 13.8027 48.0237 13.968 48.5784 13.968C48.9624 13.968 49.3037 13.888 49.6024 13.728C49.901 13.5573 50.1357 13.3013 50.3064 12.96C50.477 12.608 50.5624 12.1707 50.5624 11.648V7.392H53.0584V16H50.6904V13.632L51.1224 14.32C50.8344 14.9173 50.4077 15.3707 49.8424 15.68C49.2877 15.9787 48.6797 16.128 48.0184 16.128ZM59.0668 16.128C58.2561 16.128 57.5254 15.9467 56.8748 15.584C56.2241 15.2107 55.7068 14.6933 55.3228 14.032C54.9494 13.3707 54.7628 12.592 54.7628 11.696C54.7628 10.7893 54.9494 10.0053 55.3228 9.344C55.7068 8.68267 56.2241 8.17067 56.8748 7.808C57.5254 7.44533 58.2561 7.264 59.0668 7.264C59.7921 7.264 60.4268 7.424 60.9708 7.744C61.5148 8.064 61.9361 8.54933 62.2348 9.2C62.5334 9.85067 62.6828 10.6827 62.6828 11.696C62.6828 12.6987 62.5388 13.5307 62.2508 14.192C61.9628 14.8427 61.5468 15.328 61.0028 15.648C60.4694 15.968 59.8241 16.128 59.0668 16.128ZM59.4988 14.08C59.9041 14.08 60.2721 13.984 60.6028 13.792C60.9334 13.6 61.1948 13.328 61.3868 12.976C61.5894 12.6133 61.6908 12.1867 61.6908 11.696C61.6908 11.1947 61.5894 10.768 61.3868 10.416C61.1948 10.064 60.9334 9.792 60.6028 9.6C60.2721 9.408 59.9041 9.312 59.4988 9.312C59.0828 9.312 58.7094 9.408 58.3788 9.6C58.0481 9.792 57.7814 10.064 57.5788 10.416C57.3868 10.768 57.2908 11.1947 57.2908 11.696C57.2908 12.1867 57.3868 12.6133 57.5788 12.976C57.7814 13.328 58.0481 13.6 58.3788 13.792C58.7094 13.984 59.0828 14.08 59.4988 14.08ZM61.7548 16V14.24L61.8028 11.68L61.6428 9.136V4.128H64.1388V16H61.7548ZM70.4969 19.232C69.6862 19.232 68.9022 19.1307 68.1449 18.928C67.3982 18.736 66.7742 18.4427 66.2729 18.048L67.2649 16.256C67.6275 16.5547 68.0862 16.7893 68.6409 16.96C69.2062 17.1413 69.7609 17.232 70.3049 17.232C71.1902 17.232 71.8302 17.0347 72.2249 16.64C72.6302 16.2453 72.8329 15.6587 72.8329 14.88V13.584L72.9929 11.424L72.9609 9.248V7.392H75.3289V14.56C75.3289 16.16 74.9129 17.3387 74.0809 18.096C73.2489 18.8533 72.0542 19.232 70.4969 19.232ZM70.1129 15.584C69.3129 15.584 68.5875 15.4133 67.9369 15.072C67.2969 14.72 66.7795 14.2347 66.3849 13.616C66.0009 12.9867 65.8089 12.256 65.8089 11.424C65.8089 10.5813 66.0009 9.85067 66.3849 9.232C66.7795 8.60267 67.2969 8.11733 67.9369 7.776C68.5875 7.43467 69.3129 7.264 70.1129 7.264C70.8382 7.264 71.4782 7.41333 72.0329 7.712C72.5875 8 73.0195 8.45333 73.3289 9.072C73.6382 9.68 73.7929 10.464 73.7929 11.424C73.7929 12.3733 73.6382 13.1573 73.3289 13.776C73.0195 14.384 72.5875 14.8373 72.0329 15.136C71.4782 15.4347 70.8382 15.584 70.1129 15.584ZM70.6089 13.536C71.0462 13.536 71.4355 13.4507 71.7769 13.28C72.1182 13.0987 72.3849 12.848 72.5769 12.528C72.7689 12.208 72.8649 11.84 72.8649 11.424C72.8649 10.9973 72.7689 10.6293 72.5769 10.32C72.3849 10 72.1182 9.75467 71.7769 9.584C71.4355 9.40267 71.0462 9.312 70.6089 9.312C70.1715 9.312 69.7822 9.40267 69.4409 9.584C69.0995 9.75467 68.8275 10 68.6249 10.32C68.4329 10.6293 68.3369 10.9973 68.3369 11.424C68.3369 11.84 68.4329 12.208 68.6249 12.528C68.8275 12.848 69.0995 13.0987 69.4409 13.28C69.7822 13.4507 70.1715 13.536 70.6089 13.536ZM81.924 16.128C80.9427 16.128 80.0787 15.936 79.332 15.552C78.596 15.168 78.0253 14.6453 77.62 13.984C77.2147 13.312 77.012 12.5493 77.012 11.696C77.012 10.832 77.2093 10.0693 77.604 9.408C78.0093 8.736 78.5587 8.21333 79.252 7.84C79.9453 7.456 80.7293 7.264 81.604 7.264C82.4467 7.264 83.204 7.44533 83.876 7.808C84.5587 8.16 85.0973 8.672 85.492 9.344C85.8867 10.0053 86.084 10.8 86.084 11.728C86.084 11.824 86.0787 11.936 86.068 12.064C86.0573 12.1813 86.0467 12.2933 86.036 12.4H79.044V10.944H84.724L83.764 11.376C83.764 10.928 83.6733 10.5387 83.492 10.208C83.3107 9.87733 83.06 9.62133 82.74 9.44C82.42 9.248 82.0467 9.152 81.62 9.152C81.1933 9.152 80.8147 9.248 80.484 9.44C80.164 9.62133 79.9133 9.88267 79.732 10.224C79.5507 10.5547 79.46 10.9493 79.46 11.408V11.792C79.46 12.2613 79.5613 12.6773 79.764 13.04C79.9773 13.392 80.2707 13.664 80.644 13.856C81.028 14.0373 81.476 14.128 81.988 14.128C82.4467 14.128 82.8467 14.0587 83.188 13.92C83.54 13.7813 83.86 13.5733 84.148 13.296L85.476 14.736C85.0813 15.184 84.5853 15.5307 83.988 15.776C83.3907 16.0107 82.7027 16.128 81.924 16.128ZM91.2658 16.128C90.2524 16.128 89.4631 15.872 88.8978 15.36C88.3324 14.8373 88.0498 14.064 88.0498 13.04V5.488H90.5458V13.008C90.5458 13.3707 90.6418 13.6533 90.8338 13.856C91.0258 14.048 91.2871 14.144 91.6178 14.144C92.0124 14.144 92.3484 14.0373 92.6258 13.824L93.2978 15.584C93.0418 15.7653 92.7324 15.904 92.3698 16C92.0178 16.0853 91.6498 16.128 91.2658 16.128ZM86.7218 9.504V7.584H92.6898V9.504H86.7218ZM104.318 16.128C103.593 16.128 102.958 15.968 102.414 15.648C101.87 15.328 101.443 14.8427 101.134 14.192C100.835 13.5307 100.686 12.6987 100.686 11.696C100.686 10.6827 100.83 9.85067 101.118 9.2C101.406 8.54933 101.822 8.064 102.366 7.744C102.91 7.424 103.561 7.264 104.318 7.264C105.129 7.264 105.854 7.45067 106.494 7.824C107.145 8.18667 107.657 8.69867 108.03 9.36C108.414 10.0213 108.606 10.8 108.606 11.696C108.606 12.6027 108.414 13.3867 108.03 14.048C107.657 14.7093 107.145 15.2213 106.494 15.584C105.854 15.9467 105.129 16.128 104.318 16.128ZM99.2301 19.104V7.392H101.614V9.152L101.566 11.712L101.726 14.256V19.104H99.2301ZM103.886 14.08C104.302 14.08 104.67 13.984 104.99 13.792C105.321 13.6 105.582 13.328 105.774 12.976C105.977 12.6133 106.078 12.1867 106.078 11.696C106.078 11.1947 105.977 10.768 105.774 10.416C105.582 10.064 105.321 9.792 104.99 9.6C104.67 9.408 104.302 9.312 103.886 9.312C103.47 9.312 103.097 9.408 102.766 9.6C102.435 9.792 102.174 10.064 101.982 10.416C101.79 10.768 101.694 11.1947 101.694 11.696C101.694 12.1867 101.79 12.6133 101.982 12.976C102.174 13.328 102.435 13.6 102.766 13.792C103.097 13.984 103.47 14.08 103.886 14.08ZM110.277 16V4.128H112.773V16H110.277ZM120.37 16V14.32L120.21 13.952V10.944C120.21 10.4107 120.044 9.99467 119.714 9.696C119.394 9.39733 118.898 9.248 118.226 9.248C117.767 9.248 117.314 9.32267 116.866 9.472C116.428 9.61067 116.055 9.80267 115.746 10.048L114.85 8.304C115.319 7.97333 115.884 7.71733 116.546 7.536C117.207 7.35467 117.879 7.264 118.562 7.264C119.874 7.264 120.892 7.57333 121.618 8.192C122.343 8.81067 122.706 9.776 122.706 11.088V16H120.37ZM117.746 16.128C117.074 16.128 116.498 16.016 116.018 15.792C115.538 15.5573 115.17 15.2427 114.914 14.848C114.658 14.4533 114.53 14.0107 114.53 13.52C114.53 13.008 114.652 12.56 114.898 12.176C115.154 11.792 115.554 11.4933 116.098 11.28C116.642 11.056 117.351 10.944 118.226 10.944H120.514V12.4H118.498C117.911 12.4 117.506 12.496 117.282 12.688C117.068 12.88 116.962 13.12 116.962 13.408C116.962 13.728 117.084 13.984 117.33 14.176C117.586 14.3573 117.932 14.448 118.37 14.448C118.786 14.448 119.159 14.352 119.49 14.16C119.82 13.9573 120.06 13.664 120.21 13.28L120.594 14.432C120.412 14.9867 120.082 15.408 119.602 15.696C119.122 15.984 118.503 16.128 117.746 16.128ZM130.197 7.264C130.879 7.264 131.487 7.40267 132.021 7.68C132.565 7.94667 132.991 8.36267 133.301 8.928C133.61 9.48267 133.765 10.1973 133.765 11.072V16H131.269V11.456C131.269 10.7627 131.114 10.2507 130.805 9.92C130.506 9.58933 130.079 9.424 129.525 9.424C129.13 9.424 128.773 9.50933 128.453 9.68C128.143 9.84 127.898 10.0907 127.717 10.432C127.546 10.7733 127.461 11.2107 127.461 11.744V16H124.965V7.392H127.349V9.776L126.901 9.056C127.21 8.48 127.653 8.03733 128.229 7.728C128.805 7.41867 129.461 7.264 130.197 7.264ZM141.259 7.264C141.942 7.264 142.55 7.40267 143.083 7.68C143.627 7.94667 144.054 8.36267 144.363 8.928C144.672 9.48267 144.827 10.1973 144.827 11.072V16H142.331V11.456C142.331 10.7627 142.176 10.2507 141.867 9.92C141.568 9.58933 141.142 9.424 140.587 9.424C140.192 9.424 139.835 9.50933 139.515 9.68C139.206 9.84 138.96 10.0907 138.779 10.432C138.608 10.7733 138.523 11.2107 138.523 11.744V16H136.027V7.392H138.411V9.776L137.963 9.056C138.272 8.48 138.715 8.03733 139.291 7.728C139.867 7.41867 140.523 7.264 141.259 7.264ZM151.424 16.128C150.443 16.128 149.579 15.936 148.832 15.552C148.096 15.168 147.525 14.6453 147.12 13.984C146.715 13.312 146.512 12.5493 146.512 11.696C146.512 10.832 146.709 10.0693 147.104 9.408C147.509 8.736 148.059 8.21333 148.752 7.84C149.445 7.456 150.229 7.264 151.104 7.264C151.947 7.264 152.704 7.44533 153.376 7.808C154.059 8.16 154.597 8.672 154.992 9.344C155.387 10.0053 155.584 10.8 155.584 11.728C155.584 11.824 155.579 11.936 155.568 12.064C155.557 12.1813 155.547 12.2933 155.536 12.4H148.544V10.944H154.224L153.264 11.376C153.264 10.928 153.173 10.5387 152.992 10.208C152.811 9.87733 152.56 9.62133 152.24 9.44C151.92 9.248 151.547 9.152 151.12 9.152C150.693 9.152 150.315 9.248 149.984 9.44C149.664 9.62133 149.413 9.88267 149.232 10.224C149.051 10.5547 148.96 10.9493 148.96 11.408V11.792C148.96 12.2613 149.061 12.6773 149.264 13.04C149.477 13.392 149.771 13.664 150.144 13.856C150.528 14.0373 150.976 14.128 151.488 14.128C151.947 14.128 152.347 14.0587 152.688 13.92C153.04 13.7813 153.36 13.5733 153.648 13.296L154.976 14.736C154.581 15.184 154.085 15.5307 153.488 15.776C152.891 16.0107 152.203 16.128 151.424 16.128ZM157.246 16V7.392H159.63V9.824L159.294 9.12C159.55 8.512 159.96 8.05333 160.526 7.744C161.091 7.424 161.779 7.264 162.59 7.264V9.568C162.483 9.55733 162.387 9.552 162.302 9.552C162.216 9.54133 162.126 9.536 162.03 9.536C161.347 9.536 160.792 9.73333 160.366 10.128C159.95 10.512 159.742 11.1147 159.742 11.936V16H157.246Z" fill="#4FBA74"/>
</svg>
