<svg width="150" height="20" viewBox="0 0 150 20" fill="none" xmlns="http://www.w3.org/2000/svg">
<path d="M14.9688 10C14.9688 10.5625 14.5312 11 14 11H4.40625L7.6875 14.3125C8.09375 14.6875 8.09375 15.3438 7.6875 15.7188C7.5 15.9062 7.25 16 7 16C6.71875 16 6.46875 15.9062 6.28125 15.7188L1.28125 10.7188C0.875 10.3438 0.875 9.6875 1.28125 9.3125L6.28125 4.3125C6.65625 3.90625 7.3125 3.90625 7.6875 4.3125C8.09375 4.6875 8.09375 5.34375 7.6875 5.71875L4.40625 9H14C14.5312 9 14.9688 9.46875 14.9688 10Z" fill="#4FBA74"/>
<path d="M36.008 16.192C35.112 16.192 34.2533 16.0747 33.432 15.84C32.6107 15.5947 31.9493 15.28 31.448 14.896L32.328 12.944C32.808 13.2853 33.3733 13.568 34.024 13.792C34.6853 14.0053 35.352 14.112 36.024 14.112C36.536 14.112 36.9467 14.064 37.256 13.968C37.576 13.8613 37.8107 13.7173 37.96 13.536C38.1093 13.3547 38.184 13.1467 38.184 12.912C38.184 12.6133 38.0667 12.3787 37.832 12.208C37.5973 12.0267 37.288 11.8827 36.904 11.776C36.52 11.6587 36.0933 11.552 35.624 11.456C35.1653 11.3493 34.7013 11.2213 34.232 11.072C33.7733 10.9227 33.352 10.7307 32.968 10.496C32.584 10.2613 32.2693 9.952 32.024 9.568C31.7893 9.184 31.672 8.69333 31.672 8.096C31.672 7.456 31.8427 6.87467 32.184 6.352C32.536 5.81867 33.0587 5.39733 33.752 5.088C34.456 4.768 35.336 4.608 36.392 4.608C37.096 4.608 37.7893 4.69333 38.472 4.864C39.1547 5.024 39.7573 5.26933 40.28 5.6L39.48 7.568C38.9573 7.26933 38.4347 7.05067 37.912 6.912C37.3893 6.76267 36.8773 6.688 36.376 6.688C35.8747 6.688 35.464 6.74667 35.144 6.864C34.824 6.98133 34.5947 7.136 34.456 7.328C34.3173 7.50933 34.248 7.72267 34.248 7.968C34.248 8.256 34.3653 8.49067 34.6 8.672C34.8347 8.84267 35.144 8.98133 35.528 9.088C35.912 9.19467 36.3333 9.30133 36.792 9.408C37.2613 9.51467 37.7253 9.63733 38.184 9.776C38.6533 9.91467 39.08 10.1013 39.464 10.336C39.848 10.5707 40.1573 10.88 40.392 11.264C40.6373 11.648 40.76 12.1333 40.76 12.72C40.76 13.3493 40.584 13.9253 40.232 14.448C39.88 14.9707 39.352 15.392 38.648 15.712C37.9547 16.032 37.0747 16.192 36.008 16.192ZM46.5151 16.128C45.5871 16.128 44.7605 15.9413 44.0351 15.568C43.3098 15.184 42.7391 14.656 42.3231 13.984C41.9178 13.312 41.7151 12.5493 41.7151 11.696C41.7151 10.832 41.9178 10.0693 42.3231 9.408C42.7391 8.736 43.3098 8.21333 44.0351 7.84C44.7605 7.456 45.5871 7.264 46.5151 7.264C47.4218 7.264 48.2111 7.456 48.8831 7.84C49.5551 8.21333 50.0511 8.752 50.3711 9.456L48.4351 10.496C48.2111 10.0907 47.9285 9.792 47.5871 9.6C47.2565 9.408 46.8938 9.312 46.4991 9.312C46.0725 9.312 45.6885 9.408 45.3471 9.6C45.0058 9.792 44.7338 10.064 44.5311 10.416C44.3391 10.768 44.2431 11.1947 44.2431 11.696C44.2431 12.1973 44.3391 12.624 44.5311 12.976C44.7338 13.328 45.0058 13.6 45.3471 13.792C45.6885 13.984 46.0725 14.08 46.4991 14.08C46.8938 14.08 47.2565 13.9893 47.5871 13.808C47.9285 13.616 48.2111 13.312 48.4351 12.896L50.3711 13.952C50.0511 14.6453 49.5551 15.184 48.8831 15.568C48.2111 15.9413 47.4218 16.128 46.5151 16.128ZM57.0883 16V14.32L56.9283 13.952V10.944C56.9283 10.4107 56.7629 9.99467 56.4323 9.696C56.1123 9.39733 55.6163 9.248 54.9443 9.248C54.4856 9.248 54.0323 9.32267 53.5843 9.472C53.1469 9.61067 52.7736 9.80267 52.4643 10.048L51.5683 8.304C52.0376 7.97333 52.6029 7.71733 53.2643 7.536C53.9256 7.35467 54.5976 7.264 55.2803 7.264C56.5923 7.264 57.6109 7.57333 58.3363 8.192C59.0616 8.81067 59.4243 9.776 59.4243 11.088V16H57.0883ZM54.4643 16.128C53.7923 16.128 53.2163 16.016 52.7363 15.792C52.2563 15.5573 51.8883 15.2427 51.6323 14.848C51.3763 14.4533 51.2483 14.0107 51.2483 13.52C51.2483 13.008 51.3709 12.56 51.6163 12.176C51.8723 11.792 52.2723 11.4933 52.8163 11.28C53.3603 11.056 54.0696 10.944 54.9443 10.944H57.2323V12.4H55.2163C54.6296 12.4 54.2243 12.496 54.0003 12.688C53.7869 12.88 53.6803 13.12 53.6803 13.408C53.6803 13.728 53.8029 13.984 54.0483 14.176C54.3043 14.3573 54.6509 14.448 55.0883 14.448C55.5043 14.448 55.8776 14.352 56.2083 14.16C56.5389 13.9573 56.7789 13.664 56.9283 13.28L57.3123 14.432C57.1309 14.9867 56.8003 15.408 56.3203 15.696C55.8403 15.984 55.2216 16.128 54.4643 16.128ZM66.9153 7.264C67.5979 7.264 68.2059 7.40267 68.7393 7.68C69.2833 7.94667 69.7099 8.36267 70.0193 8.928C70.3286 9.48267 70.4833 10.1973 70.4833 11.072V16H67.9873V11.456C67.9873 10.7627 67.8326 10.2507 67.5233 9.92C67.2246 9.58933 66.7979 9.424 66.2433 9.424C65.8486 9.424 65.4913 9.50933 65.1713 9.68C64.8619 9.84 64.6166 10.0907 64.4353 10.432C64.2646 10.7733 64.1793 11.2107 64.1793 11.744V16H61.6833V7.392H64.0673V9.776L63.6193 9.056C63.9286 8.48 64.3713 8.03733 64.9473 7.728C65.5233 7.41867 66.1793 7.264 66.9153 7.264ZM82.877 16.192C82.0023 16.192 81.1863 16.048 80.429 15.76C79.6823 15.472 79.0317 15.0667 78.477 14.544C77.933 14.0213 77.5063 13.408 77.197 12.704C76.8983 12 76.749 11.232 76.749 10.4C76.749 9.568 76.8983 8.8 77.197 8.096C77.5063 7.392 77.9383 6.77867 78.493 6.256C79.0477 5.73333 79.6983 5.328 80.445 5.04C81.1917 4.752 82.0023 4.608 82.877 4.608C83.7623 4.608 84.573 4.752 85.309 5.04C86.0557 5.328 86.701 5.73333 87.245 6.256C87.7997 6.768 88.2317 7.376 88.541 8.08C88.8503 8.784 89.005 9.55733 89.005 10.4C89.005 11.232 88.8503 12.0053 88.541 12.72C88.2317 13.424 87.7997 14.0373 87.245 14.56C86.701 15.072 86.0557 15.472 85.309 15.76C84.573 16.048 83.7623 16.192 82.877 16.192ZM86.541 18.576C86.1037 18.576 85.6877 18.528 85.293 18.432C84.909 18.336 84.525 18.1813 84.141 17.968C83.7677 17.7547 83.373 17.4667 82.957 17.104C82.5517 16.7413 82.109 16.2933 81.629 15.76L84.349 15.072C84.637 15.4667 84.9037 15.7813 85.149 16.016C85.3943 16.2507 85.629 16.416 85.853 16.512C86.0877 16.608 86.333 16.656 86.589 16.656C87.2717 16.656 87.8797 16.3787 88.413 15.824L89.565 17.2C88.8077 18.1173 87.7997 18.576 86.541 18.576ZM82.877 13.984C83.3783 13.984 83.837 13.8987 84.253 13.728C84.6797 13.5573 85.053 13.312 85.373 12.992C85.693 12.672 85.9383 12.2933 86.109 11.856C86.2903 11.408 86.381 10.9227 86.381 10.4C86.381 9.86667 86.2903 9.38133 86.109 8.944C85.9383 8.50667 85.693 8.128 85.373 7.808C85.053 7.488 84.6797 7.24267 84.253 7.072C83.837 6.90133 83.3783 6.816 82.877 6.816C82.3757 6.816 81.9117 6.90133 81.485 7.072C81.0583 7.24267 80.685 7.488 80.365 7.808C80.0557 8.128 79.8103 8.50667 79.629 8.944C79.4583 9.38133 79.373 9.86667 79.373 10.4C79.373 10.9227 79.4583 11.408 79.629 11.856C79.8103 12.2933 80.0557 12.672 80.365 12.992C80.685 13.312 81.0583 13.5573 81.485 13.728C81.9117 13.8987 82.3757 13.984 82.877 13.984ZM90.953 16V4.8H95.801C96.8037 4.8 97.6677 4.96533 98.393 5.296C99.1183 5.616 99.6783 6.08 100.073 6.688C100.468 7.296 100.665 8.02133 100.665 8.864C100.665 9.696 100.468 10.416 100.073 11.024C99.6783 11.6213 99.1183 12.08 98.393 12.4C97.6677 12.72 96.8037 12.88 95.801 12.88H92.393L93.545 11.744V16H90.953ZM98.073 16L95.273 11.936H98.041L100.873 16H98.073ZM93.545 12.032L92.393 10.816H95.657C96.457 10.816 97.0543 10.6453 97.449 10.304C97.8437 9.952 98.041 9.472 98.041 8.864C98.041 8.24533 97.8437 7.76533 97.449 7.424C97.0543 7.08267 96.457 6.912 95.657 6.912H92.393L93.545 5.68V12.032ZM112.61 16.192C111.746 16.192 110.941 16.0533 110.194 15.776C109.458 15.488 108.818 15.0827 108.274 14.56C107.73 14.0373 107.303 13.424 106.994 12.72C106.695 12.016 106.546 11.2427 106.546 10.4C106.546 9.55733 106.695 8.784 106.994 8.08C107.303 7.376 107.73 6.76267 108.274 6.24C108.829 5.71733 109.474 5.31733 110.21 5.04C110.946 4.752 111.751 4.608 112.626 4.608C113.597 4.608 114.471 4.77867 115.25 5.12C116.039 5.45067 116.701 5.94133 117.234 6.592L115.57 8.128C115.186 7.69067 114.759 7.36533 114.29 7.152C113.821 6.928 113.309 6.816 112.754 6.816C112.231 6.816 111.751 6.90133 111.314 7.072C110.877 7.24267 110.498 7.488 110.178 7.808C109.858 8.128 109.607 8.50667 109.426 8.944C109.255 9.38133 109.17 9.86667 109.17 10.4C109.17 10.9333 109.255 11.4187 109.426 11.856C109.607 12.2933 109.858 12.672 110.178 12.992C110.498 13.312 110.877 13.5573 111.314 13.728C111.751 13.8987 112.231 13.984 112.754 13.984C113.309 13.984 113.821 13.8773 114.29 13.664C114.759 13.44 115.186 13.104 115.57 12.656L117.234 14.192C116.701 14.8427 116.039 15.3387 115.25 15.68C114.471 16.0213 113.591 16.192 112.61 16.192ZM122.607 16.128C121.69 16.128 120.874 15.936 120.159 15.552C119.455 15.168 118.895 14.6453 118.479 13.984C118.074 13.312 117.871 12.5493 117.871 11.696C117.871 10.832 118.074 10.0693 118.479 9.408C118.895 8.736 119.455 8.21333 120.159 7.84C120.874 7.456 121.69 7.264 122.607 7.264C123.514 7.264 124.325 7.456 125.039 7.84C125.754 8.21333 126.314 8.73067 126.719 9.392C127.125 10.0533 127.327 10.8213 127.327 11.696C127.327 12.5493 127.125 13.312 126.719 13.984C126.314 14.6453 125.754 15.168 125.039 15.552C124.325 15.936 123.514 16.128 122.607 16.128ZM122.607 14.08C123.023 14.08 123.397 13.984 123.727 13.792C124.058 13.6 124.319 13.328 124.511 12.976C124.703 12.6133 124.799 12.1867 124.799 11.696C124.799 11.1947 124.703 10.768 124.511 10.416C124.319 10.064 124.058 9.792 123.727 9.6C123.397 9.408 123.023 9.312 122.607 9.312C122.191 9.312 121.818 9.408 121.487 9.6C121.157 9.792 120.89 10.064 120.687 10.416C120.495 10.768 120.399 11.1947 120.399 11.696C120.399 12.1867 120.495 12.6133 120.687 12.976C120.89 13.328 121.157 13.6 121.487 13.792C121.818 13.984 122.191 14.08 122.607 14.08ZM132.692 16.128C131.881 16.128 131.15 15.9467 130.5 15.584C129.849 15.2107 129.332 14.6933 128.948 14.032C128.574 13.3707 128.388 12.592 128.388 11.696C128.388 10.7893 128.574 10.0053 128.948 9.344C129.332 8.68267 129.849 8.17067 130.5 7.808C131.15 7.44533 131.881 7.264 132.692 7.264C133.417 7.264 134.052 7.424 134.596 7.744C135.14 8.064 135.561 8.54933 135.86 9.2C136.158 9.85067 136.308 10.6827 136.308 11.696C136.308 12.6987 136.164 13.5307 135.876 14.192C135.588 14.8427 135.172 15.328 134.628 15.648C134.094 15.968 133.449 16.128 132.692 16.128ZM133.124 14.08C133.529 14.08 133.897 13.984 134.228 13.792C134.558 13.6 134.82 13.328 135.012 12.976C135.214 12.6133 135.316 12.1867 135.316 11.696C135.316 11.1947 135.214 10.768 135.012 10.416C134.82 10.064 134.558 9.792 134.228 9.6C133.897 9.408 133.529 9.312 133.124 9.312C132.708 9.312 132.334 9.408 132.004 9.6C131.673 9.792 131.406 10.064 131.204 10.416C131.012 10.768 130.916 11.1947 130.916 11.696C130.916 12.1867 131.012 12.6133 131.204 12.976C131.406 13.328 131.673 13.6 132.004 13.792C132.334 13.984 132.708 14.08 133.124 14.08ZM135.38 16V14.24L135.428 11.68L135.268 9.136V4.128H137.764V16H135.38ZM144.346 16.128C143.365 16.128 142.501 15.936 141.754 15.552C141.018 15.168 140.447 14.6453 140.042 13.984C139.637 13.312 139.434 12.5493 139.434 11.696C139.434 10.832 139.631 10.0693 140.026 9.408C140.431 8.736 140.981 8.21333 141.674 7.84C142.367 7.456 143.151 7.264 144.026 7.264C144.869 7.264 145.626 7.44533 146.298 7.808C146.981 8.16 147.519 8.672 147.914 9.344C148.309 10.0053 148.506 10.8 148.506 11.728C148.506 11.824 148.501 11.936 148.49 12.064C148.479 12.1813 148.469 12.2933 148.458 12.4H141.466V10.944H147.146L146.186 11.376C146.186 10.928 146.095 10.5387 145.914 10.208C145.733 9.87733 145.482 9.62133 145.162 9.44C144.842 9.248 144.469 9.152 144.042 9.152C143.615 9.152 143.237 9.248 142.906 9.44C142.586 9.62133 142.335 9.88267 142.154 10.224C141.973 10.5547 141.882 10.9493 141.882 11.408V11.792C141.882 12.2613 141.983 12.6773 142.186 13.04C142.399 13.392 142.693 13.664 143.066 13.856C143.45 14.0373 143.898 14.128 144.41 14.128C144.869 14.128 145.269 14.0587 145.61 13.92C145.962 13.7813 146.282 13.5733 146.57 13.296L147.898 14.736C147.503 15.184 147.007 15.5307 146.41 15.776C145.813 16.0107 145.125 16.128 144.346 16.128Z" fill="#4FBA74"/>
</svg>
