<svg width="100" height="20" viewBox="0 0 100 20" fill="none" xmlns="http://www.w3.org/2000/svg">
<path d="M14.9688 10C14.9688 10.5625 14.5312 11 14 11H4.40625L7.6875 14.3125C8.09375 14.6875 8.09375 15.3438 7.6875 15.7188C7.5 15.9062 7.25 16 7 16C6.71875 16 6.46875 15.9062 6.28125 15.7188L1.28125 10.7188C0.875 10.3438 0.875 9.6875 1.28125 9.3125L6.28125 4.3125C6.65625 3.90625 7.3125 3.90625 7.6875 4.3125C8.09375 4.6875 8.09375 5.34375 7.6875 5.71875L4.40625 9H14C14.5312 9 14.9688 9.46875 14.9688 10Z" fill="#4FBA74"/>
<path d="M34.648 16V6.912H31.064V4.8H40.824V6.912H37.24V16H34.648ZM41.8551 16V7.392H44.2391V9.824L43.9031 9.12C44.1591 8.512 44.5698 8.05333 45.1351 7.744C45.7005 7.424 46.3885 7.264 47.1991 7.264V9.568C47.0925 9.55733 46.9965 9.552 46.9111 9.552C46.8258 9.54133 46.7351 9.536 46.6391 9.536C45.9565 9.536 45.4018 9.73333 44.9751 10.128C44.5591 10.512 44.3511 11.1147 44.3511 11.936V16H41.8551ZM53.4008 16V14.32L53.2408 13.952V10.944C53.2408 10.4107 53.0754 9.99467 52.7448 9.696C52.4248 9.39733 51.9288 9.248 51.2568 9.248C50.7981 9.248 50.3448 9.32267 49.8968 9.472C49.4594 9.61067 49.0861 9.80267 48.7768 10.048L47.8808 8.304C48.3501 7.97333 48.9154 7.71733 49.5768 7.536C50.2381 7.35467 50.9101 7.264 51.5928 7.264C52.9048 7.264 53.9234 7.57333 54.6488 8.192C55.3741 8.81067 55.7368 9.776 55.7368 11.088V16H53.4008ZM50.7768 16.128C50.1048 16.128 49.5288 16.016 49.0488 15.792C48.5688 15.5573 48.2008 15.2427 47.9448 14.848C47.6888 14.4533 47.5608 14.0107 47.5608 13.52C47.5608 13.008 47.6834 12.56 47.9288 12.176C48.1848 11.792 48.5848 11.4933 49.1288 11.28C49.6728 11.056 50.3821 10.944 51.2568 10.944H53.5448V12.4H51.5288C50.9421 12.4 50.5368 12.496 50.3128 12.688C50.0994 12.88 49.9928 13.12 49.9928 13.408C49.9928 13.728 50.1154 13.984 50.3608 14.176C50.6168 14.3573 50.9634 14.448 51.4008 14.448C51.8168 14.448 52.1901 14.352 52.5208 14.16C52.8514 13.9573 53.0914 13.664 53.2408 13.28L53.6248 14.432C53.4434 14.9867 53.1128 15.408 52.6328 15.696C52.1528 15.984 51.5341 16.128 50.7768 16.128ZM63.2278 7.264C63.9104 7.264 64.5184 7.40267 65.0518 7.68C65.5958 7.94667 66.0224 8.36267 66.3318 8.928C66.6411 9.48267 66.7958 10.1973 66.7958 11.072V16H64.2998V11.456C64.2998 10.7627 64.1451 10.2507 63.8358 9.92C63.5371 9.58933 63.1104 9.424 62.5558 9.424C62.1611 9.424 61.8038 9.50933 61.4838 9.68C61.1744 9.84 60.9291 10.0907 60.7478 10.432C60.5771 10.7733 60.4918 11.2107 60.4918 11.744V16H57.9958V7.392H60.3798V9.776L59.9318 9.056C60.2411 8.48 60.6838 8.03733 61.2598 7.728C61.8358 7.41867 62.4918 7.264 63.2278 7.264ZM71.9543 16.128C71.2183 16.128 70.5089 16.0427 69.8263 15.872C69.1543 15.6907 68.6209 15.4667 68.2263 15.2L69.0583 13.408C69.4529 13.6533 69.9169 13.856 70.4503 14.016C70.9943 14.1653 71.5276 14.24 72.0503 14.24C72.6263 14.24 73.0316 14.1707 73.2663 14.032C73.5116 13.8933 73.6343 13.7013 73.6343 13.456C73.6343 13.2533 73.5383 13.104 73.3463 13.008C73.1649 12.9013 72.9196 12.8213 72.6102 12.768C72.3009 12.7147 71.9596 12.6613 71.5863 12.608C71.2236 12.5547 70.8556 12.4853 70.4823 12.4C70.1089 12.304 69.7676 12.1653 69.4583 11.984C69.1489 11.8027 68.8983 11.5573 68.7063 11.248C68.5249 10.9387 68.4342 10.5387 68.4342 10.048C68.4342 9.504 68.5889 9.024 68.8983 8.608C69.2183 8.192 69.6769 7.86667 70.2743 7.632C70.8716 7.38667 71.5863 7.264 72.4183 7.264C73.0049 7.264 73.6023 7.328 74.2103 7.456C74.8183 7.584 75.3249 7.77067 75.7303 8.016L74.8983 9.792C74.4823 9.54667 74.0609 9.38133 73.6343 9.296C73.2183 9.2 72.8129 9.152 72.4183 9.152C71.8636 9.152 71.4583 9.22667 71.2023 9.376C70.9463 9.52533 70.8183 9.71733 70.8183 9.952C70.8183 10.1653 70.9089 10.3253 71.0903 10.432C71.2823 10.5387 71.5329 10.624 71.8423 10.688C72.1516 10.752 72.4876 10.8107 72.8503 10.864C73.2236 10.9067 73.5969 10.976 73.9703 11.072C74.3436 11.168 74.6796 11.3067 74.9783 11.488C75.2876 11.6587 75.5383 11.8987 75.7303 12.208C75.9223 12.5067 76.0183 12.9013 76.0183 13.392C76.0183 13.9253 75.8583 14.4 75.5383 14.816C75.2183 15.2213 74.7543 15.5413 74.1463 15.776C73.5489 16.0107 72.8183 16.128 71.9543 16.128ZM77.8623 16V7.2C77.8623 6.22933 78.1503 5.456 78.7263 4.88C79.3023 4.29333 80.1236 4 81.1903 4C81.5529 4 81.8996 4.03733 82.2303 4.112C82.5716 4.18667 82.8596 4.304 83.0943 4.464L82.4383 6.272C82.2996 6.176 82.1449 6.10133 81.9743 6.048C81.8036 5.99467 81.6223 5.968 81.4303 5.968C81.0676 5.968 80.7849 6.07467 80.5823 6.288C80.3903 6.49067 80.2943 6.8 80.2943 7.216V8.016L80.3583 9.088V16H77.8623ZM76.5343 9.504V7.584H82.5023V9.504H76.5343ZM87.9084 16.128C86.927 16.128 86.063 15.936 85.3164 15.552C84.5804 15.168 84.0097 14.6453 83.6044 13.984C83.199 13.312 82.9964 12.5493 82.9964 11.696C82.9964 10.832 83.1937 10.0693 83.5884 9.408C83.9937 8.736 84.543 8.21333 85.2364 7.84C85.9297 7.456 86.7137 7.264 87.5884 7.264C88.431 7.264 89.1884 7.44533 89.8604 7.808C90.543 8.16 91.0817 8.672 91.4764 9.344C91.871 10.0053 92.0684 10.8 92.0684 11.728C92.0684 11.824 92.063 11.936 92.0524 12.064C92.0417 12.1813 92.031 12.2933 92.0204 12.4H85.0284V10.944H90.7084L89.7484 11.376C89.7484 10.928 89.6577 10.5387 89.4764 10.208C89.295 9.87733 89.0444 9.62133 88.7244 9.44C88.4044 9.248 88.031 9.152 87.6044 9.152C87.1777 9.152 86.799 9.248 86.4684 9.44C86.1484 9.62133 85.8977 9.88267 85.7164 10.224C85.535 10.5547 85.4444 10.9493 85.4444 11.408V11.792C85.4444 12.2613 85.5457 12.6773 85.7484 13.04C85.9617 13.392 86.255 13.664 86.6284 13.856C87.0124 14.0373 87.4604 14.128 87.9724 14.128C88.431 14.128 88.831 14.0587 89.1724 13.92C89.5244 13.7813 89.8444 13.5733 90.1324 13.296L91.4604 14.736C91.0657 15.184 90.5697 15.5307 89.9724 15.776C89.375 16.0107 88.687 16.128 87.9084 16.128ZM93.7301 16V7.392H96.1141V9.824L95.7781 9.12C96.0341 8.512 96.4448 8.05333 97.0101 7.744C97.5755 7.424 98.2635 7.264 99.0741 7.264V9.568C98.9675 9.55733 98.8715 9.552 98.7861 9.552C98.7008 9.54133 98.6101 9.536 98.5141 9.536C97.8315 9.536 97.2768 9.73333 96.8501 10.128C96.4341 10.512 96.2261 11.1147 96.2261 11.936V16H93.7301Z" fill="#4FBA74"/>
</svg>
