<svg width="42" height="42" viewBox="0 0 42 42" fill="none" xmlns="http://www.w3.org/2000/svg">
<circle cx="21" cy="21" r="20.5" stroke="#A1A5AD"/>
<path d="M24.5 13.5H18.5L16.25 10.1719C15.9219 9.70312 16.2969 9 16.8594 9H26.0938C26.6562 9 27.0312 9.70312 26.7031 10.1719L24.5 13.5ZM18.5 15H24.5C24.6406 15.1406 24.875 15.2812 25.1094 15.4219C27.7344 17.1094 33.5 20.7656 33.5 28.5C33.5 30.9844 31.4844 33 29 33H14C11.5156 33 9.5 30.9844 9.5 28.5C9.5 20.7656 15.2188 17.1094 17.8906 15.4219C18.0781 15.2812 18.3125 15.1406 18.5 15ZM22.4375 19.125C22.4375 18.6094 22.0156 18.1875 21.5 18.1875C20.9844 18.1875 20.5625 18.6094 20.5625 19.125V19.7812C20.1875 19.875 19.8125 20.0156 19.4844 20.2031C18.8281 20.5781 18.2656 21.2812 18.3125 22.2656C18.3125 23.2031 18.875 23.8125 19.4375 24.1875C19.9531 24.4688 20.6094 24.6562 21.125 24.8438H21.2188C21.7812 25.0312 22.2031 25.1719 22.5312 25.3594C22.7656 25.5 22.7656 25.5938 22.7656 25.7344C22.8125 25.9688 22.7188 26.1094 22.5312 26.2031C22.2969 26.3906 21.9219 26.4375 21.5 26.4375C20.9844 26.4375 20.5156 26.25 19.8594 26.0625C19.7656 26.0156 19.625 25.9688 19.5312 25.9219C19.0156 25.7812 18.5 26.0156 18.3594 26.5312C18.1719 27 18.4531 27.5625 18.9219 27.7031C19.0156 27.75 19.1094 27.75 19.2031 27.7969C19.625 27.9375 20.0469 28.0781 20.5156 28.2188V28.875C20.5156 29.3906 20.9375 29.8125 21.4531 29.8125C21.9688 29.8125 22.3906 29.3906 22.3906 28.875V28.2656C22.7656 28.1719 23.1406 28.0312 23.5156 27.8438C24.1719 27.4219 24.6875 26.7188 24.6406 25.7344C24.6406 24.75 24.125 24.1406 23.5156 23.7656C22.9531 23.4375 22.2969 23.2031 21.7812 23.0625H21.7344C21.125 22.875 20.7031 22.7344 20.4219 22.5469C20.1875 22.4062 20.1406 22.3125 20.1406 22.2656C20.1406 22.0781 20.2344 21.9375 20.4688 21.7969C20.7031 21.6562 21.0781 21.5625 21.4531 21.5625C21.9219 21.5625 22.3906 21.7031 22.9062 21.8438C23.4219 21.9375 23.9375 21.6562 24.0781 21.1406C24.2188 20.6719 23.8906 20.1562 23.4219 20.0156C23.0938 19.9219 22.7656 19.8281 22.4375 19.7812V19.125Z" fill="#A1A5AD"/>
</svg>
