<svg width="25" height="25" viewBox="0 0 25 25" fill="none" xmlns="http://www.w3.org/2000/svg">
<path d="M15.0527 5H9.05273L6.80273 1.67188C6.47461 1.20312 6.84961 0.5 7.41211 0.5H16.6465C17.209 0.5 17.584 1.20312 17.2559 1.67188L15.0527 5ZM9.05273 6.5H15.0527C15.1934 6.64062 15.4277 6.78125 15.6152 6.92188C18.2871 8.60938 24.0527 12.2656 24.0527 20C24.0527 22.4844 22.0371 24.5 19.5527 24.5H4.55273C2.02148 24.5 0.0527344 22.4844 0.0527344 20C0.0527344 12.2656 5.77148 8.60938 8.44336 6.92188C8.63086 6.78125 8.86523 6.64062 9.05273 6.5ZM12.9902 11C12.9902 10.4844 12.5684 10.0625 12.0059 10.0625C11.4902 10.0625 11.0684 10.4844 11.0684 11V11.2812C10.834 11.375 10.5527 11.4219 10.3652 11.5625C9.66211 11.8438 9.05273 12.4531 8.86523 13.2969C8.81836 13.7656 8.86523 14.2344 9.05273 14.6562C9.24023 15.0781 9.56836 15.3594 9.84961 15.5938C10.4121 15.9688 11.1152 16.1562 11.6777 16.3438H11.7715C12.4277 16.5781 12.8496 16.7188 13.1309 16.9062C13.2715 17 13.3184 17.0469 13.3184 17.0938C13.3184 17.1406 13.3652 17.2344 13.3184 17.4219C13.3184 17.5625 13.2246 17.7031 12.9434 17.8438C12.6621 17.9375 12.1934 17.9844 11.584 17.8906C11.3027 17.8438 10.834 17.7031 10.3652 17.5625C10.2715 17.5156 10.1777 17.4688 10.084 17.4219C9.56836 17.2812 9.05273 17.5625 8.91211 18.0312C8.72461 18.5469 9.00586 19.0625 9.47461 19.2031C9.52148 19.25 9.61523 19.25 9.70898 19.2969C10.0371 19.4375 10.6465 19.625 11.0684 19.7188V20C11.0684 20.5625 11.4902 20.9844 12.0059 20.9844C12.5684 20.9844 12.9902 20.5625 12.9902 20V19.7656C13.2246 19.7188 13.459 19.625 13.6934 19.5312C14.4434 19.25 15.0059 18.6406 15.1934 17.75C15.2402 17.2344 15.2402 16.7656 15.0527 16.3438C14.8652 15.9219 14.5371 15.6406 14.2559 15.4062C13.6934 14.9844 12.8965 14.75 12.334 14.5625H12.2871C11.6309 14.375 11.209 14.2344 10.9277 14.0469C10.7871 13.9531 10.7402 13.9062 10.7402 13.8594C10.7402 13.8594 10.6934 13.8125 10.7402 13.625C10.7402 13.5312 10.834 13.3906 11.1152 13.25C11.3965 13.1094 11.8652 13.0625 12.4746 13.1094C12.6621 13.1562 13.3184 13.2969 13.459 13.3438C13.9746 13.4844 14.4902 13.1562 14.6309 12.6875C14.7715 12.1719 14.4434 11.6562 13.9746 11.5156C13.7402 11.4688 13.2715 11.375 12.9902 11.3281V11Z" fill="white"/>
</svg>
