<svg width="311" height="30" viewBox="0 0 311 30" fill="none" xmlns="http://www.w3.org/2000/svg">
<path d="M9.375 13V11.125C9.375 8.03906 11.875 5.5 15 5.5C18.0859 5.5 20.625 8.03906 20.625 11.125V13H21.25C22.6172 13 23.75 14.1328 23.75 15.5V23C23.75 24.4062 22.6172 25.5 21.25 25.5H8.75C7.34375 25.5 6.25 24.4062 6.25 23V15.5C6.25 14.1328 7.34375 13 8.75 13H9.375ZM11.875 13H18.125V11.125C18.125 9.40625 16.7188 8 15 8C13.2422 8 11.875 9.40625 11.875 11.125V13Z" fill="black"/>
<path d="M48.688 21.192C47.824 21.192 47.0187 21.0533 46.272 20.776C45.536 20.488 44.896 20.0827 44.352 19.56C43.808 19.0373 43.3813 18.424 43.072 17.72C42.7733 17.016 42.624 16.2427 42.624 15.4C42.624 14.5573 42.7733 13.784 43.072 13.08C43.3813 12.376 43.808 11.7627 44.352 11.24C44.9067 10.7173 45.552 10.3173 46.288 10.04C47.024 9.752 47.8293 9.608 48.704 9.608C49.6747 9.608 50.5493 9.77867 51.328 10.12C52.1173 10.4507 52.7787 10.9413 53.312 11.592L51.648 13.128C51.264 12.6907 50.8373 12.3653 50.368 12.152C49.8987 11.928 49.3867 11.816 48.832 11.816C48.3093 11.816 47.8293 11.9013 47.392 12.072C46.9547 12.2427 46.576 12.488 46.256 12.808C45.936 13.128 45.6853 13.5067 45.504 13.944C45.3333 14.3813 45.248 14.8667 45.248 15.4C45.248 15.9333 45.3333 16.4187 45.504 16.856C45.6853 17.2933 45.936 17.672 46.256 17.992C46.576 18.312 46.9547 18.5573 47.392 18.728C47.8293 18.8987 48.3093 18.984 48.832 18.984C49.3867 18.984 49.8987 18.8773 50.368 18.664C50.8373 18.44 51.264 18.104 51.648 17.656L53.312 19.192C52.7787 19.8427 52.1173 20.3387 51.328 20.68C50.5493 21.0213 49.6693 21.192 48.688 21.192ZM60.1184 12.264C60.801 12.264 61.409 12.4027 61.9424 12.68C62.4864 12.9467 62.913 13.3627 63.2224 13.928C63.5317 14.4827 63.6864 15.1973 63.6864 16.072V21H61.1904V16.456C61.1904 15.7627 61.0357 15.2507 60.7264 14.92C60.4277 14.5893 60.001 14.424 59.4464 14.424C59.0517 14.424 58.6944 14.5093 58.3744 14.68C58.065 14.84 57.8197 15.0907 57.6384 15.432C57.4677 15.7733 57.3824 16.2107 57.3824 16.744V21H54.8864V9.128H57.3824V14.776L56.8224 14.056C57.1317 13.48 57.5744 13.0373 58.1504 12.728C58.7264 12.4187 59.3824 12.264 60.1184 12.264ZM71.2289 21V19.32L71.0689 18.952V15.944C71.0689 15.4107 70.9035 14.9947 70.5729 14.696C70.2529 14.3973 69.7569 14.248 69.0849 14.248C68.6262 14.248 68.1729 14.3227 67.7249 14.472C67.2875 14.6107 66.9142 14.8027 66.6049 15.048L65.7089 13.304C66.1782 12.9733 66.7435 12.7173 67.4049 12.536C68.0662 12.3547 68.7382 12.264 69.4209 12.264C70.7329 12.264 71.7515 12.5733 72.4769 13.192C73.2022 13.8107 73.5649 14.776 73.5649 16.088V21H71.2289ZM68.6049 21.128C67.9329 21.128 67.3569 21.016 66.8769 20.792C66.3969 20.5573 66.0289 20.2427 65.7729 19.848C65.5169 19.4533 65.3889 19.0107 65.3889 18.52C65.3889 18.008 65.5115 17.56 65.7569 17.176C66.0129 16.792 66.4129 16.4933 66.9569 16.28C67.5009 16.056 68.2102 15.944 69.0849 15.944H71.3729V17.4H69.3569C68.7702 17.4 68.3649 17.496 68.1409 17.688C67.9275 17.88 67.8209 18.12 67.8209 18.408C67.8209 18.728 67.9435 18.984 68.1889 19.176C68.4449 19.3573 68.7915 19.448 69.2289 19.448C69.6449 19.448 70.0182 19.352 70.3489 19.16C70.6795 18.9573 70.9195 18.664 71.0689 18.28L71.4529 19.432C71.2715 19.9867 70.9409 20.408 70.4609 20.696C69.9809 20.984 69.3622 21.128 68.6049 21.128ZM81.0559 12.264C81.7385 12.264 82.3465 12.4027 82.8799 12.68C83.4239 12.9467 83.8505 13.3627 84.1599 13.928C84.4692 14.4827 84.6239 15.1973 84.6239 16.072V21H82.1279V16.456C82.1279 15.7627 81.9732 15.2507 81.6639 14.92C81.3652 14.5893 80.9385 14.424 80.3839 14.424C79.9892 14.424 79.6319 14.5093 79.3119 14.68C79.0025 14.84 78.7572 15.0907 78.5759 15.432C78.4052 15.7733 78.3199 16.2107 78.3199 16.744V21H75.8239V12.392H78.2079V14.776L77.7599 14.056C78.0692 13.48 78.5119 13.0373 79.0879 12.728C79.6639 12.4187 80.3199 12.264 81.0559 12.264ZM90.9969 24.232C90.1862 24.232 89.4022 24.1307 88.6449 23.928C87.8982 23.736 87.2742 23.4427 86.7729 23.048L87.7649 21.256C88.1275 21.5547 88.5862 21.7893 89.1409 21.96C89.7062 22.1413 90.2609 22.232 90.8049 22.232C91.6902 22.232 92.3302 22.0347 92.7249 21.64C93.1302 21.2453 93.3329 20.6587 93.3329 19.88V18.584L93.4929 16.424L93.4609 14.248V12.392H95.8289V19.56C95.8289 21.16 95.4129 22.3387 94.5809 23.096C93.7489 23.8533 92.5542 24.232 90.9969 24.232ZM90.6129 20.584C89.8129 20.584 89.0875 20.4133 88.4369 20.072C87.7969 19.72 87.2795 19.2347 86.8849 18.616C86.5009 17.9867 86.3089 17.256 86.3089 16.424C86.3089 15.5813 86.5009 14.8507 86.8849 14.232C87.2795 13.6027 87.7969 13.1173 88.4369 12.776C89.0875 12.4347 89.8129 12.264 90.6129 12.264C91.3382 12.264 91.9782 12.4133 92.5329 12.712C93.0875 13 93.5195 13.4533 93.8289 14.072C94.1382 14.68 94.2929 15.464 94.2929 16.424C94.2929 17.3733 94.1382 18.1573 93.8289 18.776C93.5195 19.384 93.0875 19.8373 92.5329 20.136C91.9782 20.4347 91.3382 20.584 90.6129 20.584ZM91.1089 18.536C91.5462 18.536 91.9355 18.4507 92.2769 18.28C92.6182 18.0987 92.8849 17.848 93.0769 17.528C93.2689 17.208 93.3649 16.84 93.3649 16.424C93.3649 15.9973 93.2689 15.6293 93.0769 15.32C92.8849 15 92.6182 14.7547 92.2769 14.584C91.9355 14.4027 91.5462 14.312 91.1089 14.312C90.6715 14.312 90.2822 14.4027 89.9409 14.584C89.5995 14.7547 89.3275 15 89.1249 15.32C88.9329 15.6293 88.8369 15.9973 88.8369 16.424C88.8369 16.84 88.9329 17.208 89.1249 17.528C89.3275 17.848 89.5995 18.0987 89.9409 18.28C90.2822 18.4507 90.6715 18.536 91.1089 18.536ZM102.424 21.128C101.443 21.128 100.579 20.936 99.832 20.552C99.096 20.168 98.5253 19.6453 98.12 18.984C97.7147 18.312 97.512 17.5493 97.512 16.696C97.512 15.832 97.7093 15.0693 98.104 14.408C98.5093 13.736 99.0587 13.2133 99.752 12.84C100.445 12.456 101.229 12.264 102.104 12.264C102.947 12.264 103.704 12.4453 104.376 12.808C105.059 13.16 105.597 13.672 105.992 14.344C106.387 15.0053 106.584 15.8 106.584 16.728C106.584 16.824 106.579 16.936 106.568 17.064C106.557 17.1813 106.547 17.2933 106.536 17.4H99.544V15.944H105.224L104.264 16.376C104.264 15.928 104.173 15.5387 103.992 15.208C103.811 14.8773 103.56 14.6213 103.24 14.44C102.92 14.248 102.547 14.152 102.12 14.152C101.693 14.152 101.315 14.248 100.984 14.44C100.664 14.6213 100.413 14.8827 100.232 15.224C100.051 15.5547 99.96 15.9493 99.96 16.408V16.792C99.96 17.2613 100.061 17.6773 100.264 18.04C100.477 18.392 100.771 18.664 101.144 18.856C101.528 19.0373 101.976 19.128 102.488 19.128C102.947 19.128 103.347 19.0587 103.688 18.92C104.04 18.7813 104.36 18.5733 104.648 18.296L105.976 19.736C105.581 20.184 105.085 20.5307 104.488 20.776C103.891 21.0107 103.203 21.128 102.424 21.128ZM112.953 21V9.8H117.801C118.804 9.8 119.668 9.96533 120.393 10.296C121.118 10.616 121.678 11.08 122.073 11.688C122.468 12.296 122.665 13.0213 122.665 13.864C122.665 14.696 122.468 15.416 122.073 16.024C121.678 16.632 121.118 17.1013 120.393 17.432C119.668 17.752 118.804 17.912 117.801 17.912H114.393L115.545 16.744V21H112.953ZM115.545 17.032L114.393 15.8H117.657C118.457 15.8 119.054 15.6293 119.449 15.288C119.844 14.9467 120.041 14.472 120.041 13.864C120.041 13.2453 119.844 12.7653 119.449 12.424C119.054 12.0827 118.457 11.912 117.657 11.912H114.393L115.545 10.68V17.032ZM124.496 21V12.392H126.992V21H124.496ZM125.744 11.192C125.285 11.192 124.912 11.0587 124.624 10.792C124.336 10.5253 124.192 10.1947 124.192 9.8C124.192 9.40533 124.336 9.07467 124.624 8.808C124.912 8.54133 125.285 8.408 125.744 8.408C126.202 8.408 126.576 8.536 126.864 8.792C127.152 9.03733 127.296 9.35733 127.296 9.752C127.296 10.168 127.152 10.5147 126.864 10.792C126.586 11.0587 126.213 11.192 125.744 11.192ZM134.54 12.264C135.223 12.264 135.831 12.4027 136.364 12.68C136.908 12.9467 137.335 13.3627 137.644 13.928C137.954 14.4827 138.108 15.1973 138.108 16.072V21H135.612V16.456C135.612 15.7627 135.458 15.2507 135.148 14.92C134.85 14.5893 134.423 14.424 133.868 14.424C133.474 14.424 133.116 14.5093 132.796 14.68C132.487 14.84 132.242 15.0907 132.06 15.432C131.89 15.7733 131.804 16.2107 131.804 16.744V21H129.308V12.392H131.692V14.776L131.244 14.056C131.554 13.48 131.996 13.0373 132.572 12.728C133.148 12.4187 133.804 12.264 134.54 12.264Z" fill="black"/>
<path d="M293.5 24.25C293.148 24.25 292.836 24.1328 292.602 23.8984C292.094 23.4297 292.094 22.6094 292.602 22.1406L299.203 15.5L292.602 8.89844C292.094 8.42969 292.094 7.60938 292.602 7.14062C293.07 6.63281 293.891 6.63281 294.359 7.14062L301.859 14.6406C302.367 15.1094 302.367 15.9297 301.859 16.3984L294.359 23.8984C294.125 24.1328 293.812 24.25 293.5 24.25Z" fill="black"/>
</svg>
