<svg width="150" height="30" viewBox="0 0 150 30" fill="none" xmlns="http://www.w3.org/2000/svg">
<rect width="150" height="30" rx="5" fill="#F49E4C"/>
<path d="M21.5 22C20.375 22 19.5 21.125 19.5 20V10C19.5 8.90625 20.375 8 21.5 8H25.5C26.125 8 26.7188 8.3125 27.0938 8.8125L27.6875 9.625C27.875 9.875 28.1562 10 28.5 10H33.5C34.5938 10 35.5 10.9062 35.5 12V20C35.5 21.125 34.5938 22 33.5 22H21.5Z" fill="white"/>
<path d="M47.188 21.096C46.0787 21.096 45.076 20.8507 44.18 20.36C43.2947 19.8693 42.596 19.192 42.084 18.328C41.5827 17.4533 41.332 16.4773 41.332 15.4C41.332 14.3227 41.5827 13.352 42.084 12.488C42.596 11.6133 43.3 10.9307 44.196 10.44C45.092 9.94933 46.0947 9.704 47.204 9.704C48.036 9.704 48.804 9.84267 49.508 10.12C50.212 10.3973 50.8093 10.8027 51.3 11.336L50.548 12.088C49.6733 11.2027 48.5693 10.76 47.236 10.76C46.3507 10.76 45.5453 10.9627 44.82 11.368C44.0947 11.7733 43.524 12.328 43.108 13.032C42.7027 13.736 42.5 14.5253 42.5 15.4C42.5 16.2747 42.7027 17.064 43.108 17.768C43.524 18.472 44.0947 19.0267 44.82 19.432C45.5453 19.8373 46.3507 20.04 47.236 20.04C48.58 20.04 49.684 19.592 50.548 18.696L51.3 19.448C50.8093 19.9813 50.2067 20.392 49.492 20.68C48.788 20.9573 48.02 21.096 47.188 21.096ZM57.872 12.52C58.928 12.52 59.7653 12.8293 60.384 13.448C61.0133 14.056 61.328 14.9467 61.328 16.12V21H60.192V16.232C60.192 15.3573 59.9733 14.6907 59.536 14.232C59.0987 13.7733 58.4747 13.544 57.664 13.544C56.7573 13.544 56.0373 13.816 55.504 14.36C54.9813 14.8933 54.72 15.6347 54.72 16.584V21H53.584V9.128H54.72V14.056C55.0293 13.5653 55.456 13.1867 56 12.92C56.544 12.6533 57.168 12.52 57.872 12.52ZM67.8834 21.08C67.0727 21.08 66.342 20.8987 65.6914 20.536C65.0407 20.1627 64.5287 19.6507 64.1554 19C63.782 18.3493 63.5954 17.6133 63.5954 16.792C63.5954 15.9707 63.782 15.2347 64.1554 14.584C64.5287 13.9333 65.0407 13.4267 65.6914 13.064C66.342 12.7013 67.0727 12.52 67.8834 12.52C68.694 12.52 69.4247 12.7013 70.0754 13.064C70.726 13.4267 71.2327 13.9333 71.5954 14.584C71.9687 15.2347 72.1554 15.9707 72.1554 16.792C72.1554 17.6133 71.9687 18.3493 71.5954 19C71.2327 19.6507 70.726 20.1627 70.0754 20.536C69.4247 20.8987 68.694 21.08 67.8834 21.08ZM67.8834 20.072C68.4807 20.072 69.014 19.9387 69.4834 19.672C69.9634 19.3947 70.3367 19.0053 70.6034 18.504C70.87 18.0027 71.0034 17.432 71.0034 16.792C71.0034 16.152 70.87 15.5813 70.6034 15.08C70.3367 14.5787 69.9634 14.1947 69.4834 13.928C69.014 13.6507 68.4807 13.512 67.8834 13.512C67.286 13.512 66.7474 13.6507 66.2674 13.928C65.798 14.1947 65.4247 14.5787 65.1474 15.08C64.8807 15.5813 64.7474 16.152 64.7474 16.792C64.7474 17.432 64.8807 18.0027 65.1474 18.504C65.4247 19.0053 65.798 19.3947 66.2674 19.672C66.7474 19.9387 67.286 20.072 67.8834 20.072ZM77.9146 21.08C77.104 21.08 76.3733 20.8987 75.7226 20.536C75.072 20.1627 74.56 19.6507 74.1866 19C73.8133 18.3493 73.6266 17.6133 73.6266 16.792C73.6266 15.9707 73.8133 15.2347 74.1866 14.584C74.56 13.9333 75.072 13.4267 75.7226 13.064C76.3733 12.7013 77.104 12.52 77.9146 12.52C78.7253 12.52 79.456 12.7013 80.1066 13.064C80.7573 13.4267 81.264 13.9333 81.6266 14.584C82 15.2347 82.1866 15.9707 82.1866 16.792C82.1866 17.6133 82 18.3493 81.6266 19C81.264 19.6507 80.7573 20.1627 80.1066 20.536C79.456 20.8987 78.7253 21.08 77.9146 21.08ZM77.9146 20.072C78.512 20.072 79.0453 19.9387 79.5146 19.672C79.9946 19.3947 80.368 19.0053 80.6346 18.504C80.9013 18.0027 81.0346 17.432 81.0346 16.792C81.0346 16.152 80.9013 15.5813 80.6346 15.08C80.368 14.5787 79.9946 14.1947 79.5146 13.928C79.0453 13.6507 78.512 13.512 77.9146 13.512C77.3173 13.512 76.7786 13.6507 76.2986 13.928C75.8293 14.1947 75.456 14.5787 75.1786 15.08C74.912 15.5813 74.7786 16.152 74.7786 16.792C74.7786 17.432 74.912 18.0027 75.1786 18.504C75.456 19.0053 75.8293 19.3947 76.2986 19.672C76.7786 19.9387 77.3173 20.072 77.9146 20.072ZM86.7619 21.08C86.0792 21.08 85.4232 20.984 84.7939 20.792C84.1752 20.5893 83.6899 20.3387 83.3379 20.04L83.8499 19.144C84.2019 19.4213 84.6445 19.6507 85.1779 19.832C85.7112 20.0027 86.2659 20.088 86.8419 20.088C87.6099 20.088 88.1752 19.9707 88.5379 19.736C88.9112 19.4907 89.0979 19.1493 89.0979 18.712C89.0979 18.4027 88.9965 18.1627 88.7939 17.992C88.5912 17.8107 88.3352 17.6773 88.0259 17.592C87.7165 17.496 87.3059 17.4053 86.7939 17.32C86.1112 17.192 85.5619 17.064 85.1459 16.936C84.7299 16.7973 84.3725 16.568 84.0739 16.248C83.7859 15.928 83.6419 15.4853 83.6419 14.92C83.6419 14.216 83.9352 13.64 84.5219 13.192C85.1085 12.744 85.9245 12.52 86.9699 12.52C87.5139 12.52 88.0579 12.5947 88.6019 12.744C89.1459 12.8827 89.5939 13.0693 89.9459 13.304L89.4499 14.216C88.7565 13.736 87.9299 13.496 86.9699 13.496C86.2445 13.496 85.6952 13.624 85.3219 13.88C84.9592 14.136 84.7779 14.472 84.7779 14.888C84.7779 15.208 84.8792 15.464 85.0819 15.656C85.2952 15.848 85.5565 15.992 85.8659 16.088C86.1752 16.1733 86.6019 16.264 87.1459 16.36C87.8179 16.488 88.3565 16.616 88.7619 16.744C89.1672 16.872 89.5139 17.0907 89.8019 17.4C90.0899 17.7093 90.2339 18.136 90.2339 18.68C90.2339 19.416 89.9245 20.0027 89.3059 20.44C88.6979 20.8667 87.8499 21.08 86.7619 21.08ZM99.662 17.144H92.622C92.686 18.0187 93.022 18.728 93.63 19.272C94.238 19.8053 95.006 20.072 95.934 20.072C96.4567 20.072 96.9367 19.9813 97.374 19.8C97.8113 19.608 98.19 19.3307 98.51 18.968L99.15 19.704C98.7767 20.152 98.3073 20.4933 97.742 20.728C97.1873 20.9627 96.574 21.08 95.902 21.08C95.038 21.08 94.27 20.8987 93.598 20.536C92.9367 20.1627 92.4193 19.6507 92.046 19C91.6727 18.3493 91.486 17.6133 91.486 16.792C91.486 15.9707 91.662 15.2347 92.014 14.584C92.3767 13.9333 92.8673 13.4267 93.486 13.064C94.1153 12.7013 94.8193 12.52 95.598 12.52C96.3767 12.52 97.0753 12.7013 97.694 13.064C98.3127 13.4267 98.798 13.9333 99.15 14.584C99.502 15.224 99.678 15.96 99.678 16.792L99.662 17.144ZM95.598 13.496C94.7873 13.496 94.1047 13.7573 93.55 14.28C93.006 14.792 92.6967 15.464 92.622 16.296H98.59C98.5153 15.464 98.2007 14.792 97.646 14.28C97.102 13.7573 96.4193 13.496 95.598 13.496ZM108.962 10.008C108.471 10.008 108.098 10.1413 107.842 10.408C107.596 10.6747 107.474 11.0693 107.474 11.592V12.584H110.066V13.544H107.506V21H106.37V13.544H104.866V12.584H106.37V11.544C106.37 10.776 106.588 10.168 107.026 9.72C107.474 9.272 108.103 9.048 108.914 9.048C109.234 9.048 109.543 9.096 109.842 9.192C110.14 9.27733 110.391 9.40533 110.594 9.576L110.21 10.424C109.879 10.1467 109.463 10.008 108.962 10.008ZM112.882 12.584H114.018V21H112.882V12.584ZM113.458 10.744C113.223 10.744 113.026 10.664 112.866 10.504C112.706 10.344 112.626 10.152 112.626 9.928C112.626 9.71467 112.706 9.528 112.866 9.368C113.026 9.208 113.223 9.128 113.458 9.128C113.692 9.128 113.89 9.208 114.05 9.368C114.21 9.51733 114.29 9.69867 114.29 9.912C114.29 10.1467 114.21 10.344 114.05 10.504C113.89 10.664 113.692 10.744 113.458 10.744ZM117.193 9.128H118.329V21H117.193V9.128ZM128.818 17.144H121.778C121.842 18.0187 122.178 18.728 122.786 19.272C123.394 19.8053 124.162 20.072 125.09 20.072C125.613 20.072 126.093 19.9813 126.53 19.8C126.968 19.608 127.346 19.3307 127.666 18.968L128.306 19.704C127.933 20.152 127.464 20.4933 126.898 20.728C126.344 20.9627 125.73 21.08 125.058 21.08C124.194 21.08 123.426 20.8987 122.754 20.536C122.093 20.1627 121.576 19.6507 121.202 19C120.829 18.3493 120.642 17.6133 120.642 16.792C120.642 15.9707 120.818 15.2347 121.17 14.584C121.533 13.9333 122.024 13.4267 122.642 13.064C123.272 12.7013 123.976 12.52 124.754 12.52C125.533 12.52 126.232 12.7013 126.85 13.064C127.469 13.4267 127.954 13.9333 128.306 14.584C128.658 15.224 128.834 15.96 128.834 16.792L128.818 17.144ZM124.754 13.496C123.944 13.496 123.261 13.7573 122.706 14.28C122.162 14.792 121.853 15.464 121.778 16.296H127.746C127.672 15.464 127.357 14.792 126.802 14.28C126.258 13.7573 125.576 13.496 124.754 13.496Z" fill="white"/>
</svg>
