<svg width="314" height="63" viewBox="0 0 314 63" fill="none" xmlns="http://www.w3.org/2000/svg">
<rect width="314" height="63" rx="5" fill="#FFD7B2"/>
<path d="M142.562 37V25.8H147.65C148.866 25.8 149.938 26.0347 150.866 26.504C151.794 26.9627 152.52 27.608 153.042 28.44C153.565 29.272 153.826 30.2587 153.826 31.4C153.826 32.5307 153.565 33.5173 153.042 34.36C152.52 35.192 151.794 35.8427 150.866 36.312C149.938 36.7707 148.866 37 147.65 37H142.562ZM145.154 34.872H147.522C148.269 34.872 148.914 34.7333 149.458 34.456C150.013 34.168 150.44 33.7627 150.738 33.24C151.048 32.7173 151.202 32.104 151.202 31.4C151.202 30.6853 151.048 30.072 150.738 29.56C150.44 29.0373 150.013 28.6373 149.458 28.36C148.914 28.072 148.269 27.928 147.522 27.928H145.154V34.872ZM155.781 37V25.8H158.373V37H155.781ZM161.031 37V25.8H165.879C166.882 25.8 167.746 25.9653 168.471 26.296C169.196 26.616 169.756 27.08 170.151 27.688C170.546 28.296 170.743 29.0213 170.743 29.864C170.743 30.696 170.546 31.416 170.151 32.024C169.756 32.6213 169.196 33.08 168.471 33.4C167.746 33.72 166.882 33.88 165.879 33.88H162.471L163.623 32.744V37H161.031ZM168.151 37L165.351 32.936H168.119L170.951 37H168.151ZM163.623 33.032L162.471 31.816H165.735C166.535 31.816 167.132 31.6453 167.527 31.304C167.922 30.952 168.119 30.472 168.119 29.864C168.119 29.2453 167.922 28.7653 167.527 28.424C167.132 28.0827 166.535 27.912 165.735 27.912H162.471L163.623 26.68V33.032ZM175.181 30.312H180.573V32.328H175.181V30.312ZM175.373 34.92H181.469V37H172.797V25.8H181.261V27.88H175.373V34.92ZM188.891 37.192C188.027 37.192 187.222 37.0533 186.475 36.776C185.739 36.488 185.099 36.0827 184.555 35.56C184.011 35.0373 183.584 34.424 183.275 33.72C182.976 33.016 182.827 32.2427 182.827 31.4C182.827 30.5573 182.976 29.784 183.275 29.08C183.584 28.376 184.011 27.7627 184.555 27.24C185.11 26.7173 185.755 26.3173 186.491 26.04C187.227 25.752 188.032 25.608 188.907 25.608C189.878 25.608 190.752 25.7787 191.531 26.12C192.32 26.4507 192.982 26.9413 193.515 27.592L191.851 29.128C191.467 28.6907 191.04 28.3653 190.571 28.152C190.102 27.928 189.59 27.816 189.035 27.816C188.512 27.816 188.032 27.9013 187.595 28.072C187.158 28.2427 186.779 28.488 186.459 28.808C186.139 29.128 185.888 29.5067 185.707 29.944C185.536 30.3813 185.451 30.8667 185.451 31.4C185.451 31.9333 185.536 32.4187 185.707 32.856C185.888 33.2933 186.139 33.672 186.459 33.992C186.779 34.312 187.158 34.5573 187.595 34.728C188.032 34.8987 188.512 34.984 189.035 34.984C189.59 34.984 190.102 34.8773 190.571 34.664C191.04 34.44 191.467 34.104 191.851 33.656L193.515 35.192C192.982 35.8427 192.32 36.3387 191.531 36.68C190.752 37.0213 189.872 37.192 188.891 37.192ZM197.476 37V27.912H193.892V25.8H203.652V27.912H200.068V37H197.476ZM211.898 37V27.912H208.314V25.8H218.074V27.912H214.49V37H211.898ZM219.469 37V25.8H224.317C225.319 25.8 226.183 25.9653 226.909 26.296C227.634 26.616 228.194 27.08 228.589 27.688C228.983 28.296 229.181 29.0213 229.181 29.864C229.181 30.696 228.983 31.416 228.589 32.024C228.194 32.6213 227.634 33.08 226.909 33.4C226.183 33.72 225.319 33.88 224.317 33.88H220.909L222.061 32.744V37H219.469ZM226.589 37L223.789 32.936H226.557L229.389 37H226.589ZM222.061 33.032L220.909 31.816H224.173C224.973 31.816 225.57 31.6453 225.965 31.304C226.359 30.952 226.557 30.472 226.557 29.864C226.557 29.2453 226.359 28.7653 225.965 28.424C225.57 28.0827 224.973 27.912 224.173 27.912H220.909L222.061 26.68V33.032ZM229.762 37L234.754 25.8H237.314L242.322 37H239.602L235.506 27.112H236.53L232.418 37H229.762ZM232.258 34.6L232.946 32.632H238.706L239.41 34.6H232.258ZM243.484 37V25.8H245.628L252.236 33.864H251.196V25.8H253.756V37H251.628L245.004 28.936H246.044V37H243.484ZM260.086 37.192C259.19 37.192 258.331 37.0747 257.51 36.84C256.689 36.5947 256.027 36.28 255.526 35.896L256.406 33.944C256.886 34.2853 257.451 34.568 258.102 34.792C258.763 35.0053 259.43 35.112 260.102 35.112C260.614 35.112 261.025 35.064 261.334 34.968C261.654 34.8613 261.889 34.7173 262.038 34.536C262.187 34.3547 262.262 34.1467 262.262 33.912C262.262 33.6133 262.145 33.3787 261.91 33.208C261.675 33.0267 261.366 32.8827 260.982 32.776C260.598 32.6587 260.171 32.552 259.702 32.456C259.243 32.3493 258.779 32.2213 258.31 32.072C257.851 31.9227 257.43 31.7307 257.046 31.496C256.662 31.2613 256.347 30.952 256.102 30.568C255.867 30.184 255.75 29.6933 255.75 29.096C255.75 28.456 255.921 27.8747 256.262 27.352C256.614 26.8187 257.137 26.3973 257.83 26.088C258.534 25.768 259.414 25.608 260.47 25.608C261.174 25.608 261.867 25.6933 262.55 25.864C263.233 26.024 263.835 26.2693 264.358 26.6L263.558 28.568C263.035 28.2693 262.513 28.0507 261.99 27.912C261.467 27.7627 260.955 27.688 260.454 27.688C259.953 27.688 259.542 27.7467 259.222 27.864C258.902 27.9813 258.673 28.136 258.534 28.328C258.395 28.5093 258.326 28.7227 258.326 28.968C258.326 29.256 258.443 29.4907 258.678 29.672C258.913 29.8427 259.222 29.9813 259.606 30.088C259.99 30.1947 260.411 30.3013 260.87 30.408C261.339 30.5147 261.803 30.6373 262.262 30.776C262.731 30.9147 263.158 31.1013 263.542 31.336C263.926 31.5707 264.235 31.88 264.47 32.264C264.715 32.648 264.838 33.1333 264.838 33.72C264.838 34.3493 264.662 34.9253 264.31 35.448C263.958 35.9707 263.43 36.392 262.726 36.712C262.033 37.032 261.153 37.192 260.086 37.192ZM269.009 30.84H274.385V32.92H269.009V30.84ZM269.201 37H266.609V25.8H275.073V27.88H269.201V37ZM279.212 30.312H284.604V32.328H279.212V30.312ZM279.404 34.92H285.5V37H276.828V25.8H285.292V27.88H279.404V34.92ZM287.562 37V25.8H292.41C293.413 25.8 294.277 25.9653 295.002 26.296C295.728 26.616 296.288 27.08 296.682 27.688C297.077 28.296 297.274 29.0213 297.274 29.864C297.274 30.696 297.077 31.416 296.682 32.024C296.288 32.6213 295.728 33.08 295.002 33.4C294.277 33.72 293.413 33.88 292.41 33.88H289.002L290.154 32.744V37H287.562ZM294.682 37L291.882 32.936H294.65L297.482 37H294.682ZM290.154 33.032L289.002 31.816H292.266C293.066 31.816 293.664 31.6453 294.058 31.304C294.453 30.952 294.65 30.472 294.65 29.864C294.65 29.2453 294.453 28.7653 294.058 28.424C293.664 28.0827 293.066 27.912 292.266 27.912H289.002L290.154 26.68V33.032Z" fill="#F49E4C"/>
<rect x="14" y="14" width="34" height="34" rx="3" fill="#F49E4C"/>
<path d="M37.6875 28.7188L34.6875 31.7188C34.3125 32.125 33.6562 32.125 33.2812 31.7188C32.875 31.3438 32.875 30.6875 33.2812 30.3125L34.5625 29H25C24.4375 29 24 28.5625 24 28C24 27.4688 24.4375 27 25 27H34.5625L33.2812 25.7188C32.875 25.3438 32.875 24.6875 33.2812 24.3125C33.6562 23.9062 34.3125 23.9062 34.6875 24.3125L37.6875 27.3125C38.0938 27.6875 38.0938 28.3438 37.6875 28.7188ZM27.2812 39.7188L24.2812 36.7188C23.875 36.3438 23.875 35.6875 24.2812 35.3125L27.2812 32.3125C27.6562 31.9062 28.3125 31.9062 28.6875 32.3125C29.0938 32.6875 29.0938 33.3438 28.6875 33.7188L27.4062 35H37C37.5312 35 38 35.4688 38 36C38 36.5625 37.5312 37 37 37H27.4062L28.6875 38.3125C29.0938 38.6875 29.0938 39.3438 28.6875 39.7188C28.3125 40.125 27.6562 40.125 27.2812 39.7188Z" fill="white"/>
</svg>
