<svg width="115" height="37" viewBox="0 0 115 37" fill="none" xmlns="http://www.w3.org/2000/svg">
<path d="M6.688 24.692C5.824 24.692 5.01867 24.5533 4.272 24.276C3.536 23.988 2.896 23.5827 2.352 23.06C1.808 22.5373 1.38133 21.924 1.072 21.22C0.773333 20.516 0.624 19.7427 0.624 18.9C0.624 18.0573 0.773333 17.284 1.072 16.58C1.38133 15.876 1.808 15.2627 2.352 14.74C2.90667 14.2173 3.552 13.8173 4.288 13.54C5.024 13.252 5.82933 13.108 6.704 13.108C7.67467 13.108 8.54933 13.2787 9.328 13.62C10.1173 13.9507 10.7787 14.4413 11.312 15.092L9.648 16.628C9.264 16.1907 8.83733 15.8653 8.368 15.652C7.89867 15.428 7.38667 15.316 6.832 15.316C6.30933 15.316 5.82933 15.4013 5.392 15.572C4.95467 15.7427 4.576 15.988 4.256 16.308C3.936 16.628 3.68533 17.0067 3.504 17.444C3.33333 17.8813 3.248 18.3667 3.248 18.9C3.248 19.4333 3.33333 19.9187 3.504 20.356C3.68533 20.7933 3.936 21.172 4.256 21.492C4.576 21.812 4.95467 22.0573 5.392 22.228C5.82933 22.3987 6.30933 22.484 6.832 22.484C7.38667 22.484 7.89867 22.3773 8.368 22.164C8.83733 21.94 9.264 21.604 9.648 21.156L11.312 22.692C10.7787 23.3427 10.1173 23.8387 9.328 24.18C8.54933 24.5213 7.66933 24.692 6.688 24.692ZM16.6855 24.628C15.7682 24.628 14.9522 24.436 14.2375 24.052C13.5335 23.668 12.9735 23.1453 12.5575 22.484C12.1522 21.812 11.9495 21.0493 11.9495 20.196C11.9495 19.332 12.1522 18.5693 12.5575 17.908C12.9735 17.236 13.5335 16.7133 14.2375 16.34C14.9522 15.956 15.7682 15.764 16.6855 15.764C17.5922 15.764 18.4028 15.956 19.1175 16.34C19.8322 16.7133 20.3922 17.2307 20.7975 17.892C21.2028 18.5533 21.4055 19.3213 21.4055 20.196C21.4055 21.0493 21.2028 21.812 20.7975 22.484C20.3922 23.1453 19.8322 23.668 19.1175 24.052C18.4028 24.436 17.5922 24.628 16.6855 24.628ZM16.6855 22.58C17.1015 22.58 17.4748 22.484 17.8055 22.292C18.1362 22.1 18.3975 21.828 18.5895 21.476C18.7815 21.1133 18.8775 20.6867 18.8775 20.196C18.8775 19.6947 18.7815 19.268 18.5895 18.916C18.3975 18.564 18.1362 18.292 17.8055 18.1C17.4748 17.908 17.1015 17.812 16.6855 17.812C16.2695 17.812 15.8962 17.908 15.5655 18.1C15.2348 18.292 14.9682 18.564 14.7655 18.916C14.5735 19.268 14.4775 19.6947 14.4775 20.196C14.4775 20.6867 14.5735 21.1133 14.7655 21.476C14.9682 21.828 15.2348 22.1 15.5655 22.292C15.8962 22.484 16.2695 22.58 16.6855 22.58ZM28.3059 15.764C28.9885 15.764 29.5965 15.9027 30.1299 16.18C30.6739 16.4467 31.1005 16.8627 31.4099 17.428C31.7192 17.9827 31.8739 18.6973 31.8739 19.572V24.5H29.3779V19.956C29.3779 19.2627 29.2232 18.7507 28.9139 18.42C28.6152 18.0893 28.1885 17.924 27.6339 17.924C27.2392 17.924 26.8819 18.0093 26.5619 18.18C26.2525 18.34 26.0072 18.5907 25.8259 18.932C25.6552 19.2733 25.5699 19.7107 25.5699 20.244V24.5H23.0739V15.892H25.4579V18.276L25.0099 17.556C25.3192 16.98 25.7619 16.5373 26.3379 16.228C26.9139 15.9187 27.5699 15.764 28.3059 15.764ZM34.4404 24.5V15.7C34.4404 14.7293 34.7284 13.956 35.3044 13.38C35.8804 12.7933 36.7017 12.5 37.7684 12.5C38.131 12.5 38.4777 12.5373 38.8084 12.612C39.1497 12.6867 39.4377 12.804 39.6724 12.964L39.0164 14.772C38.8777 14.676 38.723 14.6013 38.5524 14.548C38.3817 14.4947 38.2004 14.468 38.0084 14.468C37.6457 14.468 37.363 14.5747 37.1604 14.788C36.9684 14.9907 36.8724 15.3 36.8724 15.716V16.516L36.9364 17.588V24.5H34.4404ZM33.1124 18.004V16.084H39.0804V18.004H33.1124ZM40.4884 24.5V15.892H42.9844V24.5H40.4884ZM41.7364 14.692C41.2777 14.692 40.9044 14.5587 40.6164 14.292C40.3284 14.0253 40.1844 13.6947 40.1844 13.3C40.1844 12.9053 40.3284 12.5747 40.6164 12.308C40.9044 12.0413 41.2777 11.908 41.7364 11.908C42.195 11.908 42.5684 12.036 42.8564 12.292C43.1444 12.5373 43.2884 12.8573 43.2884 13.252C43.2884 13.668 43.1444 14.0147 42.8564 14.292C42.579 14.5587 42.2057 14.692 41.7364 14.692ZM45.2926 24.5V15.892H47.6766V18.324L47.3406 17.62C47.5966 17.012 48.0073 16.5533 48.5726 16.244C49.138 15.924 49.826 15.764 50.6366 15.764V18.068C50.53 18.0573 50.434 18.052 50.3486 18.052C50.2633 18.0413 50.1726 18.036 50.0766 18.036C49.394 18.036 48.8393 18.2333 48.4126 18.628C47.9966 19.012 47.7886 19.6147 47.7886 20.436V24.5H45.2926ZM63.1604 15.764C63.843 15.764 64.4457 15.9027 64.9684 16.18C65.5017 16.4467 65.9177 16.8627 66.2164 17.428C66.5257 17.9827 66.6804 18.6973 66.6804 19.572V24.5H64.1844V19.956C64.1844 19.2627 64.0404 18.7507 63.7524 18.42C63.4644 18.0893 63.059 17.924 62.5364 17.924C62.1737 17.924 61.8484 18.0093 61.5604 18.18C61.2724 18.34 61.0484 18.5853 60.8884 18.916C60.7284 19.2467 60.6484 19.668 60.6484 20.18V24.5H58.1524V19.956C58.1524 19.2627 58.0084 18.7507 57.7204 18.42C57.443 18.0893 57.043 17.924 56.5204 17.924C56.1577 17.924 55.8324 18.0093 55.5444 18.18C55.2564 18.34 55.0324 18.5853 54.8724 18.916C54.7124 19.2467 54.6324 19.668 54.6324 20.18V24.5H52.1364V15.892H54.5204V18.244L54.0724 17.556C54.371 16.9693 54.7924 16.5267 55.3364 16.228C55.891 15.9187 56.5204 15.764 57.2244 15.764C58.0137 15.764 58.7017 15.9667 59.2884 16.372C59.8857 16.7667 60.2804 17.3747 60.4724 18.196L59.5924 17.956C59.8804 17.284 60.339 16.7507 60.9684 16.356C61.6084 15.9613 62.339 15.764 63.1604 15.764Z" fill="black"/>
<circle cx="96.5" cy="18.5" r="18.5" fill="#4FBA74"/>
<path d="M104.109 12.6406C104.617 13.1094 104.617 13.9297 104.109 14.3984L94.1094 24.3984C93.6406 24.9062 92.8203 24.9062 92.3516 24.3984L87.3516 19.3984C86.8438 18.9297 86.8438 18.1094 87.3516 17.6406C87.8203 17.1328 88.6406 17.1328 89.1094 17.6406L93.25 21.7422L102.352 12.6406C102.82 12.1328 103.641 12.1328 104.109 12.6406Z" fill="white"/>
</svg>
