<svg width="104" height="37" viewBox="0 0 104 37" fill="none" xmlns="http://www.w3.org/2000/svg">
<circle cx="18.5" cy="18.5" r="18.5" fill="#AB3428" fill-opacity="0.35"/>
<path d="M23.3359 24.6328L12.8672 14.1641C12.0078 15.4141 11.5 16.8984 11.5 18.5C11.5 22.6406 14.8594 26 19 26C20.6016 26 22.0859 25.4922 23.3359 24.6328ZM25.0938 22.875C25.9531 21.625 26.5 20.1406 26.5 18.5C26.5 14.3594 23.1406 11 19 11C17.3594 11 15.875 11.5469 14.625 12.4062L25.0938 22.875ZM9 18.5C9 14.9453 10.875 11.6641 14 9.86719C17.0859 8.07031 20.875 8.07031 24 9.86719C27.0859 11.6641 29 14.9453 29 18.5C29 22.0938 27.0859 25.375 24 27.1719C20.875 28.9688 17.0859 28.9688 14 27.1719C10.875 25.375 9 22.0938 9 18.5Z" fill="white"/>
<path d="M53.688 24.692C52.824 24.692 52.0187 24.5533 51.272 24.276C50.536 23.988 49.896 23.5827 49.352 23.06C48.808 22.5373 48.3813 21.924 48.072 21.22C47.7733 20.516 47.624 19.7427 47.624 18.9C47.624 18.0573 47.7733 17.284 48.072 16.58C48.3813 15.876 48.808 15.2627 49.352 14.74C49.9067 14.2173 50.552 13.8173 51.288 13.54C52.024 13.252 52.8293 13.108 53.704 13.108C54.6747 13.108 55.5493 13.2787 56.328 13.62C57.1173 13.9507 57.7787 14.4413 58.312 15.092L56.648 16.628C56.264 16.1907 55.8373 15.8653 55.368 15.652C54.8987 15.428 54.3867 15.316 53.832 15.316C53.3093 15.316 52.8293 15.4013 52.392 15.572C51.9547 15.7427 51.576 15.988 51.256 16.308C50.936 16.628 50.6853 17.0067 50.504 17.444C50.3333 17.8813 50.248 18.3667 50.248 18.9C50.248 19.4333 50.3333 19.9187 50.504 20.356C50.6853 20.7933 50.936 21.172 51.256 21.492C51.576 21.812 51.9547 22.0573 52.392 22.228C52.8293 22.3987 53.3093 22.484 53.832 22.484C54.3867 22.484 54.8987 22.3773 55.368 22.164C55.8373 21.94 56.264 21.604 56.648 21.156L58.312 22.692C57.7787 23.3427 57.1173 23.8387 56.328 24.18C55.5493 24.5213 54.6693 24.692 53.688 24.692ZM65.1195 24.5V22.82L64.9595 22.452V19.444C64.9595 18.9107 64.7942 18.4947 64.4635 18.196C64.1435 17.8973 63.6475 17.748 62.9755 17.748C62.5168 17.748 62.0635 17.8227 61.6155 17.972C61.1782 18.1107 60.8048 18.3027 60.4955 18.548L59.5995 16.804C60.0688 16.4733 60.6342 16.2173 61.2955 16.036C61.9568 15.8547 62.6288 15.764 63.3115 15.764C64.6235 15.764 65.6422 16.0733 66.3675 16.692C67.0928 17.3107 67.4555 18.276 67.4555 19.588V24.5H65.1195ZM62.4955 24.628C61.8235 24.628 61.2475 24.516 60.7675 24.292C60.2875 24.0573 59.9195 23.7427 59.6635 23.348C59.4075 22.9533 59.2795 22.5107 59.2795 22.02C59.2795 21.508 59.4022 21.06 59.6475 20.676C59.9035 20.292 60.3035 19.9933 60.8475 19.78C61.3915 19.556 62.1008 19.444 62.9755 19.444H65.2635V20.9H63.2475C62.6608 20.9 62.2555 20.996 62.0315 21.188C61.8182 21.38 61.7115 21.62 61.7115 21.908C61.7115 22.228 61.8342 22.484 62.0795 22.676C62.3355 22.8573 62.6822 22.948 63.1195 22.948C63.5355 22.948 63.9088 22.852 64.2395 22.66C64.5702 22.4573 64.8102 22.164 64.9595 21.78L65.3435 22.932C65.1622 23.4867 64.8315 23.908 64.3515 24.196C63.8715 24.484 63.2528 24.628 62.4955 24.628ZM74.9465 15.764C75.6292 15.764 76.2372 15.9027 76.7705 16.18C77.3145 16.4467 77.7412 16.8627 78.0505 17.428C78.3598 17.9827 78.5145 18.6973 78.5145 19.572V24.5H76.0185V19.956C76.0185 19.2627 75.8638 18.7507 75.5545 18.42C75.2558 18.0893 74.8292 17.924 74.2745 17.924C73.8798 17.924 73.5225 18.0093 73.2025 18.18C72.8932 18.34 72.6478 18.5907 72.4665 18.932C72.2958 19.2733 72.2105 19.7107 72.2105 20.244V24.5H69.7145V15.892H72.0985V18.276L71.6505 17.556C71.9598 16.98 72.4025 16.5373 72.9785 16.228C73.5545 15.9187 74.2105 15.764 74.9465 15.764ZM84.9995 24.628C84.0715 24.628 83.2448 24.4413 82.5195 24.068C81.7942 23.684 81.2235 23.156 80.8075 22.484C80.4022 21.812 80.1995 21.0493 80.1995 20.196C80.1995 19.332 80.4022 18.5693 80.8075 17.908C81.2235 17.236 81.7942 16.7133 82.5195 16.34C83.2448 15.956 84.0715 15.764 84.9995 15.764C85.9062 15.764 86.6955 15.956 87.3675 16.34C88.0395 16.7133 88.5355 17.252 88.8555 17.956L86.9195 18.996C86.6955 18.5907 86.4128 18.292 86.0715 18.1C85.7408 17.908 85.3782 17.812 84.9835 17.812C84.5568 17.812 84.1728 17.908 83.8315 18.1C83.4902 18.292 83.2182 18.564 83.0155 18.916C82.8235 19.268 82.7275 19.6947 82.7275 20.196C82.7275 20.6973 82.8235 21.124 83.0155 21.476C83.2182 21.828 83.4902 22.1 83.8315 22.292C84.1728 22.484 84.5568 22.58 84.9835 22.58C85.3782 22.58 85.7408 22.4893 86.0715 22.308C86.4128 22.116 86.6955 21.812 86.9195 21.396L88.8555 22.452C88.5355 23.1453 88.0395 23.684 87.3675 24.068C86.6955 24.4413 85.9062 24.628 84.9995 24.628ZM94.4553 24.628C93.4739 24.628 92.6099 24.436 91.8633 24.052C91.1273 23.668 90.5566 23.1453 90.1513 22.484C89.7459 21.812 89.5433 21.0493 89.5433 20.196C89.5433 19.332 89.7406 18.5693 90.1353 17.908C90.5406 17.236 91.0899 16.7133 91.7833 16.34C92.4766 15.956 93.2606 15.764 94.1353 15.764C94.9779 15.764 95.7353 15.9453 96.4073 16.308C97.0899 16.66 97.6286 17.172 98.0233 17.844C98.4179 18.5053 98.6153 19.3 98.6153 20.228C98.6153 20.324 98.6099 20.436 98.5993 20.564C98.5886 20.6813 98.5779 20.7933 98.5673 20.9H91.5753V19.444H97.2552L96.2953 19.876C96.2953 19.428 96.2046 19.0387 96.0233 18.708C95.8419 18.3773 95.5913 18.1213 95.2713 17.94C94.9513 17.748 94.5779 17.652 94.1513 17.652C93.7246 17.652 93.3459 17.748 93.0153 17.94C92.6953 18.1213 92.4446 18.3827 92.2633 18.724C92.0819 19.0547 91.9913 19.4493 91.9913 19.908V20.292C91.9913 20.7613 92.0926 21.1773 92.2953 21.54C92.5086 21.892 92.8019 22.164 93.1753 22.356C93.5593 22.5373 94.0073 22.628 94.5193 22.628C94.9779 22.628 95.3779 22.5587 95.7193 22.42C96.0713 22.2813 96.3913 22.0733 96.6793 21.796L98.0073 23.236C97.6126 23.684 97.1166 24.0307 96.5193 24.276C95.9219 24.5107 95.2339 24.628 94.4553 24.628ZM100.277 24.5V12.628H102.773V24.5H100.277Z" fill="black"/>
</svg>
