<svg width="16" height="16" viewBox="0 0 16 16" fill="none" xmlns="http://www.w3.org/2000/svg">
<g clip-path="url(#clip0_233_243)">
<path d="M8.00028 1.77777C5.75584 1.77777 3.95862 2.79999 2.65028 4.01666C1.35028 5.22222 0.480838 6.66666 0.0697266 7.65833C-0.0219401 7.87777 -0.0219401 8.12222 0.0697266 8.34166C0.480838 9.33333 1.35028 10.7778 2.65028 11.9833C3.95862 13.2 5.75584 14.2222 8.00028 14.2222C10.2447 14.2222 12.0419 13.2 13.3503 11.9833C14.6503 10.775 15.5197 9.33333 15.9336 8.34166C16.0253 8.12222 16.0253 7.87777 15.9336 7.65833C15.5197 6.66666 14.6503 5.22222 13.3503 4.01666C12.0419 2.79999 10.2447 1.77777 8.00028 1.77777ZM4.00028 7.99999C4.00028 6.93913 4.42171 5.92171 5.17185 5.17157C5.922 4.42142 6.93942 3.99999 8.00028 3.99999C9.06115 3.99999 10.0786 4.42142 10.8287 5.17157C11.5789 5.92171 12.0003 6.93913 12.0003 7.99999C12.0003 9.06086 11.5789 10.0783 10.8287 10.8284C10.0786 11.5786 9.06115 12 8.00028 12C6.93942 12 5.922 11.5786 5.17185 10.8284C4.42171 10.0783 4.00028 9.06086 4.00028 7.99999ZM8.00028 6.22222C8.00028 7.20277 7.20306 7.99999 6.2225 7.99999C6.02528 7.99999 5.83639 7.96666 5.65862 7.90833C5.50584 7.85833 5.32806 7.95277 5.33362 8.11388C5.34195 8.30555 5.36973 8.49722 5.4225 8.68888C5.80306 10.1111 7.26695 10.9555 8.68917 10.575C10.1114 10.1944 10.9558 8.73055 10.5753 7.30833C10.2669 6.15555 9.24751 5.38055 8.11417 5.33333C7.95306 5.32777 7.85862 5.50277 7.90862 5.65833C7.96695 5.8361 8.00028 6.02499 8.00028 6.22222Z" fill="#7F7F7F"/>
</g>
<defs>
<clipPath id="clip0_233_243">
<rect width="16" height="16" fill="white"/>
</clipPath>
</defs>
</svg>
