<svg width="25" height="21" viewBox="0 0 25 21" fill="none" xmlns="http://www.w3.org/2000/svg">
<path d="M3.88965 17.25C3.88965 17.6719 4.21777 18 4.63965 18H23.3896C24.1865 18 24.8896 18.7031 24.8896 19.5C24.8896 20.3438 24.1865 21 23.3896 21H4.63965C2.53027 21 0.889648 19.3594 0.889648 17.25V1.5C0.889648 0.703125 1.5459 0 2.38965 0C3.18652 0 3.88965 0.703125 3.88965 1.5V17.25ZM16.9209 11.5781C16.3584 12.1875 15.374 12.1875 14.8115 11.5781L12.1396 8.90625L7.9209 13.0781C7.3584 13.6875 6.37402 13.6875 5.81152 13.0781C5.20215 12.5156 5.20215 11.5312 5.81152 10.9688L11.0615 5.71875C11.624 5.10938 12.6084 5.10938 13.1709 5.71875L15.8896 8.39062L20.8115 3.46875C21.374 2.85938 22.3584 2.85938 22.9209 3.46875C23.5303 4.03125 23.5303 5.01562 22.9209 5.57812L16.9209 11.5781Z" fill="white"/>
</svg>
