<svg width="25" height="25" viewBox="0 0 25 25" fill="none" xmlns="http://www.w3.org/2000/svg">
<path d="M12.9443 0.5C19.5537 0.5 24.9443 5.89062 24.9443 12.5C24.9443 19.1562 19.5537 24.5 12.9443 24.5C10.3662 24.5 8.02246 23.7031 6.05371 22.3906C5.39746 21.875 5.20996 20.9375 5.67871 20.2812C6.14746 19.5781 7.08496 19.4375 7.78809 19.9062C9.24121 20.9375 11.0225 21.5 12.9443 21.5C17.9131 21.5 21.9443 17.4688 21.9443 12.5C21.9443 7.53125 17.9131 3.5 12.9443 3.5C10.4131 3.5 8.20996 4.53125 6.56934 6.17188L8.02246 7.57812C8.72559 8.32812 8.20996 9.5 7.22559 9.5H2.06934C1.41309 9.5 0.944336 9.03125 0.944336 8.375V3.21875C0.944336 2.23438 2.11621 1.71875 2.81934 2.42188L4.41309 4.01562C6.61621 1.85938 9.61621 0.5 12.8975 0.5H12.9443ZM12.9443 6.5C13.5537 6.5 14.0693 7.01562 14.0693 7.625V12.0781L17.0693 15.0781C17.5381 15.5469 17.5381 16.25 17.0693 16.6719C16.6475 17.1406 15.9443 17.1406 15.5225 16.6719L12.1475 13.2969C11.9131 13.1094 11.8193 12.8281 11.8193 12.5V7.625C11.8193 7.01562 12.2881 6.5 12.9443 6.5Z" fill="white"/>
</svg>
