<svg width="42" height="42" viewBox="0 0 42 42" fill="none" xmlns="http://www.w3.org/2000/svg">
<circle cx="21" cy="21" r="20.5" stroke="#A1A5AD"/>
<path d="M13.0156 12.5156C15.1719 10.3594 18.1719 9 21.5 9C28.1094 9 33.5 14.3906 33.5 21C33.5 27.6562 28.1094 33 21.5 33C18.9219 33 16.5781 32.2031 14.6094 30.8906C13.9531 30.375 13.7656 29.4375 14.2344 28.7812C14.7031 28.0781 15.6406 27.9375 16.3438 28.4062C17.7969 29.4375 19.5781 30 21.5 30C26.4688 30 30.5 25.9688 30.5 21C30.5 16.0312 26.4688 12 21.5 12C19.0156 12 16.7656 13.0312 15.125 14.6719L16.5781 16.0781C17.2812 16.8281 16.7656 18 15.7812 18H10.625C9.96875 18 9.5 17.5312 9.5 16.875V11.7188C9.5 10.7344 10.6719 10.2188 11.4219 10.9219L13.0156 12.5156ZM21.5 15H21.4531C22.1094 15 22.5781 15.5156 22.5781 16.125V20.5781L25.625 23.625C26.0938 24.0469 26.0938 24.75 25.625 25.1719C25.2031 25.6406 24.5 25.6406 24.0781 25.1719L20.7031 21.7969C20.4688 21.6094 20.375 21.3281 20.375 21V16.125C20.375 15.5156 20.8438 15 21.5 15Z" fill="#A1A5AD"/>
</svg>
