<svg width="101" height="24" viewBox="0 0 101 24" fill="none" xmlns="http://www.w3.org/2000/svg">
<rect width="101" height="24" rx="12" fill="#AB3428" fill-opacity="0.35"/>
<path d="M15.7901 11.312H21.1821V13.328H15.7901V11.312ZM15.9821 15.92H22.0781V18H13.4061V6.8H21.8701V8.88H15.9821V15.92ZM22.7511 18L27.5671 11.36V13.248L22.9591 6.8H25.9031L29.0871 11.296L27.8551 11.312L30.9911 6.8H33.8071L29.2311 13.136V11.28L34.0791 18H31.0871L27.7911 13.248H28.9751L25.7271 18H22.7511ZM35.0936 18V6.8H39.9416C40.9443 6.8 41.8083 6.96533 42.5336 7.296C43.259 7.616 43.819 8.08 44.2136 8.688C44.6083 9.296 44.8056 10.0213 44.8056 10.864C44.8056 11.696 44.6083 12.416 44.2136 13.024C43.819 13.632 43.259 14.1013 42.5336 14.432C41.8083 14.752 40.9443 14.912 39.9416 14.912H36.5336L37.6856 13.744V18H35.0936ZM37.6856 14.032L36.5336 12.8H39.7976C40.5976 12.8 41.195 12.6293 41.5896 12.288C41.9843 11.9467 42.1816 11.472 42.1816 10.864C42.1816 10.2453 41.9843 9.76533 41.5896 9.424C41.195 9.08267 40.5976 8.912 39.7976 8.912H36.5336L37.6856 7.68V14.032ZM49.0401 11.312H54.4321V13.328H49.0401V11.312ZM49.2321 15.92H55.3281V18H46.6561V6.8H55.1201V8.88H49.2321V15.92ZM57.3905 18V6.8H59.5345L66.1425 14.864H65.1025V6.8H67.6625V18H65.5345L58.9105 9.936H59.9505V18H57.3905ZM73.9924 18.192C73.0964 18.192 72.2377 18.0747 71.4164 17.84C70.595 17.5947 69.9337 17.28 69.4324 16.896L70.3124 14.944C70.7924 15.2853 71.3577 15.568 72.0084 15.792C72.6697 16.0053 73.3364 16.112 74.0084 16.112C74.5204 16.112 74.931 16.064 75.2404 15.968C75.5604 15.8613 75.795 15.7173 75.9444 15.536C76.0937 15.3547 76.1684 15.1467 76.1684 14.912C76.1684 14.6133 76.051 14.3787 75.8164 14.208C75.5817 14.0267 75.2724 13.8827 74.8884 13.776C74.5044 13.6587 74.0777 13.552 73.6084 13.456C73.1497 13.3493 72.6857 13.2213 72.2164 13.072C71.7577 12.9227 71.3364 12.7307 70.9524 12.496C70.5684 12.2613 70.2537 11.952 70.0084 11.568C69.7737 11.184 69.6564 10.6933 69.6564 10.096C69.6564 9.456 69.827 8.87467 70.1684 8.352C70.5204 7.81867 71.043 7.39733 71.7364 7.088C72.4404 6.768 73.3204 6.608 74.3764 6.608C75.0804 6.608 75.7737 6.69333 76.4564 6.864C77.139 7.024 77.7417 7.26933 78.2644 7.6L77.4644 9.568C76.9417 9.26933 76.419 9.05067 75.8964 8.912C75.3737 8.76267 74.8617 8.688 74.3604 8.688C73.859 8.688 73.4484 8.74667 73.1284 8.864C72.8084 8.98133 72.579 9.136 72.4404 9.328C72.3017 9.50933 72.2324 9.72267 72.2324 9.968C72.2324 10.256 72.3497 10.4907 72.5844 10.672C72.819 10.8427 73.1284 10.9813 73.5124 11.088C73.8964 11.1947 74.3177 11.3013 74.7764 11.408C75.2457 11.5147 75.7097 11.6373 76.1684 11.776C76.6377 11.9147 77.0644 12.1013 77.4484 12.336C77.8324 12.5707 78.1417 12.88 78.3764 13.264C78.6217 13.648 78.7444 14.1333 78.7444 14.72C78.7444 15.3493 78.5684 15.9253 78.2164 16.448C77.8644 16.9707 77.3364 17.392 76.6324 17.712C75.939 18.032 75.059 18.192 73.9924 18.192ZM82.8995 11.312H88.2915V13.328H82.8995V11.312ZM83.0915 15.92H89.1875V18H80.5155V6.8H88.9795V8.88H83.0915V15.92Z" fill="#AB3428"/>
</svg>
