<svg width="93" height="24" viewBox="0 0 93 24" fill="none" xmlns="http://www.w3.org/2000/svg">
<rect width="93" height="24" rx="12" fill="#4FBA74" fill-opacity="0.3"/>
<path d="M13.7343 18V6.8H16.3263V18H13.7343ZM18.9843 18V6.8H21.1283L27.7363 14.864H26.6962V6.8H29.2563V18H27.1283L20.5043 9.936H21.5443V18H18.9843ZM37.2661 18.192C36.4021 18.192 35.5968 18.0533 34.8501 17.776C34.1141 17.488 33.4741 17.0827 32.9301 16.56C32.3861 16.0373 31.9595 15.424 31.6501 14.72C31.3515 14.016 31.2021 13.2427 31.2021 12.4C31.2021 11.5573 31.3515 10.784 31.6501 10.08C31.9595 9.376 32.3861 8.76267 32.9301 8.24C33.4848 7.71733 34.1301 7.31733 34.8661 7.04C35.6021 6.752 36.4075 6.608 37.2821 6.608C38.2528 6.608 39.1275 6.77867 39.9061 7.12C40.6955 7.45067 41.3568 7.94133 41.8901 8.592L40.2261 10.128C39.8421 9.69067 39.4155 9.36533 38.9461 9.152C38.4768 8.928 37.9648 8.816 37.4101 8.816C36.8875 8.816 36.4075 8.90133 35.9701 9.072C35.5328 9.24267 35.1541 9.488 34.8341 9.808C34.5141 10.128 34.2635 10.5067 34.0821 10.944C33.9115 11.3813 33.8261 11.8667 33.8261 12.4C33.8261 12.9333 33.9115 13.4187 34.0821 13.856C34.2635 14.2933 34.5141 14.672 34.8341 14.992C35.1541 15.312 35.5328 15.5573 35.9701 15.728C36.4075 15.8987 36.8875 15.984 37.4101 15.984C37.9648 15.984 38.4768 15.8773 38.9461 15.664C39.4155 15.44 39.8421 15.104 40.2261 14.656L41.8901 16.192C41.3568 16.8427 40.6955 17.3387 39.9061 17.68C39.1275 18.0213 38.2475 18.192 37.2661 18.192ZM48.8461 18.192C47.9608 18.192 47.1395 18.048 46.3821 17.76C45.6355 17.472 44.9848 17.0667 44.4301 16.544C43.8861 16.0213 43.4595 15.408 43.1501 14.704C42.8515 14 42.7021 13.232 42.7021 12.4C42.7021 11.568 42.8515 10.8 43.1501 10.096C43.4595 9.392 43.8915 8.77867 44.4461 8.256C45.0008 7.73333 45.6515 7.328 46.3981 7.04C47.1448 6.752 47.9555 6.608 48.8301 6.608C49.7155 6.608 50.5261 6.752 51.2621 7.04C52.0088 7.328 52.6541 7.73333 53.1981 8.256C53.7528 8.77867 54.1848 9.392 54.4941 10.096C54.8035 10.7893 54.9581 11.5573 54.9581 12.4C54.9581 13.232 54.8035 14.0053 54.4941 14.72C54.1848 15.424 53.7528 16.0373 53.1981 16.56C52.6541 17.072 52.0088 17.472 51.2621 17.76C50.5261 18.048 49.7208 18.192 48.8461 18.192ZM48.8301 15.984C49.3315 15.984 49.7901 15.8987 50.2061 15.728C50.6328 15.5573 51.0061 15.312 51.3261 14.992C51.6461 14.672 51.8915 14.2933 52.0621 13.856C52.2435 13.4187 52.3341 12.9333 52.3341 12.4C52.3341 11.8667 52.2435 11.3813 52.0621 10.944C51.8915 10.5067 51.6461 10.128 51.3261 9.808C51.0168 9.488 50.6488 9.24267 50.2221 9.072C49.7955 8.90133 49.3315 8.816 48.8301 8.816C48.3288 8.816 47.8648 8.90133 47.4381 9.072C47.0221 9.24267 46.6541 9.488 46.3341 9.808C46.0141 10.128 45.7635 10.5067 45.5821 10.944C45.4115 11.3813 45.3261 11.8667 45.3261 12.4C45.3261 12.9227 45.4115 13.408 45.5821 13.856C45.7635 14.2933 46.0088 14.672 46.3181 14.992C46.6381 15.312 47.0115 15.5573 47.4381 15.728C47.8648 15.8987 48.3288 15.984 48.8301 15.984ZM56.9061 18V6.8H59.0501L63.8181 14.704H62.6821L67.3701 6.8H69.4981L69.5301 18H67.0981L67.0821 10.528H67.5301L63.7861 16.816H62.6181L58.7941 10.528H59.3381V18H56.9061ZM74.5714 11.312H79.9634V13.328H74.5714V11.312ZM74.7634 15.92H80.8594V18H72.1874V6.8H80.6514V8.88H74.7634V15.92Z" fill="#4FBA74"/>
</svg>
