<svg width="27" height="25" viewBox="0 0 27 25" fill="none" xmlns="http://www.w3.org/2000/svg">
<path d="M26.9512 12.5C26.9512 13.3438 26.248 14 25.4512 14H23.9512L23.998 21.5C23.998 21.6406 23.998 21.7812 23.998 21.875V22.625C23.998 23.7031 23.1543 24.5 22.123 24.5H21.373C21.2793 24.5 21.2324 24.5 21.1855 24.5C21.1387 24.5 21.0449 24.5 20.998 24.5H18.373C17.2949 24.5 16.498 23.7031 16.498 22.625V18.5C16.498 17.7031 15.7949 17 14.998 17H11.998C11.1543 17 10.498 17.7031 10.498 18.5V22.625C10.498 23.7031 9.6543 24.5 8.62305 24.5H5.99805C5.9043 24.5 5.85742 24.5 5.76367 24.5C5.7168 24.5 5.66992 24.5 5.62305 24.5H4.87305C3.79492 24.5 2.99805 23.7031 2.99805 22.625V17.375C2.99805 17.375 2.99805 17.3281 2.99805 17.2812V14H1.49805C0.654297 14 -0.00195312 13.3438 -0.00195312 12.5C-0.00195312 12.0781 0.138672 11.7031 0.466797 11.375L12.4668 0.921875C12.7949 0.59375 13.1699 0.5 13.498 0.5C13.8262 0.5 14.2012 0.640625 14.4824 0.875L26.4355 11.375C26.8105 11.7031 26.998 12.0781 26.9512 12.5Z" fill="white"/>
</svg>
