<svg width="45" height="45" viewBox="0 0 45 45" fill="none" xmlns="http://www.w3.org/2000/svg">
<path d="M3.93678 39.3733H11.5921C11.6458 40.2865 11.7533 42.3226 11.7533 43.1607C12.2045 44.1276 12.8546 43.5636 13.1232 43.1607C15.4601 37.6273 20.3272 26.19 21.1008 24.7073C21.8744 23.2246 21.262 22.9076 20.8591 22.9345H15.2183C17.8775 17.5623 23.3088 6.60846 23.7601 5.7704C24.2113 4.93235 23.572 4.77655 23.196 4.80341H3.3727C2.59374 4.91086 1.03581 5.577 1.03581 7.38205C1.03581 9.63836 0.955232 33.4102 1.03581 36.3917C1.10028 38.777 2.99665 39.3733 3.93678 39.3733Z" fill="#4FBA74"/>
<path d="M22.3096 18.5024H28.8367C25.5597 24.6536 18.8768 37.1976 18.361 38.1646C18.1676 39.0671 18.6028 39.2927 18.8445 39.2927H41.7299C43.7928 39.0348 44.416 37.1976 44.4697 36.3112V25.2714C44.4697 24.6267 44.0937 24.4655 43.9057 24.4655H34.4775C31.6571 23.1762 32.3824 20.3558 34.4775 19.55H43.9057C44.4214 19.55 44.4966 19.0665 44.4697 18.8248V8.26847C44.4697 5.88323 42.6432 4.96458 41.7299 4.80341H31.496V1.58012C31.0447 0.613132 30.3947 1.06977 30.1261 1.41896C27.44 6.54937 21.9872 16.9552 21.6649 17.5354C21.4715 18.1801 22.0141 18.4487 22.3096 18.5024Z" fill="#4FBA74"/>
<path d="M3.93678 39.3733H11.5921C11.6458 40.2865 11.7533 42.3226 11.7533 43.1607C12.2045 44.1276 12.8546 43.5636 13.1232 43.1607C15.4601 37.6273 20.3272 26.19 21.1008 24.7073C21.8744 23.2246 21.262 22.9076 20.8591 22.9345H15.2183C17.8775 17.5623 23.3088 6.60846 23.7601 5.7704C24.2113 4.93235 23.572 4.77655 23.196 4.80341H3.3727C2.59374 4.91086 1.03581 5.577 1.03581 7.38205C1.03581 9.63836 0.955232 33.4102 1.03581 36.3917C1.10028 38.777 2.99665 39.3733 3.93678 39.3733Z" stroke="#4FBA74"/>
<path d="M22.3096 18.5024H28.8367C25.5597 24.6536 18.8768 37.1976 18.361 38.1646C18.1676 39.0671 18.6028 39.2927 18.8445 39.2927H41.7299C43.7928 39.0348 44.416 37.1976 44.4697 36.3112V25.2714C44.4697 24.6267 44.0937 24.4655 43.9057 24.4655H34.4775C31.6571 23.1762 32.3824 20.3558 34.4775 19.55H43.9057C44.4214 19.55 44.4966 19.0665 44.4697 18.8248V8.26847C44.4697 5.88323 42.6432 4.96458 41.7299 4.80341H31.496V1.58012C31.0447 0.613132 30.3947 1.06977 30.1261 1.41896C27.44 6.54937 21.9872 16.9552 21.6649 17.5354C21.4715 18.1801 22.0141 18.4487 22.3096 18.5024Z" stroke="#4FBA74"/>
<circle cx="35.2835" cy="22.0481" r="1.69223" fill="#1B8449"/>
</svg>
