<svg width="311" height="30" viewBox="0 0 311 30" fill="none" xmlns="http://www.w3.org/2000/svg">
<path d="M8.75 24.25C6.64062 24.25 5 22.5703 5 20.5V10.5C5 8.42969 6.64062 6.75 8.75 6.75H11.25C11.9141 6.75 12.5 7.33594 12.5 8C12.5 8.70312 11.9141 9.25 11.25 9.25H8.75C8.04688 9.25 7.5 9.83594 7.5 10.5V20.5C7.5 21.2031 8.04688 21.75 8.75 21.75H11.25C11.9141 21.75 12.5 22.3359 12.5 23C12.5 23.7031 11.9141 24.25 11.25 24.25H8.75ZM24.6875 14.8359C25.0781 15.1875 25.0781 15.8516 24.6875 16.1641L19.0625 21.4766C18.7891 21.75 18.3984 21.7891 18.0469 21.6719C17.6953 21.5156 17.5 21.1641 17.5 20.8125V18H12.5C11.7969 18 11.25 17.4531 11.25 16.75V14.25C11.25 13.5859 11.7969 13 12.5 13H17.5V10.1875C17.5 9.83594 17.6953 9.48438 18.0469 9.32812C18.3984 9.21094 18.7891 9.25 19.0625 9.52344L24.6875 14.8359Z" fill="black"/>
<path d="M37.4686 21V9.8H40.0606V18.888H45.6766V21H37.4686ZM50.998 21.128C50.0807 21.128 49.2647 20.936 48.55 20.552C47.846 20.168 47.286 19.6453 46.87 18.984C46.4647 18.312 46.262 17.5493 46.262 16.696C46.262 15.832 46.4647 15.0693 46.87 14.408C47.286 13.736 47.846 13.2133 48.55 12.84C49.2647 12.456 50.0807 12.264 50.998 12.264C51.9047 12.264 52.7153 12.456 53.43 12.84C54.1447 13.2133 54.7047 13.7307 55.11 14.392C55.5153 15.0533 55.718 15.8213 55.718 16.696C55.718 17.5493 55.5153 18.312 55.11 18.984C54.7047 19.6453 54.1447 20.168 53.43 20.552C52.7153 20.936 51.9047 21.128 50.998 21.128ZM50.998 19.08C51.414 19.08 51.7873 18.984 52.118 18.792C52.4487 18.6 52.71 18.328 52.902 17.976C53.094 17.6133 53.19 17.1867 53.19 16.696C53.19 16.1947 53.094 15.768 52.902 15.416C52.71 15.064 52.4487 14.792 52.118 14.6C51.7873 14.408 51.414 14.312 50.998 14.312C50.582 14.312 50.2087 14.408 49.878 14.6C49.5473 14.792 49.2807 15.064 49.078 15.416C48.886 15.768 48.79 16.1947 48.79 16.696C48.79 17.1867 48.886 17.6133 49.078 17.976C49.2807 18.328 49.5473 18.6 49.878 18.792C50.2087 18.984 50.582 19.08 50.998 19.08ZM61.4344 24.232C60.6237 24.232 59.8397 24.1307 59.0824 23.928C58.3357 23.736 57.7117 23.4427 57.2104 23.048L58.2024 21.256C58.565 21.5547 59.0237 21.7893 59.5784 21.96C60.1437 22.1413 60.6984 22.232 61.2424 22.232C62.1277 22.232 62.7677 22.0347 63.1624 21.64C63.5677 21.2453 63.7704 20.6587 63.7704 19.88V18.584L63.9304 16.424L63.8984 14.248V12.392H66.2664V19.56C66.2664 21.16 65.8504 22.3387 65.0184 23.096C64.1864 23.8533 62.9917 24.232 61.4344 24.232ZM61.0504 20.584C60.2504 20.584 59.525 20.4133 58.8744 20.072C58.2344 19.72 57.717 19.2347 57.3224 18.616C56.9384 17.9867 56.7464 17.256 56.7464 16.424C56.7464 15.5813 56.9384 14.8507 57.3224 14.232C57.717 13.6027 58.2344 13.1173 58.8744 12.776C59.525 12.4347 60.2504 12.264 61.0504 12.264C61.7757 12.264 62.4157 12.4133 62.9704 12.712C63.525 13 63.957 13.4533 64.2664 14.072C64.5757 14.68 64.7304 15.464 64.7304 16.424C64.7304 17.3733 64.5757 18.1573 64.2664 18.776C63.957 19.384 63.525 19.8373 62.9704 20.136C62.4157 20.4347 61.7757 20.584 61.0504 20.584ZM61.5464 18.536C61.9837 18.536 62.373 18.4507 62.7144 18.28C63.0557 18.0987 63.3224 17.848 63.5144 17.528C63.7064 17.208 63.8024 16.84 63.8024 16.424C63.8024 15.9973 63.7064 15.6293 63.5144 15.32C63.3224 15 63.0557 14.7547 62.7144 14.584C62.373 14.4027 61.9837 14.312 61.5464 14.312C61.109 14.312 60.7197 14.4027 60.3784 14.584C60.037 14.7547 59.765 15 59.5624 15.32C59.3704 15.6293 59.2744 15.9973 59.2744 16.424C59.2744 16.84 59.3704 17.208 59.5624 17.528C59.765 17.848 60.037 18.0987 60.3784 18.28C60.7197 18.4507 61.109 18.536 61.5464 18.536ZM72.6855 21.128C71.7682 21.128 70.9522 20.936 70.2375 20.552C69.5335 20.168 68.9735 19.6453 68.5575 18.984C68.1522 18.312 67.9495 17.5493 67.9495 16.696C67.9495 15.832 68.1522 15.0693 68.5575 14.408C68.9735 13.736 69.5335 13.2133 70.2375 12.84C70.9522 12.456 71.7682 12.264 72.6855 12.264C73.5922 12.264 74.4028 12.456 75.1175 12.84C75.8322 13.2133 76.3922 13.7307 76.7975 14.392C77.2028 15.0533 77.4055 15.8213 77.4055 16.696C77.4055 17.5493 77.2028 18.312 76.7975 18.984C76.3922 19.6453 75.8322 20.168 75.1175 20.552C74.4028 20.936 73.5922 21.128 72.6855 21.128ZM72.6855 19.08C73.1015 19.08 73.4748 18.984 73.8055 18.792C74.1362 18.6 74.3975 18.328 74.5895 17.976C74.7815 17.6133 74.8775 17.1867 74.8775 16.696C74.8775 16.1947 74.7815 15.768 74.5895 15.416C74.3975 15.064 74.1362 14.792 73.8055 14.6C73.4748 14.408 73.1015 14.312 72.6855 14.312C72.2695 14.312 71.8962 14.408 71.5655 14.6C71.2348 14.792 70.9682 15.064 70.7655 15.416C70.5735 15.768 70.4775 16.1947 70.4775 16.696C70.4775 17.1867 70.5735 17.6133 70.7655 17.976C70.9682 18.328 71.2348 18.6 71.5655 18.792C71.8962 18.984 72.2695 19.08 72.6855 19.08ZM82.7059 21.128C81.9912 21.128 81.3512 20.9893 80.7859 20.712C80.2312 20.4347 79.7992 20.0133 79.4899 19.448C79.1805 18.872 79.0259 18.1413 79.0259 17.256V12.392H81.5219V16.888C81.5219 17.6027 81.6712 18.1307 81.9699 18.472C82.2792 18.8027 82.7112 18.968 83.2659 18.968C83.6499 18.968 83.9912 18.888 84.2899 18.728C84.5885 18.5573 84.8232 18.3013 84.9939 17.96C85.1645 17.608 85.2499 17.1707 85.2499 16.648V12.392H87.7459V21H85.3779V18.632L85.8099 19.32C85.5219 19.9173 85.0952 20.3707 84.5299 20.68C83.9752 20.9787 83.3672 21.128 82.7059 21.128ZM93.5783 21.128C92.5649 21.128 91.7756 20.872 91.2103 20.36C90.6449 19.8373 90.3623 19.064 90.3623 18.04V10.488H92.8583V18.008C92.8583 18.3707 92.9543 18.6533 93.1463 18.856C93.3383 19.048 93.5996 19.144 93.9303 19.144C94.3249 19.144 94.6609 19.0373 94.9383 18.824L95.6103 20.584C95.3543 20.7653 95.0449 20.904 94.6823 21C94.3303 21.0853 93.9623 21.128 93.5783 21.128ZM89.0343 14.504V12.584H95.0023V14.504H89.0343Z" fill="black"/>
<path d="M301.859 14.6406C302.367 15.1094 302.367 15.9297 301.859 16.3984L294.359 23.8984C293.891 24.4062 293.07 24.4062 292.602 23.8984C292.094 23.4297 292.094 22.6094 292.602 22.1406L299.203 15.5L292.602 8.89844C292.094 8.42969 292.094 7.60938 292.602 7.14062C293.07 6.63281 293.891 6.63281 294.359 7.14062L301.859 14.6406Z" fill="black"/>
</svg>
