<svg width="42" height="42" viewBox="0 0 42 42" fill="none" xmlns="http://www.w3.org/2000/svg">
<circle cx="21" cy="21" r="20.5" stroke="#A1A5AD"/>
<path d="M11 12.75C11 11.5312 11.9844 10.5 13.25 10.5H17.75C18.9688 10.5 20 11.5312 20 12.75V17.25C20 18.5156 18.9688 19.5 17.75 19.5H13.25C11.9844 19.5 11 18.5156 11 17.25V12.75ZM14 13.5V16.5H17V13.5H14ZM11 24.75C11 23.5312 11.9844 22.5 13.25 22.5H17.75C18.9688 22.5 20 23.5312 20 24.75V29.25C20 30.5156 18.9688 31.5 17.75 31.5H13.25C11.9844 31.5 11 30.5156 11 29.25V24.75ZM14 25.5V28.5H17V25.5H14ZM25.25 10.5H29.75C30.9688 10.5 32 11.5312 32 12.75V17.25C32 18.5156 30.9688 19.5 29.75 19.5H25.25C23.9844 19.5 23 18.5156 23 17.25V12.75C23 11.5312 23.9844 10.5 25.25 10.5ZM29 13.5H26V16.5H29V13.5ZM23 23.25C23 22.875 23.3281 22.5 23.75 22.5H26.75C27.125 22.5 27.5 22.875 27.5 23.25C27.5 23.6719 27.8281 24 28.25 24H29.75C30.125 24 30.5 23.6719 30.5 23.25C30.5 22.875 30.8281 22.5 31.25 22.5C31.625 22.5 32 22.875 32 23.25V27.75C32 28.1719 31.625 28.5 31.25 28.5H28.25C27.8281 28.5 27.5 28.1719 27.5 27.75C27.5 27.375 27.125 27 26.75 27C26.3281 27 26 27.375 26 27.75V30.75C26 31.1719 25.625 31.5 25.25 31.5H23.75C23.3281 31.5 23 31.1719 23 30.75V23.25ZM28.25 31.5C27.8281 31.5 27.5 31.1719 27.5 30.75C27.5 30.375 27.8281 30 28.25 30C28.625 30 29 30.375 29 30.75C29 31.1719 28.625 31.5 28.25 31.5ZM31.25 31.5C30.8281 31.5 30.5 31.1719 30.5 30.75C30.5 30.375 30.8281 30 31.25 30C31.625 30 32 30.375 32 30.75C32 31.1719 31.625 31.5 31.25 31.5Z" fill="#A1A5AD"/>
</svg>
