<svg width="148" height="30" viewBox="0 0 148 30" fill="none" xmlns="http://www.w3.org/2000/svg">
<rect width="148" height="30" rx="5" fill="#4FBA74"/>
<path d="M13.1562 9.03125C13.3438 8.4375 13.9062 8 14.5625 8H18.4062C19.0625 8 19.625 8.4375 19.8125 9.03125L20.1562 10H22.5C23.5938 10 24.5 10.9062 24.5 12V20C24.5 21.125 23.5938 22 22.5 22H10.5C9.375 22 8.5 21.125 8.5 20V12C8.5 10.9062 9.375 10 10.5 10H12.8125L13.1562 9.03125ZM16.5 13C15.4062 13 14.4375 13.5938 13.875 14.5C13.3438 15.4375 13.3438 16.5938 13.875 17.5C14.4375 18.4375 15.4062 19 16.5 19C17.5625 19 18.5312 18.4375 19.0938 17.5C19.625 16.5938 19.625 15.4375 19.0938 14.5C18.5312 13.5938 17.5625 13 16.5 13Z" fill="white"/>
<path d="M36.22 21.096C35.1107 21.096 34.1027 20.8507 33.196 20.36C32.3 19.8587 31.596 19.176 31.084 18.312C30.5827 17.448 30.332 16.4773 30.332 15.4C30.332 14.3227 30.5827 13.352 31.084 12.488C31.596 11.624 32.3 10.9467 33.196 10.456C34.1027 9.95467 35.1107 9.704 36.22 9.704C37.3293 9.704 38.3267 9.94933 39.212 10.44C40.108 10.9307 40.812 11.6133 41.324 12.488C41.836 13.352 42.092 14.3227 42.092 15.4C42.092 16.4773 41.836 17.4533 41.324 18.328C40.812 19.192 40.108 19.8693 39.212 20.36C38.3267 20.8507 37.3293 21.096 36.22 21.096ZM36.22 20.04C37.1053 20.04 37.9053 19.8427 38.62 19.448C39.3347 19.0427 39.8947 18.488 40.3 17.784C40.7053 17.0693 40.908 16.2747 40.908 15.4C40.908 14.5253 40.7053 13.736 40.3 13.032C39.8947 12.3173 39.3347 11.7627 38.62 11.368C37.9053 10.9627 37.1053 10.76 36.22 10.76C35.3347 10.76 34.5293 10.9627 33.804 11.368C33.0893 11.7627 32.524 12.3173 32.108 13.032C31.7027 13.736 31.5 14.5253 31.5 15.4C31.5 16.2747 31.7027 17.0693 32.108 17.784C32.524 18.488 33.0893 19.0427 33.804 19.448C34.5293 19.8427 35.3347 20.04 36.22 20.04ZM48.8419 12.52C49.6312 12.52 50.3459 12.7013 50.9859 13.064C51.6259 13.416 52.1272 13.9173 52.4899 14.568C52.8525 15.2187 53.0339 15.96 53.0339 16.792C53.0339 17.6347 52.8525 18.3813 52.4899 19.032C52.1272 19.6827 51.6259 20.1893 50.9859 20.552C50.3565 20.904 49.6419 21.08 48.8419 21.08C48.1592 21.08 47.5405 20.9413 46.9859 20.664C46.4419 20.376 45.9939 19.96 45.6419 19.416V24.104H44.5059V12.584H45.5939V14.248C45.9352 13.6933 46.3832 13.2667 46.9379 12.968C47.5032 12.6693 48.1379 12.52 48.8419 12.52ZM48.7619 20.072C49.3485 20.072 49.8819 19.9387 50.3619 19.672C50.8419 19.3947 51.2152 19.0053 51.4819 18.504C51.7592 18.0027 51.8979 17.432 51.8979 16.792C51.8979 16.152 51.7592 15.5867 51.4819 15.096C51.2152 14.5947 50.8419 14.2053 50.3619 13.928C49.8819 13.6507 49.3485 13.512 48.7619 13.512C48.1645 13.512 47.6259 13.6507 47.1459 13.928C46.6765 14.2053 46.3032 14.5947 46.0259 15.096C45.7592 15.5867 45.6259 16.152 45.6259 16.792C45.6259 17.432 45.7592 18.0027 46.0259 18.504C46.3032 19.0053 46.6765 19.3947 47.1459 19.672C47.6259 19.9387 48.1645 20.072 48.7619 20.072ZM62.6776 17.144H55.6376C55.7016 18.0187 56.0376 18.728 56.6456 19.272C57.2536 19.8053 58.0216 20.072 58.9496 20.072C59.4723 20.072 59.9523 19.9813 60.3896 19.8C60.827 19.608 61.2056 19.3307 61.5256 18.968L62.1656 19.704C61.7923 20.152 61.323 20.4933 60.7576 20.728C60.203 20.9627 59.5896 21.08 58.9176 21.08C58.0536 21.08 57.2856 20.8987 56.6136 20.536C55.9523 20.1627 55.435 19.6507 55.0616 19C54.6883 18.3493 54.5016 17.6133 54.5016 16.792C54.5016 15.9707 54.6776 15.2347 55.0296 14.584C55.3923 13.9333 55.883 13.4267 56.5016 13.064C57.131 12.7013 57.835 12.52 58.6136 12.52C59.3923 12.52 60.091 12.7013 60.7096 13.064C61.3283 13.4267 61.8136 13.9333 62.1656 14.584C62.5176 15.224 62.6936 15.96 62.6936 16.792L62.6776 17.144ZM58.6136 13.496C57.803 13.496 57.1203 13.7573 56.5656 14.28C56.0216 14.792 55.7123 15.464 55.6376 16.296H61.6056C61.531 15.464 61.2163 14.792 60.6616 14.28C60.1176 13.7573 59.435 13.496 58.6136 13.496ZM69.2939 12.52C70.3499 12.52 71.1872 12.8293 71.8059 13.448C72.4352 14.056 72.7499 14.9467 72.7499 16.12V21H71.6139V16.232C71.6139 15.3573 71.3952 14.6907 70.9579 14.232C70.5205 13.7733 69.8965 13.544 69.0859 13.544C68.1792 13.544 67.4592 13.816 66.9259 14.36C66.4032 14.8933 66.1419 15.6347 66.1419 16.584V21H65.0059V12.584H66.0939V14.136C66.4032 13.624 66.8299 13.2293 67.3739 12.952C67.9285 12.664 68.5685 12.52 69.2939 12.52ZM83.5095 21.08C82.6775 21.08 81.9308 20.8987 81.2695 20.536C80.6188 20.1733 80.1068 19.6667 79.7335 19.016C79.3602 18.3547 79.1735 17.6133 79.1735 16.792C79.1735 15.9707 79.3602 15.2347 79.7335 14.584C80.1068 13.9333 80.6188 13.4267 81.2695 13.064C81.9308 12.7013 82.6775 12.52 83.5095 12.52C84.2348 12.52 84.8802 12.664 85.4455 12.952C86.0215 13.2293 86.4748 13.64 86.8055 14.184L85.9575 14.76C85.6802 14.344 85.3282 14.0347 84.9015 13.832C84.4748 13.6187 84.0108 13.512 83.5095 13.512C82.9015 13.512 82.3522 13.6507 81.8615 13.928C81.3815 14.1947 81.0028 14.5787 80.7255 15.08C80.4588 15.5813 80.3255 16.152 80.3255 16.792C80.3255 17.4427 80.4588 18.0187 80.7255 18.52C81.0028 19.0107 81.3815 19.3947 81.8615 19.672C82.3522 19.9387 82.9015 20.072 83.5095 20.072C84.0108 20.072 84.4748 19.9707 84.9015 19.768C85.3282 19.5653 85.6802 19.256 85.9575 18.84L86.8055 19.416C86.4748 19.96 86.0215 20.376 85.4455 20.664C84.8695 20.9413 84.2242 21.08 83.5095 21.08ZM91.9811 12.52C93.0798 12.52 93.9225 12.7973 94.5091 13.352C95.0958 13.896 95.3891 14.7067 95.3891 15.784V21H94.3011V19.688C94.0451 20.1253 93.6665 20.4667 93.1651 20.712C92.6745 20.9573 92.0878 21.08 91.4051 21.08C90.4665 21.08 89.7198 20.856 89.1651 20.408C88.6105 19.96 88.3331 19.368 88.3331 18.632C88.3331 17.9173 88.5891 17.3413 89.1011 16.904C89.6238 16.4667 90.4505 16.248 91.5811 16.248H94.2531V15.736C94.2531 15.0107 94.0505 14.4613 93.6451 14.088C93.2398 13.704 92.6478 13.512 91.8691 13.512C91.3358 13.512 90.8238 13.6027 90.3331 13.784C89.8425 13.9547 89.4211 14.1947 89.0691 14.504L88.5571 13.656C88.9838 13.2933 89.4958 13.016 90.0931 12.824C90.6905 12.6213 91.3198 12.52 91.9811 12.52ZM91.5811 20.184C92.2211 20.184 92.7705 20.04 93.2291 19.752C93.6878 19.4533 94.0291 19.0267 94.2531 18.472V17.096H91.6131C90.1731 17.096 89.4531 17.5973 89.4531 18.6C89.4531 19.0907 89.6398 19.48 90.0131 19.768C90.3865 20.0453 90.9091 20.184 91.5811 20.184ZM108.971 12.52C110.027 12.52 110.853 12.824 111.451 13.432C112.059 14.04 112.363 14.936 112.363 16.12V21H111.227V16.232C111.227 15.3573 111.013 14.6907 110.587 14.232C110.171 13.7733 109.579 13.544 108.811 13.544C107.936 13.544 107.248 13.816 106.747 14.36C106.245 14.8933 105.995 15.6347 105.995 16.584V21H104.859V16.232C104.859 15.3573 104.645 14.6907 104.219 14.232C103.803 13.7733 103.205 13.544 102.427 13.544C101.563 13.544 100.875 13.816 100.363 14.36C99.8613 14.8933 99.6106 15.6347 99.6106 16.584V21H98.4746V12.584H99.5626V14.12C99.8613 13.608 100.277 13.2133 100.811 12.936C101.344 12.6587 101.957 12.52 102.651 12.52C103.355 12.52 103.963 12.6693 104.475 12.968C104.997 13.2667 105.387 13.7093 105.643 14.296C105.952 13.7413 106.395 13.3093 106.971 13C107.557 12.68 108.224 12.52 108.971 12.52ZM122.803 17.144H115.763C115.827 18.0187 116.163 18.728 116.771 19.272C117.379 19.8053 118.147 20.072 119.075 20.072C119.597 20.072 120.077 19.9813 120.515 19.8C120.952 19.608 121.331 19.3307 121.651 18.968L122.291 19.704C121.917 20.152 121.448 20.4933 120.883 20.728C120.328 20.9627 119.715 21.08 119.043 21.08C118.179 21.08 117.411 20.8987 116.739 20.536C116.077 20.1627 115.56 19.6507 115.187 19C114.813 18.3493 114.627 17.6133 114.627 16.792C114.627 15.9707 114.803 15.2347 115.155 14.584C115.517 13.9333 116.008 13.4267 116.627 13.064C117.256 12.7013 117.96 12.52 118.739 12.52C119.517 12.52 120.216 12.7013 120.835 13.064C121.453 13.4267 121.939 13.9333 122.291 14.584C122.643 15.224 122.819 15.96 122.819 16.792L122.803 17.144ZM118.739 13.496C117.928 13.496 117.245 13.7573 116.691 14.28C116.147 14.792 115.837 15.464 115.763 16.296H121.731C121.656 15.464 121.341 14.792 120.787 14.28C120.243 13.7573 119.56 13.496 118.739 13.496ZM126.219 14.232C126.486 13.6667 126.88 13.24 127.403 12.952C127.936 12.664 128.592 12.52 129.371 12.52V13.624L129.099 13.608C128.214 13.608 127.52 13.88 127.019 14.424C126.518 14.968 126.267 15.7307 126.267 16.712V21H125.131V12.584H126.219V14.232ZM134.356 12.52C135.455 12.52 136.297 12.7973 136.884 13.352C137.471 13.896 137.764 14.7067 137.764 15.784V21H136.676V19.688C136.42 20.1253 136.041 20.4667 135.54 20.712C135.049 20.9573 134.463 21.08 133.78 21.08C132.841 21.08 132.095 20.856 131.54 20.408C130.985 19.96 130.708 19.368 130.708 18.632C130.708 17.9173 130.964 17.3413 131.476 16.904C131.999 16.4667 132.825 16.248 133.956 16.248H136.628V15.736C136.628 15.0107 136.425 14.4613 136.02 14.088C135.615 13.704 135.023 13.512 134.244 13.512C133.711 13.512 133.199 13.6027 132.708 13.784C132.217 13.9547 131.796 14.1947 131.444 14.504L130.932 13.656C131.359 13.2933 131.871 13.016 132.468 12.824C133.065 12.6213 133.695 12.52 134.356 12.52ZM133.956 20.184C134.596 20.184 135.145 20.04 135.604 19.752C136.063 19.4533 136.404 19.0267 136.628 18.472V17.096H133.988C132.548 17.096 131.828 17.5973 131.828 18.6C131.828 19.0907 132.015 19.48 132.388 19.768C132.761 20.0453 133.284 20.184 133.956 20.184Z" fill="white"/>
</svg>
