<svg width="169" height="20" viewBox="0 0 169 20" fill="none" xmlns="http://www.w3.org/2000/svg">
<path d="M14.9688 10C14.9688 10.5625 14.5312 11 14 11H4.40625L7.6875 14.3125C8.09375 14.6875 8.09375 15.3438 7.6875 15.7188C7.5 15.9062 7.25 16 7 16C6.71875 16 6.46875 15.9062 6.28125 15.7188L1.28125 10.7188C0.875 10.3438 0.875 9.6875 1.28125 9.3125L6.28125 4.3125C6.65625 3.90625 7.3125 3.90625 7.6875 4.3125C8.09375 4.6875 8.09375 5.34375 7.6875 5.71875L4.40625 9H14C14.5312 9 14.9688 9.46875 14.9688 10Z" fill="#4FBA74"/>
<path d="M32.328 16V4.8H37.176C38.1787 4.8 39.0427 4.96533 39.768 5.296C40.4933 5.616 41.0533 6.08 41.448 6.688C41.8427 7.296 42.04 8.02133 42.04 8.864C42.04 9.696 41.8427 10.416 41.448 11.024C41.0533 11.632 40.4933 12.1013 39.768 12.432C39.0427 12.752 38.1787 12.912 37.176 12.912H33.768L34.92 11.744V16H32.328ZM34.92 12.032L33.768 10.8H37.032C37.832 10.8 38.4293 10.6293 38.824 10.288C39.2187 9.94667 39.416 9.472 39.416 8.864C39.416 8.24533 39.2187 7.76533 38.824 7.424C38.4293 7.08267 37.832 6.912 37.032 6.912H33.768L34.92 5.68V12.032ZM48.9164 16V14.32L48.7564 13.952V10.944C48.7564 10.4107 48.591 9.99467 48.2604 9.696C47.9404 9.39733 47.4444 9.248 46.7724 9.248C46.3137 9.248 45.8604 9.32267 45.4124 9.472C44.975 9.61067 44.6017 9.80267 44.2924 10.048L43.3964 8.304C43.8657 7.97333 44.431 7.71733 45.0924 7.536C45.7537 7.35467 46.4257 7.264 47.1084 7.264C48.4204 7.264 49.439 7.57333 50.1644 8.192C50.8897 8.81067 51.2524 9.776 51.2524 11.088V16H48.9164ZM46.2924 16.128C45.6204 16.128 45.0444 16.016 44.5644 15.792C44.0844 15.5573 43.7164 15.2427 43.4604 14.848C43.2044 14.4533 43.0764 14.0107 43.0764 13.52C43.0764 13.008 43.199 12.56 43.4444 12.176C43.7004 11.792 44.1004 11.4933 44.6444 11.28C45.1884 11.056 45.8977 10.944 46.7724 10.944H49.0604V12.4H47.0444C46.4577 12.4 46.0524 12.496 45.8284 12.688C45.615 12.88 45.5084 13.12 45.5084 13.408C45.5084 13.728 45.631 13.984 45.8764 14.176C46.1324 14.3573 46.479 14.448 46.9164 14.448C47.3324 14.448 47.7057 14.352 48.0364 14.16C48.367 13.9573 48.607 13.664 48.7564 13.28L49.1404 14.432C48.959 14.9867 48.6284 15.408 48.1484 15.696C47.6684 15.984 47.0497 16.128 46.2924 16.128ZM53.5114 16V7.392H55.8954V9.824L55.5594 9.12C55.8154 8.512 56.226 8.05333 56.7914 7.744C57.3567 7.424 58.0447 7.264 58.8554 7.264V9.568C58.7487 9.55733 58.6527 9.552 58.5674 9.552C58.482 9.54133 58.3914 9.536 58.2954 9.536C57.6127 9.536 57.058 9.73333 56.6314 10.128C56.2154 10.512 56.0074 11.1147 56.0074 11.936V16H53.5114ZM64.549 16.128C63.5677 16.128 62.7037 15.936 61.957 15.552C61.221 15.168 60.6503 14.6453 60.245 13.984C59.8397 13.312 59.637 12.5493 59.637 11.696C59.637 10.832 59.8343 10.0693 60.229 9.408C60.6343 8.736 61.1837 8.21333 61.877 7.84C62.5703 7.456 63.3543 7.264 64.229 7.264C65.0717 7.264 65.829 7.44533 66.501 7.808C67.1837 8.16 67.7223 8.672 68.117 9.344C68.5117 10.0053 68.709 10.8 68.709 11.728C68.709 11.824 68.7037 11.936 68.693 12.064C68.6823 12.1813 68.6717 12.2933 68.661 12.4H61.669V10.944H67.349L66.389 11.376C66.389 10.928 66.2983 10.5387 66.117 10.208C65.9357 9.87733 65.685 9.62133 65.365 9.44C65.045 9.248 64.6717 9.152 64.245 9.152C63.8183 9.152 63.4397 9.248 63.109 9.44C62.789 9.62133 62.5383 9.88267 62.357 10.224C62.1757 10.5547 62.085 10.9493 62.085 11.408V11.792C62.085 12.2613 62.1863 12.6773 62.389 13.04C62.6023 13.392 62.8957 13.664 63.269 13.856C63.653 14.0373 64.101 14.128 64.613 14.128C65.0717 14.128 65.4717 14.0587 65.813 13.92C66.165 13.7813 66.485 13.5733 66.773 13.296L68.101 14.736C67.7063 15.184 67.2103 15.5307 66.613 15.776C66.0157 16.0107 65.3277 16.128 64.549 16.128ZM75.6028 7.264C76.2854 7.264 76.8934 7.40267 77.4268 7.68C77.9708 7.94667 78.3974 8.36267 78.7068 8.928C79.0161 9.48267 79.1708 10.1973 79.1708 11.072V16H76.6748V11.456C76.6748 10.7627 76.5201 10.2507 76.2108 9.92C75.9121 9.58933 75.4854 9.424 74.9308 9.424C74.5361 9.424 74.1788 9.50933 73.8588 9.68C73.5494 9.84 73.3041 10.0907 73.1228 10.432C72.9521 10.7733 72.8668 11.2107 72.8668 11.744V16H70.3708V7.392H72.7548V9.776L72.3068 9.056C72.6161 8.48 73.0588 8.03733 73.6348 7.728C74.2108 7.41867 74.8668 7.264 75.6028 7.264ZM84.9533 16.128C83.9399 16.128 83.1506 15.872 82.5853 15.36C82.0199 14.8373 81.7373 14.064 81.7373 13.04V5.488H84.2333V13.008C84.2333 13.3707 84.3293 13.6533 84.5213 13.856C84.7133 14.048 84.9746 14.144 85.3053 14.144C85.6999 14.144 86.0359 14.0373 86.3133 13.824L86.9853 15.584C86.7293 15.7653 86.4199 15.904 86.0573 16C85.7053 16.0853 85.3373 16.128 84.9533 16.128ZM80.4093 9.504V7.584H86.3773V9.504H80.4093ZM93.6664 16V14.32L93.5064 13.952V10.944C93.5064 10.4107 93.341 9.99467 93.0104 9.696C92.6904 9.39733 92.1944 9.248 91.5224 9.248C91.0637 9.248 90.6104 9.32267 90.1624 9.472C89.725 9.61067 89.3517 9.80267 89.0424 10.048L88.1464 8.304C88.6157 7.97333 89.181 7.71733 89.8424 7.536C90.5037 7.35467 91.1757 7.264 91.8584 7.264C93.1704 7.264 94.189 7.57333 94.9144 8.192C95.6397 8.81067 96.0024 9.776 96.0024 11.088V16H93.6664ZM91.0424 16.128C90.3704 16.128 89.7944 16.016 89.3144 15.792C88.8344 15.5573 88.4664 15.2427 88.2104 14.848C87.9544 14.4533 87.8264 14.0107 87.8264 13.52C87.8264 13.008 87.949 12.56 88.1944 12.176C88.4504 11.792 88.8504 11.4933 89.3944 11.28C89.9384 11.056 90.6477 10.944 91.5224 10.944H93.8104V12.4H91.7944C91.2077 12.4 90.8024 12.496 90.5784 12.688C90.365 12.88 90.2584 13.12 90.2584 13.408C90.2584 13.728 90.381 13.984 90.6264 14.176C90.8824 14.3573 91.229 14.448 91.6664 14.448C92.0824 14.448 92.4557 14.352 92.7864 14.16C93.117 13.9573 93.357 13.664 93.5064 13.28L93.8904 14.432C93.709 14.9867 93.3784 15.408 92.8984 15.696C92.4184 15.984 91.7997 16.128 91.0424 16.128ZM98.2614 16V4.128H100.757V16H98.2614ZM113.141 16.192C112.277 16.192 111.472 16.0533 110.725 15.776C109.989 15.488 109.349 15.0827 108.805 14.56C108.261 14.0373 107.834 13.424 107.525 12.72C107.226 12.016 107.077 11.2427 107.077 10.4C107.077 9.55733 107.226 8.784 107.525 8.08C107.834 7.376 108.261 6.76267 108.805 6.24C109.36 5.71733 110.005 5.31733 110.741 5.04C111.477 4.752 112.282 4.608 113.157 4.608C114.128 4.608 115.002 4.77867 115.781 5.12C116.57 5.45067 117.232 5.94133 117.765 6.592L116.101 8.128C115.717 7.69067 115.29 7.36533 114.821 7.152C114.352 6.928 113.84 6.816 113.285 6.816C112.762 6.816 112.282 6.90133 111.845 7.072C111.408 7.24267 111.029 7.488 110.709 7.808C110.389 8.128 110.138 8.50667 109.957 8.944C109.786 9.38133 109.701 9.86667 109.701 10.4C109.701 10.9333 109.786 11.4187 109.957 11.856C110.138 12.2933 110.389 12.672 110.709 12.992C111.029 13.312 111.408 13.5573 111.845 13.728C112.282 13.8987 112.762 13.984 113.285 13.984C113.84 13.984 114.352 13.8773 114.821 13.664C115.29 13.44 115.717 13.104 116.101 12.656L117.765 14.192C117.232 14.8427 116.57 15.3387 115.781 15.68C115.002 16.0213 114.122 16.192 113.141 16.192ZM123.139 16.128C122.221 16.128 121.405 15.936 120.691 15.552C119.987 15.168 119.427 14.6453 119.011 13.984C118.605 13.312 118.403 12.5493 118.403 11.696C118.403 10.832 118.605 10.0693 119.011 9.408C119.427 8.736 119.987 8.21333 120.691 7.84C121.405 7.456 122.221 7.264 123.139 7.264C124.045 7.264 124.856 7.456 125.571 7.84C126.285 8.21333 126.845 8.73067 127.251 9.392C127.656 10.0533 127.859 10.8213 127.859 11.696C127.859 12.5493 127.656 13.312 127.251 13.984C126.845 14.6453 126.285 15.168 125.571 15.552C124.856 15.936 124.045 16.128 123.139 16.128ZM123.139 14.08C123.555 14.08 123.928 13.984 124.259 13.792C124.589 13.6 124.851 13.328 125.043 12.976C125.235 12.6133 125.331 12.1867 125.331 11.696C125.331 11.1947 125.235 10.768 125.043 10.416C124.851 10.064 124.589 9.792 124.259 9.6C123.928 9.408 123.555 9.312 123.139 9.312C122.723 9.312 122.349 9.408 122.019 9.6C121.688 9.792 121.421 10.064 121.219 10.416C121.027 10.768 120.931 11.1947 120.931 11.696C120.931 12.1867 121.027 12.6133 121.219 12.976C121.421 13.328 121.688 13.6 122.019 13.792C122.349 13.984 122.723 14.08 123.139 14.08ZM134.759 7.264C135.442 7.264 136.05 7.40267 136.583 7.68C137.127 7.94667 137.554 8.36267 137.863 8.928C138.172 9.48267 138.327 10.1973 138.327 11.072V16H135.831V11.456C135.831 10.7627 135.676 10.2507 135.367 9.92C135.068 9.58933 134.642 9.424 134.087 9.424C133.692 9.424 133.335 9.50933 133.015 9.68C132.706 9.84 132.46 10.0907 132.279 10.432C132.108 10.7733 132.023 11.2107 132.023 11.744V16H129.527V7.392H131.911V9.776L131.463 9.056C131.772 8.48 132.215 8.03733 132.791 7.728C133.367 7.41867 134.023 7.264 134.759 7.264ZM144.11 16.128C143.096 16.128 142.307 15.872 141.742 15.36C141.176 14.8373 140.894 14.064 140.894 13.04V5.488H143.39V13.008C143.39 13.3707 143.486 13.6533 143.678 13.856C143.87 14.048 144.131 14.144 144.462 14.144C144.856 14.144 145.192 14.0373 145.47 13.824L146.142 15.584C145.886 15.7653 145.576 15.904 145.214 16C144.862 16.0853 144.494 16.128 144.11 16.128ZM139.566 9.504V7.584H145.534V9.504H139.566ZM147.543 16V7.392H149.927V9.824L149.591 9.12C149.847 8.512 150.257 8.05333 150.823 7.744C151.388 7.424 152.076 7.264 152.887 7.264V9.568C152.78 9.55733 152.684 9.552 152.599 9.552C152.513 9.54133 152.423 9.536 152.327 9.536C151.644 9.536 151.089 9.73333 150.663 10.128C150.247 10.512 150.039 11.1147 150.039 11.936V16H147.543ZM158.404 16.128C157.487 16.128 156.671 15.936 155.956 15.552C155.252 15.168 154.692 14.6453 154.276 13.984C153.871 13.312 153.668 12.5493 153.668 11.696C153.668 10.832 153.871 10.0693 154.276 9.408C154.692 8.736 155.252 8.21333 155.956 7.84C156.671 7.456 157.487 7.264 158.404 7.264C159.311 7.264 160.122 7.456 160.836 7.84C161.551 8.21333 162.111 8.73067 162.516 9.392C162.922 10.0533 163.124 10.8213 163.124 11.696C163.124 12.5493 162.922 13.312 162.516 13.984C162.111 14.6453 161.551 15.168 160.836 15.552C160.122 15.936 159.311 16.128 158.404 16.128ZM158.404 14.08C158.82 14.08 159.194 13.984 159.524 13.792C159.855 13.6 160.116 13.328 160.308 12.976C160.5 12.6133 160.596 12.1867 160.596 11.696C160.596 11.1947 160.5 10.768 160.308 10.416C160.116 10.064 159.855 9.792 159.524 9.6C159.194 9.408 158.82 9.312 158.404 9.312C157.988 9.312 157.615 9.408 157.284 9.6C156.954 9.792 156.687 10.064 156.484 10.416C156.292 10.768 156.196 11.1947 156.196 11.696C156.196 12.1867 156.292 12.6133 156.484 12.976C156.687 13.328 156.954 13.6 157.284 13.792C157.615 13.984 157.988 14.08 158.404 14.08ZM164.793 16V4.128H167.289V16H164.793Z" fill="#4FBA74"/>
</svg>
