<svg width="311" height="30" viewBox="0 0 311 30" fill="none" xmlns="http://www.w3.org/2000/svg">
<g clip-path="url(#clip0_229_383)">
<path d="M15 5.5C15.1562 5.5 15.3516 5.57812 15.5078 5.61719L22.8516 8.74219C23.7109 9.13281 24.375 9.95312 24.375 10.9688C24.3359 14.875 22.7344 21.9453 16.0156 25.1875C15.3516 25.5 14.6094 25.5 13.9453 25.1875C7.22656 21.9453 5.625 14.875 5.58594 10.9688C5.58594 9.95312 6.25 9.13281 7.10938 8.74219L14.4531 5.61719C14.6094 5.57812 14.8047 5.5 15 5.5ZM15 22.8828C20.3516 20.2656 21.8359 14.5234 21.875 11.0469L15 8.11719V22.8828Z" fill="black"/>
<path d="M43.328 21V9.8H48.176C49.1787 9.8 50.0427 9.96533 50.768 10.296C51.4933 10.616 52.0533 11.08 52.448 11.688C52.8427 12.296 53.04 13.0213 53.04 13.864C53.04 14.696 52.8427 15.416 52.448 16.024C52.0533 16.632 51.4933 17.1013 50.768 17.432C50.0427 17.752 49.1787 17.912 48.176 17.912H44.768L45.92 16.744V21H43.328ZM45.92 17.032L44.768 15.8H48.032C48.832 15.8 49.4293 15.6293 49.824 15.288C50.2187 14.9467 50.416 14.472 50.416 13.864C50.416 13.2453 50.2187 12.7653 49.824 12.424C49.4293 12.0827 48.832 11.912 48.032 11.912H44.768L45.92 10.68V17.032ZM59.9164 21V19.32L59.7564 18.952V15.944C59.7564 15.4107 59.591 14.9947 59.2604 14.696C58.9404 14.3973 58.4444 14.248 57.7724 14.248C57.3137 14.248 56.8604 14.3227 56.4124 14.472C55.975 14.6107 55.6017 14.8027 55.2924 15.048L54.3964 13.304C54.8657 12.9733 55.431 12.7173 56.0924 12.536C56.7537 12.3547 57.4257 12.264 58.1084 12.264C59.4204 12.264 60.439 12.5733 61.1644 13.192C61.8897 13.8107 62.2524 14.776 62.2524 16.088V21H59.9164ZM57.2924 21.128C56.6204 21.128 56.0444 21.016 55.5644 20.792C55.0844 20.5573 54.7164 20.2427 54.4604 19.848C54.2044 19.4533 54.0764 19.0107 54.0764 18.52C54.0764 18.008 54.199 17.56 54.4444 17.176C54.7004 16.792 55.1004 16.4933 55.6444 16.28C56.1884 16.056 56.8977 15.944 57.7724 15.944H60.0604V17.4H58.0444C57.4577 17.4 57.0524 17.496 56.8284 17.688C56.615 17.88 56.5084 18.12 56.5084 18.408C56.5084 18.728 56.631 18.984 56.8764 19.176C57.1324 19.3573 57.479 19.448 57.9164 19.448C58.3324 19.448 58.7057 19.352 59.0364 19.16C59.367 18.9573 59.607 18.664 59.7564 18.28L60.1404 19.432C59.959 19.9867 59.6284 20.408 59.1484 20.696C58.6684 20.984 58.0497 21.128 57.2924 21.128ZM64.5114 21V12.392H66.8954V14.824L66.5594 14.12C66.8154 13.512 67.226 13.0533 67.7914 12.744C68.3567 12.424 69.0447 12.264 69.8554 12.264V14.568C69.7487 14.5573 69.6527 14.552 69.5674 14.552C69.482 14.5413 69.3914 14.536 69.2954 14.536C68.6127 14.536 68.058 14.7333 67.6314 15.128C67.2154 15.512 67.0074 16.1147 67.0074 16.936V21H64.5114ZM75.549 21.128C74.5677 21.128 73.7037 20.936 72.957 20.552C72.221 20.168 71.6503 19.6453 71.245 18.984C70.8397 18.312 70.637 17.5493 70.637 16.696C70.637 15.832 70.8343 15.0693 71.229 14.408C71.6343 13.736 72.1837 13.2133 72.877 12.84C73.5703 12.456 74.3543 12.264 75.229 12.264C76.0717 12.264 76.829 12.4453 77.501 12.808C78.1837 13.16 78.7223 13.672 79.117 14.344C79.5117 15.0053 79.709 15.8 79.709 16.728C79.709 16.824 79.7037 16.936 79.693 17.064C79.6823 17.1813 79.6717 17.2933 79.661 17.4H72.669V15.944H78.349L77.389 16.376C77.389 15.928 77.2983 15.5387 77.117 15.208C76.9357 14.8773 76.685 14.6213 76.365 14.44C76.045 14.248 75.6717 14.152 75.245 14.152C74.8183 14.152 74.4397 14.248 74.109 14.44C73.789 14.6213 73.5383 14.8827 73.357 15.224C73.1757 15.5547 73.085 15.9493 73.085 16.408V16.792C73.085 17.2613 73.1863 17.6773 73.389 18.04C73.6023 18.392 73.8957 18.664 74.269 18.856C74.653 19.0373 75.101 19.128 75.613 19.128C76.0717 19.128 76.4717 19.0587 76.813 18.92C77.165 18.7813 77.485 18.5733 77.773 18.296L79.101 19.736C78.7063 20.184 78.2103 20.5307 77.613 20.776C77.0157 21.0107 76.3277 21.128 75.549 21.128ZM86.6028 12.264C87.2854 12.264 87.8934 12.4027 88.4268 12.68C88.9708 12.9467 89.3974 13.3627 89.7068 13.928C90.0161 14.4827 90.1708 15.1973 90.1708 16.072V21H87.6748V16.456C87.6748 15.7627 87.5201 15.2507 87.2108 14.92C86.9121 14.5893 86.4854 14.424 85.9308 14.424C85.5361 14.424 85.1788 14.5093 84.8588 14.68C84.5494 14.84 84.3041 15.0907 84.1228 15.432C83.9521 15.7733 83.8668 16.2107 83.8668 16.744V21H81.3708V12.392H83.7548V14.776L83.3068 14.056C83.6161 13.48 84.0588 13.0373 84.6348 12.728C85.2108 12.4187 85.8668 12.264 86.6028 12.264ZM95.9533 21.128C94.9399 21.128 94.1506 20.872 93.5853 20.36C93.0199 19.8373 92.7373 19.064 92.7373 18.04V10.488H95.2333V18.008C95.2333 18.3707 95.3293 18.6533 95.5213 18.856C95.7133 19.048 95.9746 19.144 96.3053 19.144C96.6999 19.144 97.0359 19.0373 97.3133 18.824L97.9853 20.584C97.7293 20.7653 97.4199 20.904 97.0573 21C96.7053 21.0853 96.3373 21.128 95.9533 21.128ZM91.4093 14.504V12.584H97.3773V14.504H91.4093ZM104.666 21V19.32L104.506 18.952V15.944C104.506 15.4107 104.341 14.9947 104.01 14.696C103.69 14.3973 103.194 14.248 102.522 14.248C102.064 14.248 101.61 14.3227 101.162 14.472C100.725 14.6107 100.352 14.8027 100.042 15.048L99.1464 13.304C99.6157 12.9733 100.181 12.7173 100.842 12.536C101.504 12.3547 102.176 12.264 102.858 12.264C104.17 12.264 105.189 12.5733 105.914 13.192C106.64 13.8107 107.002 14.776 107.002 16.088V21H104.666ZM102.042 21.128C101.37 21.128 100.794 21.016 100.314 20.792C99.8344 20.5573 99.4664 20.2427 99.2104 19.848C98.9544 19.4533 98.8264 19.0107 98.8264 18.52C98.8264 18.008 98.949 17.56 99.1944 17.176C99.4504 16.792 99.8504 16.4933 100.394 16.28C100.938 16.056 101.648 15.944 102.522 15.944H104.81V17.4H102.794C102.208 17.4 101.802 17.496 101.578 17.688C101.365 17.88 101.258 18.12 101.258 18.408C101.258 18.728 101.381 18.984 101.626 19.176C101.882 19.3573 102.229 19.448 102.666 19.448C103.082 19.448 103.456 19.352 103.786 19.16C104.117 18.9573 104.357 18.664 104.506 18.28L104.89 19.432C104.709 19.9867 104.378 20.408 103.898 20.696C103.418 20.984 102.8 21.128 102.042 21.128ZM109.261 21V9.128H111.757V21H109.261ZM124.141 21.192C123.277 21.192 122.472 21.0533 121.725 20.776C120.989 20.488 120.349 20.0827 119.805 19.56C119.261 19.0373 118.834 18.424 118.525 17.72C118.226 17.016 118.077 16.2427 118.077 15.4C118.077 14.5573 118.226 13.784 118.525 13.08C118.834 12.376 119.261 11.7627 119.805 11.24C120.36 10.7173 121.005 10.3173 121.741 10.04C122.477 9.752 123.282 9.608 124.157 9.608C125.128 9.608 126.002 9.77867 126.781 10.12C127.57 10.4507 128.232 10.9413 128.765 11.592L127.101 13.128C126.717 12.6907 126.29 12.3653 125.821 12.152C125.352 11.928 124.84 11.816 124.285 11.816C123.762 11.816 123.282 11.9013 122.845 12.072C122.408 12.2427 122.029 12.488 121.709 12.808C121.389 13.128 121.138 13.5067 120.957 13.944C120.786 14.3813 120.701 14.8667 120.701 15.4C120.701 15.9333 120.786 16.4187 120.957 16.856C121.138 17.2933 121.389 17.672 121.709 17.992C122.029 18.312 122.408 18.5573 122.845 18.728C123.282 18.8987 123.762 18.984 124.285 18.984C124.84 18.984 125.352 18.8773 125.821 18.664C126.29 18.44 126.717 18.104 127.101 17.656L128.765 19.192C128.232 19.8427 127.57 20.3387 126.781 20.68C126.002 21.0213 125.122 21.192 124.141 21.192ZM134.139 21.128C133.221 21.128 132.405 20.936 131.691 20.552C130.987 20.168 130.427 19.6453 130.011 18.984C129.605 18.312 129.403 17.5493 129.403 16.696C129.403 15.832 129.605 15.0693 130.011 14.408C130.427 13.736 130.987 13.2133 131.691 12.84C132.405 12.456 133.221 12.264 134.139 12.264C135.045 12.264 135.856 12.456 136.571 12.84C137.285 13.2133 137.845 13.7307 138.251 14.392C138.656 15.0533 138.859 15.8213 138.859 16.696C138.859 17.5493 138.656 18.312 138.251 18.984C137.845 19.6453 137.285 20.168 136.571 20.552C135.856 20.936 135.045 21.128 134.139 21.128ZM134.139 19.08C134.555 19.08 134.928 18.984 135.259 18.792C135.589 18.6 135.851 18.328 136.043 17.976C136.235 17.6133 136.331 17.1867 136.331 16.696C136.331 16.1947 136.235 15.768 136.043 15.416C135.851 15.064 135.589 14.792 135.259 14.6C134.928 14.408 134.555 14.312 134.139 14.312C133.723 14.312 133.349 14.408 133.019 14.6C132.688 14.792 132.421 15.064 132.219 15.416C132.027 15.768 131.931 16.1947 131.931 16.696C131.931 17.1867 132.027 17.6133 132.219 17.976C132.421 18.328 132.688 18.6 133.019 18.792C133.349 18.984 133.723 19.08 134.139 19.08ZM145.759 12.264C146.442 12.264 147.05 12.4027 147.583 12.68C148.127 12.9467 148.554 13.3627 148.863 13.928C149.172 14.4827 149.327 15.1973 149.327 16.072V21H146.831V16.456C146.831 15.7627 146.676 15.2507 146.367 14.92C146.068 14.5893 145.642 14.424 145.087 14.424C144.692 14.424 144.335 14.5093 144.015 14.68C143.706 14.84 143.46 15.0907 143.279 15.432C143.108 15.7733 143.023 16.2107 143.023 16.744V21H140.527V12.392H142.911V14.776L142.463 14.056C142.772 13.48 143.215 13.0373 143.791 12.728C144.367 12.4187 145.023 12.264 145.759 12.264ZM155.11 21.128C154.096 21.128 153.307 20.872 152.742 20.36C152.176 19.8373 151.894 19.064 151.894 18.04V10.488H154.39V18.008C154.39 18.3707 154.486 18.6533 154.678 18.856C154.87 19.048 155.131 19.144 155.462 19.144C155.856 19.144 156.192 19.0373 156.47 18.824L157.142 20.584C156.886 20.7653 156.576 20.904 156.214 21C155.862 21.0853 155.494 21.128 155.11 21.128ZM150.566 14.504V12.584H156.534V14.504H150.566ZM158.543 21V12.392H160.927V14.824L160.591 14.12C160.847 13.512 161.257 13.0533 161.823 12.744C162.388 12.424 163.076 12.264 163.887 12.264V14.568C163.78 14.5573 163.684 14.552 163.599 14.552C163.513 14.5413 163.423 14.536 163.327 14.536C162.644 14.536 162.089 14.7333 161.663 15.128C161.247 15.512 161.039 16.1147 161.039 16.936V21H158.543ZM169.404 21.128C168.487 21.128 167.671 20.936 166.956 20.552C166.252 20.168 165.692 19.6453 165.276 18.984C164.871 18.312 164.668 17.5493 164.668 16.696C164.668 15.832 164.871 15.0693 165.276 14.408C165.692 13.736 166.252 13.2133 166.956 12.84C167.671 12.456 168.487 12.264 169.404 12.264C170.311 12.264 171.122 12.456 171.836 12.84C172.551 13.2133 173.111 13.7307 173.516 14.392C173.922 15.0533 174.124 15.8213 174.124 16.696C174.124 17.5493 173.922 18.312 173.516 18.984C173.111 19.6453 172.551 20.168 171.836 20.552C171.122 20.936 170.311 21.128 169.404 21.128ZM169.404 19.08C169.82 19.08 170.194 18.984 170.524 18.792C170.855 18.6 171.116 18.328 171.308 17.976C171.5 17.6133 171.596 17.1867 171.596 16.696C171.596 16.1947 171.5 15.768 171.308 15.416C171.116 15.064 170.855 14.792 170.524 14.6C170.194 14.408 169.82 14.312 169.404 14.312C168.988 14.312 168.615 14.408 168.284 14.6C167.954 14.792 167.687 15.064 167.484 15.416C167.292 15.768 167.196 16.1947 167.196 16.696C167.196 17.1867 167.292 17.6133 167.484 17.976C167.687 18.328 167.954 18.6 168.284 18.792C168.615 18.984 168.988 19.08 169.404 19.08ZM175.793 21V9.128H178.289V21H175.793Z" fill="black"/>
<path d="M301.859 14.6406C302.367 15.1094 302.367 15.9297 301.859 16.3984L294.359 23.8984C293.891 24.4062 293.07 24.4062 292.602 23.8984C292.094 23.4297 292.094 22.6094 292.602 22.1406L299.203 15.5L292.602 8.89844C292.094 8.42969 292.094 7.60938 292.602 7.14062C293.07 6.63281 293.891 6.63281 294.359 7.14062L301.859 14.6406Z" fill="black"/>
</g>
<defs>
<clipPath id="clip0_229_383">
<rect width="311" height="30" fill="white"/>
</clipPath>
</defs>
</svg>
