<svg width="60" height="41" viewBox="0 0 60 41" fill="none" xmlns="http://www.w3.org/2000/svg">
<path d="M1.33706 18.4361L1.33717 18.436L17.0246 2.34578C17.0246 2.34574 17.0246 2.3457 17.0247 2.34566C18.1811 1.16041 19.7501 0.5 21.3854 0.5H53.3333C56.7227 0.5 59.5 3.32875 59.5 6.83333V34.1667C59.5 37.6712 56.7227 40.5 53.3333 40.5H21.3854C19.7501 40.5 18.1811 39.8396 17.0247 38.6543C17.0246 38.6543 17.0246 38.6543 17.0246 38.6542L1.33717 22.564L1.33706 22.5639C0.803268 22.0167 0.5 21.2772 0.5 20.5C0.5 19.7228 0.803268 18.9833 1.33706 18.4361ZM32.1192 11.5033C30.953 10.2962 29.0463 10.2991 27.8722 11.5014C26.701 12.6902 26.704 14.6238 27.8713 15.8203L32.4265 20.4893L27.8731 25.1565C27.8729 25.1568 27.8726 25.157 27.8723 25.1573C26.6987 26.3484 26.7173 28.2807 27.8694 29.4743C29.0358 30.6827 30.944 30.6799 32.1183 29.4762L36.6562 24.8249L41.1923 29.4743C41.1926 29.4746 41.1929 29.4749 41.1932 29.4752C42.362 30.6852 44.2682 30.6658 45.4394 29.4782C46.6115 28.2895 46.6088 26.3552 45.4412 25.1584L40.886 20.4893L45.4394 15.8222C45.4397 15.8218 45.4401 15.8214 45.4405 15.821C46.6138 14.6299 46.5951 12.6979 45.4431 11.5043C44.2767 10.2959 42.3685 10.2987 41.1942 11.5024L36.6562 16.1538L32.1202 11.5043C32.1198 11.504 32.1195 11.5036 32.1192 11.5033Z" fill="#979797" stroke="#979797"/>
</svg>
