<svg width="314" height="63" viewBox="0 0 314 63" fill="none" xmlns="http://www.w3.org/2000/svg">
<rect width="314" height="63" rx="5" fill="#4FBA74" fill-opacity="0.3"/>
<path d="M226.002 37.192C225.127 37.192 224.311 37.048 223.554 36.76C222.807 36.472 222.157 36.0667 221.602 35.544C221.058 35.0213 220.631 34.408 220.322 33.704C220.023 33 219.874 32.232 219.874 31.4C219.874 30.568 220.023 29.8 220.322 29.096C220.631 28.392 221.063 27.7787 221.618 27.256C222.173 26.7333 222.823 26.328 223.57 26.04C224.317 25.752 225.127 25.608 226.002 25.608C226.887 25.608 227.698 25.752 228.434 26.04C229.181 26.328 229.826 26.7333 230.37 27.256C230.925 27.768 231.357 28.376 231.666 29.08C231.975 29.784 232.13 30.5573 232.13 31.4C232.13 32.232 231.975 33.0053 231.666 33.72C231.357 34.424 230.925 35.0373 230.37 35.56C229.826 36.072 229.181 36.472 228.434 36.76C227.698 37.048 226.887 37.192 226.002 37.192ZM229.666 39.576C229.229 39.576 228.813 39.528 228.418 39.432C228.034 39.336 227.65 39.1813 227.266 38.968C226.893 38.7547 226.498 38.4667 226.082 38.104C225.677 37.7413 225.234 37.2933 224.754 36.76L227.474 36.072C227.762 36.4667 228.029 36.7813 228.274 37.016C228.519 37.2507 228.754 37.416 228.978 37.512C229.213 37.608 229.458 37.656 229.714 37.656C230.397 37.656 231.005 37.3787 231.538 36.824L232.69 38.2C231.933 39.1173 230.925 39.576 229.666 39.576ZM226.002 34.984C226.503 34.984 226.962 34.8987 227.378 34.728C227.805 34.5573 228.178 34.312 228.498 33.992C228.818 33.672 229.063 33.2933 229.234 32.856C229.415 32.408 229.506 31.9227 229.506 31.4C229.506 30.8667 229.415 30.3813 229.234 29.944C229.063 29.5067 228.818 29.128 228.498 28.808C228.178 28.488 227.805 28.2427 227.378 28.072C226.962 27.9013 226.503 27.816 226.002 27.816C225.501 27.816 225.037 27.9013 224.61 28.072C224.183 28.2427 223.81 28.488 223.49 28.808C223.181 29.128 222.935 29.5067 222.754 29.944C222.583 30.3813 222.498 30.8667 222.498 31.4C222.498 31.9227 222.583 32.408 222.754 32.856C222.935 33.2933 223.181 33.672 223.49 33.992C223.81 34.312 224.183 34.5573 224.61 34.728C225.037 34.8987 225.501 34.984 226.002 34.984ZM234.078 37V25.8H238.926C239.929 25.8 240.793 25.9653 241.518 26.296C242.243 26.616 242.803 27.08 243.198 27.688C243.593 28.296 243.79 29.0213 243.79 29.864C243.79 30.696 243.593 31.416 243.198 32.024C242.803 32.6213 242.243 33.08 241.518 33.4C240.793 33.72 239.929 33.88 238.926 33.88H235.518L236.67 32.744V37H234.078ZM241.198 37L238.398 32.936H241.166L243.998 37H241.198ZM236.67 33.032L235.518 31.816H238.782C239.582 31.816 240.179 31.6453 240.574 31.304C240.969 30.952 241.166 30.472 241.166 29.864C241.166 29.2453 240.969 28.7653 240.574 28.424C240.179 28.0827 239.582 27.912 238.782 27.912H235.518L236.67 26.68V33.032ZM255.735 37.192C254.871 37.192 254.066 37.0533 253.319 36.776C252.583 36.488 251.943 36.0827 251.399 35.56C250.855 35.0373 250.428 34.424 250.119 33.72C249.82 33.016 249.671 32.2427 249.671 31.4C249.671 30.5573 249.82 29.784 250.119 29.08C250.428 28.376 250.855 27.7627 251.399 27.24C251.954 26.7173 252.599 26.3173 253.335 26.04C254.071 25.752 254.876 25.608 255.751 25.608C256.722 25.608 257.596 25.7787 258.375 26.12C259.164 26.4507 259.826 26.9413 260.359 27.592L258.695 29.128C258.311 28.6907 257.884 28.3653 257.415 28.152C256.946 27.928 256.434 27.816 255.879 27.816C255.356 27.816 254.876 27.9013 254.439 28.072C254.002 28.2427 253.623 28.488 253.303 28.808C252.983 29.128 252.732 29.5067 252.551 29.944C252.38 30.3813 252.295 30.8667 252.295 31.4C252.295 31.9333 252.38 32.4187 252.551 32.856C252.732 33.2933 252.983 33.672 253.303 33.992C253.623 34.312 254.002 34.5573 254.439 34.728C254.876 34.8987 255.356 34.984 255.879 34.984C256.434 34.984 256.946 34.8773 257.415 34.664C257.884 34.44 258.311 34.104 258.695 33.656L260.359 35.192C259.826 35.8427 259.164 36.3387 258.375 36.68C257.596 37.0213 256.716 37.192 255.735 37.192ZM267.315 37.192C266.43 37.192 265.608 37.048 264.851 36.76C264.104 36.472 263.454 36.0667 262.899 35.544C262.355 35.0213 261.928 34.408 261.619 33.704C261.32 33 261.171 32.232 261.171 31.4C261.171 30.568 261.32 29.8 261.619 29.096C261.928 28.392 262.36 27.7787 262.915 27.256C263.47 26.7333 264.12 26.328 264.867 26.04C265.614 25.752 266.424 25.608 267.299 25.608C268.184 25.608 268.995 25.752 269.731 26.04C270.478 26.328 271.123 26.7333 271.667 27.256C272.222 27.7787 272.654 28.392 272.963 29.096C273.272 29.7893 273.427 30.5573 273.427 31.4C273.427 32.232 273.272 33.0053 272.963 33.72C272.654 34.424 272.222 35.0373 271.667 35.56C271.123 36.072 270.478 36.472 269.731 36.76C268.995 37.048 268.19 37.192 267.315 37.192ZM267.299 34.984C267.8 34.984 268.259 34.8987 268.675 34.728C269.102 34.5573 269.475 34.312 269.795 33.992C270.115 33.672 270.36 33.2933 270.531 32.856C270.712 32.4187 270.803 31.9333 270.803 31.4C270.803 30.8667 270.712 30.3813 270.531 29.944C270.36 29.5067 270.115 29.128 269.795 28.808C269.486 28.488 269.118 28.2427 268.691 28.072C268.264 27.9013 267.8 27.816 267.299 27.816C266.798 27.816 266.334 27.9013 265.907 28.072C265.491 28.2427 265.123 28.488 264.803 28.808C264.483 29.128 264.232 29.5067 264.051 29.944C263.88 30.3813 263.795 30.8667 263.795 31.4C263.795 31.9227 263.88 32.408 264.051 32.856C264.232 33.2933 264.478 33.672 264.787 33.992C265.107 34.312 265.48 34.5573 265.907 34.728C266.334 34.8987 266.798 34.984 267.299 34.984ZM275.375 37V25.8H280.463C281.679 25.8 282.751 26.0347 283.679 26.504C284.607 26.9627 285.332 27.608 285.855 28.44C286.378 29.272 286.639 30.2587 286.639 31.4C286.639 32.5307 286.378 33.5173 285.855 34.36C285.332 35.192 284.607 35.8427 283.679 36.312C282.751 36.7707 281.679 37 280.463 37H275.375ZM277.967 34.872H280.335C281.082 34.872 281.727 34.7333 282.271 34.456C282.826 34.168 283.252 33.7627 283.551 33.24C283.86 32.7173 284.015 32.104 284.015 31.4C284.015 30.6853 283.86 30.072 283.551 29.56C283.252 29.0373 282.826 28.6373 282.271 28.36C281.727 28.072 281.082 27.928 280.335 27.928H277.967V34.872ZM290.978 30.312H296.37V32.328H290.978V30.312ZM291.17 34.92H297.266V37H288.594V25.8H297.058V27.88H291.17V34.92Z" fill="#4FBA74"/>
<rect x="14" y="14" width="34" height="34" rx="3" fill="#4FBA74"/>
<path d="M24 26.5C24 25.6875 24.6562 25 25.5 25H28.5C29.3125 25 30 25.6875 30 26.5V29.5C30 30.3438 29.3125 31 28.5 31H25.5C24.6562 31 24 30.3438 24 29.5V26.5ZM26 27V29H28V27H26ZM24 34.5C24 33.6875 24.6562 33 25.5 33H28.5C29.3125 33 30 33.6875 30 34.5V37.5C30 38.3438 29.3125 39 28.5 39H25.5C24.6562 39 24 38.3438 24 37.5V34.5ZM26 35V37H28V35H26ZM33.5 25H36.5C37.3125 25 38 25.6875 38 26.5V29.5C38 30.3438 37.3125 31 36.5 31H33.5C32.6562 31 32 30.3438 32 29.5V26.5C32 25.6875 32.6562 25 33.5 25ZM36 27H34V29H36V27ZM32 33.5C32 33.25 32.2188 33 32.5 33H34.5C34.75 33 35 33.25 35 33.5C35 33.7812 35.2188 34 35.5 34H36.5C36.75 34 37 33.7812 37 33.5C37 33.25 37.2188 33 37.5 33C37.75 33 38 33.25 38 33.5V36.5C38 36.7812 37.75 37 37.5 37H35.5C35.2188 37 35 36.7812 35 36.5C35 36.25 34.75 36 34.5 36C34.2188 36 34 36.25 34 36.5V38.5C34 38.7812 33.75 39 33.5 39H32.5C32.2188 39 32 38.7812 32 38.5V33.5ZM35.5 39C35.2188 39 35 38.7812 35 38.5C35 38.25 35.2188 38 35.5 38C35.75 38 36 38.25 36 38.5C36 38.7812 35.75 39 35.5 39ZM37.5 39C37.2188 39 37 38.7812 37 38.5C37 38.25 37.2188 38 37.5 38C37.75 38 38 38.25 38 38.5C38 38.7812 37.75 39 37.5 39Z" fill="white"/>
</svg>
