<svg width="87" height="37" viewBox="0 0 87 37" fill="none" xmlns="http://www.w3.org/2000/svg">
<path d="M5.008 24.692C4.112 24.692 3.25333 24.5747 2.432 24.34C1.61067 24.0947 0.949333 23.78 0.448 23.396L1.328 21.444C1.808 21.7853 2.37333 22.068 3.024 22.292C3.68533 22.5053 4.352 22.612 5.024 22.612C5.536 22.612 5.94667 22.564 6.256 22.468C6.576 22.3613 6.81067 22.2173 6.96 22.036C7.10933 21.8547 7.184 21.6467 7.184 21.412C7.184 21.1133 7.06667 20.8787 6.832 20.708C6.59733 20.5267 6.288 20.3827 5.904 20.276C5.52 20.1587 5.09333 20.052 4.624 19.956C4.16533 19.8493 3.70133 19.7213 3.232 19.572C2.77333 19.4227 2.352 19.2307 1.968 18.996C1.584 18.7613 1.26933 18.452 1.024 18.068C0.789333 17.684 0.672 17.1933 0.672 16.596C0.672 15.956 0.842667 15.3747 1.184 14.852C1.536 14.3187 2.05867 13.8973 2.752 13.588C3.456 13.268 4.336 13.108 5.392 13.108C6.096 13.108 6.78933 13.1933 7.472 13.364C8.15467 13.524 8.75733 13.7693 9.28 14.1L8.48 16.068C7.95733 15.7693 7.43467 15.5507 6.912 15.412C6.38933 15.2627 5.87733 15.188 5.376 15.188C4.87467 15.188 4.464 15.2467 4.144 15.364C3.824 15.4813 3.59467 15.636 3.456 15.828C3.31733 16.0093 3.248 16.2227 3.248 16.468C3.248 16.756 3.36533 16.9907 3.6 17.172C3.83467 17.3427 4.144 17.4813 4.528 17.588C4.912 17.6947 5.33333 17.8013 5.792 17.908C6.26133 18.0147 6.72533 18.1373 7.184 18.276C7.65333 18.4147 8.08 18.6013 8.464 18.836C8.848 19.0707 9.15733 19.38 9.392 19.764C9.63733 20.148 9.76 20.6333 9.76 21.22C9.76 21.8493 9.584 22.4253 9.232 22.948C8.88 23.4707 8.352 23.892 7.648 24.212C6.95467 24.532 6.07467 24.692 5.008 24.692ZM16.6351 24.5V22.82L16.4751 22.452V19.444C16.4751 18.9107 16.3098 18.4947 15.9791 18.196C15.6591 17.8973 15.1631 17.748 14.4911 17.748C14.0325 17.748 13.5791 17.8227 13.1311 17.972C12.6938 18.1107 12.3205 18.3027 12.0111 18.548L11.1151 16.804C11.5845 16.4733 12.1498 16.2173 12.8111 16.036C13.4725 15.8547 14.1445 15.764 14.8271 15.764C16.1391 15.764 17.1578 16.0733 17.8831 16.692C18.6085 17.3107 18.9711 18.276 18.9711 19.588V24.5H16.6351ZM14.0111 24.628C13.3391 24.628 12.7631 24.516 12.2831 24.292C11.8031 24.0573 11.4351 23.7427 11.1791 23.348C10.9231 22.9533 10.7951 22.5107 10.7951 22.02C10.7951 21.508 10.9178 21.06 11.1631 20.676C11.4191 20.292 11.8191 19.9933 12.3631 19.78C12.9071 19.556 13.6165 19.444 14.4911 19.444H16.7791V20.9H14.7631C14.1765 20.9 13.7711 20.996 13.5471 21.188C13.3338 21.38 13.2271 21.62 13.2271 21.908C13.2271 22.228 13.3498 22.484 13.5951 22.676C13.8511 22.8573 14.1978 22.948 14.6351 22.948C15.0511 22.948 15.4245 22.852 15.7551 22.66C16.0858 22.4573 16.3258 22.164 16.4751 21.78L16.8591 22.932C16.6778 23.4867 16.3471 23.908 15.8671 24.196C15.3871 24.484 14.7685 24.628 14.0111 24.628ZM23.4099 24.5L19.7939 15.892H22.3699L25.3779 23.3H24.0979L27.2179 15.892H29.6179L25.9859 24.5H23.4099ZM34.674 24.628C33.6927 24.628 32.8287 24.436 32.082 24.052C31.346 23.668 30.7753 23.1453 30.37 22.484C29.9647 21.812 29.762 21.0493 29.762 20.196C29.762 19.332 29.9593 18.5693 30.354 17.908C30.7593 17.236 31.3087 16.7133 32.002 16.34C32.6953 15.956 33.4793 15.764 34.354 15.764C35.1967 15.764 35.954 15.9453 36.626 16.308C37.3087 16.66 37.8473 17.172 38.242 17.844C38.6367 18.5053 38.834 19.3 38.834 20.228C38.834 20.324 38.8287 20.436 38.818 20.564C38.8073 20.6813 38.7967 20.7933 38.786 20.9H31.794V19.444H37.474L36.514 19.876C36.514 19.428 36.4233 19.0387 36.242 18.708C36.0607 18.3773 35.81 18.1213 35.49 17.94C35.17 17.748 34.7967 17.652 34.37 17.652C33.9433 17.652 33.5647 17.748 33.234 17.94C32.914 18.1213 32.6633 18.3827 32.482 18.724C32.3007 19.0547 32.21 19.4493 32.21 19.908V20.292C32.21 20.7613 32.3113 21.1773 32.514 21.54C32.7273 21.892 33.0207 22.164 33.394 22.356C33.778 22.5373 34.226 22.628 34.738 22.628C35.1967 22.628 35.5967 22.5587 35.938 22.42C36.29 22.2813 36.61 22.0733 36.898 21.796L38.226 23.236C37.8313 23.684 37.3353 24.0307 36.738 24.276C36.1407 24.5107 35.4527 24.628 34.674 24.628Z" fill="black"/>
<circle cx="68.5" cy="18.5" r="18.5" fill="white"/>
<path d="M61.5 27.25C60.0938 27.25 59 26.1562 59 24.75V12.25C59 10.8828 60.0938 9.75 61.5 9.75H66.5C67.2812 9.75 68.0234 10.1406 68.4922 10.7656L69.2344 11.7812C69.4688 12.0938 69.8203 12.25 70.25 12.25H76.5C77.8672 12.25 79 13.3828 79 14.75V24.75C79 26.1562 77.8672 27.25 76.5 27.25H61.5Z" fill="#4FBA74"/>
</svg>
