<svg width="311" height="30" viewBox="0 0 311 30" fill="none" xmlns="http://www.w3.org/2000/svg">
<path d="M24.3359 12.0234C24.4922 12.375 24.375 12.7266 24.1016 13L22.4219 14.5234C22.4609 14.8359 22.4609 15.1875 22.4609 15.5C22.4609 15.8516 22.4609 16.2031 22.4219 16.5156L24.1016 18.0391C24.375 18.2734 24.4922 18.6641 24.3359 19.0156C24.1797 19.4844 23.9844 19.9141 23.75 20.3438L23.5547 20.6562C23.2812 21.0859 23.0078 21.5156 22.6953 21.8672C22.4609 22.1797 22.0703 22.2578 21.7188 22.1406L19.5703 21.4766C19.0234 21.8672 18.4375 22.1797 17.8516 22.4531L17.3438 24.6797C17.2656 25.0312 16.9922 25.3047 16.6406 25.3828C16.0938 25.4609 15.5469 25.5 14.9609 25.5C14.4141 25.5 13.8672 25.4609 13.3203 25.3828C12.9688 25.3047 12.6953 25.0312 12.6172 24.6797L12.1094 22.4531C11.4844 22.1797 10.9375 21.8672 10.3906 21.4766L8.24219 22.1406C7.89062 22.2578 7.5 22.1797 7.26562 21.9062C6.95312 21.5156 6.67969 21.0859 6.40625 20.6562L6.21094 20.3438C5.97656 19.9141 5.78125 19.4844 5.625 19.0156C5.46875 18.6641 5.58594 18.3125 5.85938 18.0391L7.53906 16.5156C7.5 16.2031 7.5 15.8516 7.5 15.5C7.5 15.1875 7.5 14.8359 7.53906 14.5234L5.85938 13C5.58594 12.7266 5.46875 12.375 5.625 12.0234C5.78125 11.5547 5.97656 11.125 6.21094 10.6953L6.40625 10.3828C6.67969 9.95312 6.95312 9.52344 7.26562 9.13281C7.5 8.85938 7.89062 8.78125 8.24219 8.89844L10.3906 9.5625C10.9375 9.17188 11.5234 8.82031 12.1094 8.58594L12.6172 6.35938C12.6953 6.00781 12.9688 5.73438 13.3203 5.65625C13.8672 5.57812 14.4141 5.5 15 5.5C15.5469 5.5 16.0938 5.57812 16.6406 5.65625C16.9922 5.69531 17.2656 6.00781 17.3438 6.35938L17.8516 8.58594C18.4766 8.82031 19.0234 9.17188 19.5703 9.5625L21.7188 8.89844C22.0703 8.78125 22.4609 8.85938 22.6953 9.13281C23.0078 9.52344 23.2812 9.95312 23.5547 10.3828L23.75 10.6953C23.9844 11.125 24.1797 11.5547 24.375 12.0234H24.3359ZM15 18.625C16.0938 18.625 17.1094 18.0391 17.6953 17.0625C18.2422 16.125 18.2422 14.9141 17.6953 13.9375C17.1094 13 16.0938 12.375 15 12.375C13.8672 12.375 12.8516 13 12.2656 13.9375C11.7188 14.9141 11.7188 16.125 12.2656 17.0625C12.8516 18.0391 13.8672 18.625 15 18.625Z" fill="black"/>
<path d="M41.4299 21.192C40.5339 21.192 39.6752 21.0747 38.8539 20.84C38.0325 20.5947 37.3712 20.28 36.8699 19.896L37.7499 17.944C38.2299 18.2853 38.7952 18.568 39.4459 18.792C40.1072 19.0053 40.7739 19.112 41.4459 19.112C41.9579 19.112 42.3685 19.064 42.6779 18.968C42.9979 18.8613 43.2325 18.7173 43.3819 18.536C43.5312 18.3547 43.6059 18.1467 43.6059 17.912C43.6059 17.6133 43.4885 17.3787 43.2539 17.208C43.0192 17.0267 42.7099 16.8827 42.3259 16.776C41.9419 16.6587 41.5152 16.552 41.0459 16.456C40.5872 16.3493 40.1232 16.2213 39.6539 16.072C39.1952 15.9227 38.7739 15.7307 38.3899 15.496C38.0059 15.2613 37.6912 14.952 37.4459 14.568C37.2112 14.184 37.0939 13.6933 37.0939 13.096C37.0939 12.456 37.2645 11.8747 37.6059 11.352C37.9579 10.8187 38.4805 10.3973 39.1739 10.088C39.8779 9.768 40.7579 9.608 41.8139 9.608C42.5179 9.608 43.2112 9.69333 43.8939 9.864C44.5765 10.024 45.1792 10.2693 45.7019 10.6L44.9019 12.568C44.3792 12.2693 43.8565 12.0507 43.3339 11.912C42.8112 11.7627 42.2992 11.688 41.7979 11.688C41.2965 11.688 40.8859 11.7467 40.5659 11.864C40.2459 11.9813 40.0165 12.136 39.8779 12.328C39.7392 12.5093 39.6699 12.7227 39.6699 12.968C39.6699 13.256 39.7872 13.4907 40.0219 13.672C40.2565 13.8427 40.5659 13.9813 40.9499 14.088C41.3339 14.1947 41.7552 14.3013 42.2139 14.408C42.6832 14.5147 43.1472 14.6373 43.6059 14.776C44.0752 14.9147 44.5019 15.1013 44.8859 15.336C45.2699 15.5707 45.5792 15.88 45.8139 16.264C46.0592 16.648 46.1819 17.1333 46.1819 17.72C46.1819 18.3493 46.0059 18.9253 45.6539 19.448C45.3019 19.9707 44.7739 20.392 44.0699 20.712C43.3765 21.032 42.4965 21.192 41.4299 21.192ZM52.049 21.128C51.0677 21.128 50.2037 20.936 49.457 20.552C48.721 20.168 48.1503 19.6453 47.745 18.984C47.3397 18.312 47.137 17.5493 47.137 16.696C47.137 15.832 47.3343 15.0693 47.729 14.408C48.1343 13.736 48.6837 13.2133 49.377 12.84C50.0703 12.456 50.8543 12.264 51.729 12.264C52.5717 12.264 53.329 12.4453 54.001 12.808C54.6837 13.16 55.2223 13.672 55.617 14.344C56.0117 15.0053 56.209 15.8 56.209 16.728C56.209 16.824 56.2037 16.936 56.193 17.064C56.1823 17.1813 56.1717 17.2933 56.161 17.4H49.169V15.944H54.849L53.889 16.376C53.889 15.928 53.7983 15.5387 53.617 15.208C53.4357 14.8773 53.185 14.6213 52.865 14.44C52.545 14.248 52.1717 14.152 51.745 14.152C51.3183 14.152 50.9397 14.248 50.609 14.44C50.289 14.6213 50.0383 14.8827 49.857 15.224C49.6757 15.5547 49.585 15.9493 49.585 16.408V16.792C49.585 17.2613 49.6863 17.6773 49.889 18.04C50.1023 18.392 50.3957 18.664 50.769 18.856C51.153 19.0373 51.601 19.128 52.113 19.128C52.5717 19.128 52.9717 19.0587 53.313 18.92C53.665 18.7813 53.985 18.5733 54.273 18.296L55.601 19.736C55.2063 20.184 54.7103 20.5307 54.113 20.776C53.5157 21.0107 52.8277 21.128 52.049 21.128ZM61.3908 21.128C60.3774 21.128 59.5881 20.872 59.0228 20.36C58.4574 19.8373 58.1748 19.064 58.1748 18.04V10.488H60.6708V18.008C60.6708 18.3707 60.7668 18.6533 60.9588 18.856C61.1508 19.048 61.4121 19.144 61.7428 19.144C62.1374 19.144 62.4734 19.0373 62.7508 18.824L63.4228 20.584C63.1668 20.7653 62.8574 20.904 62.4948 21C62.1428 21.0853 61.7748 21.128 61.3908 21.128ZM56.8468 14.504V12.584H62.8148V14.504H56.8468ZM68.1564 21.128C67.143 21.128 66.3537 20.872 65.7884 20.36C65.223 19.8373 64.9404 19.064 64.9404 18.04V10.488H67.4364V18.008C67.4364 18.3707 67.5324 18.6533 67.7244 18.856C67.9164 19.048 68.1777 19.144 68.5084 19.144C68.903 19.144 69.239 19.0373 69.5164 18.824L70.1884 20.584C69.9324 20.7653 69.623 20.904 69.2604 21C68.9084 21.0853 68.5404 21.128 68.1564 21.128ZM63.6124 14.504V12.584H69.5804V14.504H63.6124ZM71.5895 21V12.392H74.0855V21H71.5895ZM72.8375 11.192C72.3788 11.192 72.0055 11.0587 71.7175 10.792C71.4295 10.5253 71.2855 10.1947 71.2855 9.8C71.2855 9.40533 71.4295 9.07467 71.7175 8.808C72.0055 8.54133 72.3788 8.408 72.8375 8.408C73.2962 8.408 73.6695 8.536 73.9575 8.792C74.2455 9.03733 74.3895 9.35733 74.3895 9.752C74.3895 10.168 74.2455 10.5147 73.9575 10.792C73.6802 11.0587 73.3068 11.192 72.8375 11.192ZM81.634 12.264C82.3167 12.264 82.9247 12.4027 83.458 12.68C84.002 12.9467 84.4287 13.3627 84.738 13.928C85.0473 14.4827 85.202 15.1973 85.202 16.072V21H82.706V16.456C82.706 15.7627 82.5513 15.2507 82.242 14.92C81.9433 14.5893 81.5167 14.424 80.962 14.424C80.5673 14.424 80.21 14.5093 79.89 14.68C79.5807 14.84 79.3353 15.0907 79.154 15.432C78.9833 15.7733 78.898 16.2107 78.898 16.744V21H76.402V12.392H78.786V14.776L78.338 14.056C78.6473 13.48 79.09 13.0373 79.666 12.728C80.242 12.4187 80.898 12.264 81.634 12.264ZM91.575 24.232C90.7643 24.232 89.9803 24.1307 89.223 23.928C88.4763 23.736 87.8523 23.4427 87.351 23.048L88.343 21.256C88.7057 21.5547 89.1643 21.7893 89.719 21.96C90.2843 22.1413 90.839 22.232 91.383 22.232C92.2683 22.232 92.9083 22.0347 93.303 21.64C93.7083 21.2453 93.911 20.6587 93.911 19.88V18.584L94.071 16.424L94.039 14.248V12.392H96.407V19.56C96.407 21.16 95.991 22.3387 95.159 23.096C94.327 23.8533 93.1323 24.232 91.575 24.232ZM91.191 20.584C90.391 20.584 89.6657 20.4133 89.015 20.072C88.375 19.72 87.8577 19.2347 87.463 18.616C87.079 17.9867 86.887 17.256 86.887 16.424C86.887 15.5813 87.079 14.8507 87.463 14.232C87.8577 13.6027 88.375 13.1173 89.015 12.776C89.6657 12.4347 90.391 12.264 91.191 12.264C91.9163 12.264 92.5563 12.4133 93.111 12.712C93.6657 13 94.0977 13.4533 94.407 14.072C94.7163 14.68 94.871 15.464 94.871 16.424C94.871 17.3733 94.7163 18.1573 94.407 18.776C94.0977 19.384 93.6657 19.8373 93.111 20.136C92.5563 20.4347 91.9163 20.584 91.191 20.584ZM91.687 18.536C92.1243 18.536 92.5137 18.4507 92.855 18.28C93.1963 18.0987 93.463 17.848 93.655 17.528C93.847 17.208 93.943 16.84 93.943 16.424C93.943 15.9973 93.847 15.6293 93.655 15.32C93.463 15 93.1963 14.7547 92.855 14.584C92.5137 14.4027 92.1243 14.312 91.687 14.312C91.2497 14.312 90.8603 14.4027 90.519 14.584C90.1777 14.7547 89.9057 15 89.703 15.32C89.511 15.6293 89.415 15.9973 89.415 16.424C89.415 16.84 89.511 17.208 89.703 17.528C89.9057 17.848 90.1777 18.0987 90.519 18.28C90.8603 18.4507 91.2497 18.536 91.687 18.536Z" fill="black"/>
<path d="M301.859 14.6406C302.367 15.1094 302.367 15.9297 301.859 16.3984L294.359 23.8984C293.891 24.4062 293.07 24.4062 292.602 23.8984C292.094 23.4297 292.094 22.6094 292.602 22.1406L299.203 15.5L292.602 8.89844C292.094 8.42969 292.094 7.60938 292.602 7.14062C293.07 6.63281 293.891 6.63281 294.359 7.14062L301.859 14.6406Z" fill="black"/>
</svg>
