<svg width="95" height="37" viewBox="0 0 95 37" fill="none" xmlns="http://www.w3.org/2000/svg">
<circle cx="18.5" cy="18.5" r="18.5" fill="#AB3428"/>
<path d="M20.9922 9.86719C21.4219 9.67188 21.9688 9.75 22.3203 10.1016L28.5703 15.7266C28.8438 15.9609 29 16.2734 29 16.625C29 17.0156 28.8438 17.3281 28.5703 17.5625L22.3203 23.1875C21.9688 23.5391 21.4219 23.6172 20.9922 23.4219C20.5234 23.2266 20.25 22.7578 20.25 22.25V19.75H16.5C14.4297 19.75 12.75 21.4297 12.75 23.5C12.75 24.7109 13.2188 25.375 13.6094 25.7266C13.8047 25.9219 14 26.1953 14 26.5078C14 26.9375 13.6484 27.25 13.2188 27.25C13.1016 27.25 12.9844 27.25 12.9062 27.2109C12.1641 26.7812 9 24.8281 9 20.375C9 16.5859 12.0469 13.5 15.875 13.5H20.25V11C20.25 10.5312 20.5234 10.0625 20.9922 9.86719Z" fill="white"/>
<path d="M52.008 24.692C51.112 24.692 50.2533 24.5747 49.432 24.34C48.6107 24.0947 47.9493 23.78 47.448 23.396L48.328 21.444C48.808 21.7853 49.3733 22.068 50.024 22.292C50.6853 22.5053 51.352 22.612 52.024 22.612C52.536 22.612 52.9467 22.564 53.256 22.468C53.576 22.3613 53.8107 22.2173 53.96 22.036C54.1093 21.8547 54.184 21.6467 54.184 21.412C54.184 21.1133 54.0667 20.8787 53.832 20.708C53.5973 20.5267 53.288 20.3827 52.904 20.276C52.52 20.1587 52.0933 20.052 51.624 19.956C51.1653 19.8493 50.7013 19.7213 50.232 19.572C49.7733 19.4227 49.352 19.2307 48.968 18.996C48.584 18.7613 48.2693 18.452 48.024 18.068C47.7893 17.684 47.672 17.1933 47.672 16.596C47.672 15.956 47.8427 15.3747 48.184 14.852C48.536 14.3187 49.0587 13.8973 49.752 13.588C50.456 13.268 51.336 13.108 52.392 13.108C53.096 13.108 53.7893 13.1933 54.472 13.364C55.1547 13.524 55.7573 13.7693 56.28 14.1L55.48 16.068C54.9573 15.7693 54.4347 15.5507 53.912 15.412C53.3893 15.2627 52.8773 15.188 52.376 15.188C51.8747 15.188 51.464 15.2467 51.144 15.364C50.824 15.4813 50.5947 15.636 50.456 15.828C50.3173 16.0093 50.248 16.2227 50.248 16.468C50.248 16.756 50.3653 16.9907 50.6 17.172C50.8347 17.3427 51.144 17.4813 51.528 17.588C51.912 17.6947 52.3333 17.8013 52.792 17.908C53.2613 18.0147 53.7253 18.1373 54.184 18.276C54.6533 18.4147 55.08 18.6013 55.464 18.836C55.848 19.0707 56.1573 19.38 56.392 19.764C56.6373 20.148 56.76 20.6333 56.76 21.22C56.76 21.8493 56.584 22.4253 56.232 22.948C55.88 23.4707 55.352 23.892 54.648 24.212C53.9547 24.532 53.0747 24.692 52.008 24.692ZM63.5871 15.764C64.2698 15.764 64.8778 15.9027 65.4111 16.18C65.9551 16.4467 66.3818 16.8627 66.6911 17.428C67.0005 17.9827 67.1551 18.6973 67.1551 19.572V24.5H64.6591V19.956C64.6591 19.2627 64.5045 18.7507 64.1951 18.42C63.8965 18.0893 63.4698 17.924 62.9151 17.924C62.5205 17.924 62.1631 18.0093 61.8431 18.18C61.5338 18.34 61.2885 18.5907 61.1071 18.932C60.9365 19.2733 60.8511 19.7107 60.8511 20.244V24.5H58.3551V12.628H60.8511V18.276L60.2911 17.556C60.6005 16.98 61.0431 16.5373 61.6191 16.228C62.1951 15.9187 62.8511 15.764 63.5871 15.764ZM74.6976 24.5V22.82L74.5376 22.452V19.444C74.5376 18.9107 74.3723 18.4947 74.0416 18.196C73.7216 17.8973 73.2256 17.748 72.5536 17.748C72.095 17.748 71.6416 17.8227 71.1936 17.972C70.7563 18.1107 70.383 18.3027 70.0736 18.548L69.1776 16.804C69.647 16.4733 70.2123 16.2173 70.8736 16.036C71.535 15.8547 72.207 15.764 72.8896 15.764C74.2016 15.764 75.2203 16.0733 75.9456 16.692C76.671 17.3107 77.0336 18.276 77.0336 19.588V24.5H74.6976ZM72.0736 24.628C71.4016 24.628 70.8256 24.516 70.3456 24.292C69.8656 24.0573 69.4976 23.7427 69.2416 23.348C68.9856 22.9533 68.8576 22.5107 68.8576 22.02C68.8576 21.508 68.9803 21.06 69.2256 20.676C69.4816 20.292 69.8816 19.9933 70.4256 19.78C70.9696 19.556 71.679 19.444 72.5536 19.444H74.8416V20.9H72.8256C72.239 20.9 71.8336 20.996 71.6096 21.188C71.3963 21.38 71.2896 21.62 71.2896 21.908C71.2896 22.228 71.4123 22.484 71.6576 22.676C71.9136 22.8573 72.2603 22.948 72.6976 22.948C73.1136 22.948 73.487 22.852 73.8176 22.66C74.1483 22.4573 74.3883 22.164 74.5376 21.78L74.9216 22.932C74.7403 23.4867 74.4096 23.908 73.9296 24.196C73.4496 24.484 72.831 24.628 72.0736 24.628ZM79.2926 24.5V15.892H81.6766V18.324L81.3406 17.62C81.5966 17.012 82.0073 16.5533 82.5726 16.244C83.138 15.924 83.826 15.764 84.6366 15.764V18.068C84.53 18.0573 84.434 18.052 84.3486 18.052C84.2633 18.0413 84.1726 18.036 84.0766 18.036C83.394 18.036 82.8393 18.2333 82.4126 18.628C81.9966 19.012 81.7886 19.6147 81.7886 20.436V24.5H79.2926ZM90.3303 24.628C89.3489 24.628 88.4849 24.436 87.7383 24.052C87.0023 23.668 86.4316 23.1453 86.0263 22.484C85.6209 21.812 85.4183 21.0493 85.4183 20.196C85.4183 19.332 85.6156 18.5693 86.0103 17.908C86.4156 17.236 86.9649 16.7133 87.6583 16.34C88.3516 15.956 89.1356 15.764 90.0103 15.764C90.8529 15.764 91.6103 15.9453 92.2823 16.308C92.9649 16.66 93.5036 17.172 93.8983 17.844C94.2929 18.5053 94.4903 19.3 94.4903 20.228C94.4903 20.324 94.4849 20.436 94.4743 20.564C94.4636 20.6813 94.4529 20.7933 94.4423 20.9H87.4503V19.444H93.1302L92.1703 19.876C92.1703 19.428 92.0796 19.0387 91.8983 18.708C91.7169 18.3773 91.4663 18.1213 91.1463 17.94C90.8263 17.748 90.4529 17.652 90.0263 17.652C89.5996 17.652 89.2209 17.748 88.8903 17.94C88.5703 18.1213 88.3196 18.3827 88.1383 18.724C87.9569 19.0547 87.8663 19.4493 87.8663 19.908V20.292C87.8663 20.7613 87.9676 21.1773 88.1703 21.54C88.3836 21.892 88.6769 22.164 89.0503 22.356C89.4343 22.5373 89.8823 22.628 90.3943 22.628C90.8529 22.628 91.2529 22.5587 91.5943 22.42C91.9463 22.2813 92.2663 22.0733 92.5543 21.796L93.8823 23.236C93.4876 23.684 92.9916 24.0307 92.3943 24.276C91.7969 24.5107 91.1089 24.628 90.3303 24.628Z" fill="black"/>
</svg>
