<svg width="42" height="42" viewBox="0 0 42 42" fill="none" xmlns="http://www.w3.org/2000/svg">
<circle cx="21" cy="21" r="20.5" stroke="#A1A5AD"/>
<path d="M12.5 12V27.75C12.5 28.1719 12.8281 28.5 13.25 28.5H32C32.7969 28.5 33.5 29.2031 33.5 30C33.5 30.8438 32.7969 31.5 32 31.5H13.25C11.1406 31.5 9.5 29.8594 9.5 27.75V12C9.5 11.2031 10.1562 10.5 11 10.5C11.7969 10.5 12.5 11.2031 12.5 12ZM31.5312 16.0781L25.5312 22.0781C24.9688 22.6875 23.9844 22.6875 23.4219 22.0781L20.75 19.4062L16.5312 23.5781C15.9688 24.1875 14.9844 24.1875 14.4219 23.5781C13.8125 23.0156 13.8125 22.0312 14.4219 21.4688L19.6719 16.2188C20.2344 15.6094 21.2188 15.6094 21.7812 16.2188L24.5 18.8906L29.4219 13.9688C29.9844 13.3594 30.9688 13.3594 31.5312 13.9688C32.1406 14.5312 32.1406 15.5156 31.5312 16.0781Z" fill="#A1A5AD"/>
</svg>
