<svg width="295" height="43" viewBox="0 0 295 43" fill="none" xmlns="http://www.w3.org/2000/svg">
<path d="M49.906 33V10.6H54.194L63.73 26.408H61.458L70.834 10.6H75.09L75.154 33H70.29L70.258 18.056H71.154L63.666 30.632H61.33L53.682 18.056H54.77V33H49.906ZM77.5245 33L87.5085 10.6H92.6285L102.645 33H97.2045L89.0125 13.224H91.0605L82.8365 33H77.5245ZM82.5165 28.2L83.8925 24.264H95.4125L96.8205 28.2H82.5165ZM104.969 33V10.6H114.665C116.67 10.6 118.398 10.9307 119.849 11.592C121.299 12.232 122.419 13.16 123.209 14.376C123.998 15.592 124.393 17.0427 124.393 18.728C124.393 20.392 123.998 21.832 123.209 23.048C122.419 24.2427 121.299 25.16 119.849 25.8C118.398 26.44 116.67 26.76 114.665 26.76H107.849L110.153 24.488V33H104.969ZM119.208 33L113.609 24.872H119.145L124.809 33H119.208ZM110.153 25.064L107.849 22.632H114.377C115.977 22.632 117.171 22.2907 117.961 21.608C118.75 20.904 119.145 19.944 119.145 18.728C119.145 17.4907 118.75 16.5307 117.961 15.848C117.171 15.1653 115.977 14.824 114.377 14.824H107.849L110.153 12.36V25.064ZM132.827 33V14.824H125.659V10.6H145.179V14.824H138.011V33H132.827ZM162.407 33L155.079 10.6H160.455L166.823 30.44H164.135L170.791 10.6H175.591L181.991 30.44H179.399L185.927 10.6H190.887L183.559 33H177.991L172.327 15.592H173.799L167.975 33H162.407ZM190.087 33L200.071 10.6H205.191L215.207 33H209.767L201.575 13.224H203.623L195.399 33H190.087ZM195.079 28.2L196.455 24.264H207.975L209.383 28.2H195.079ZM217.531 33V10.6H222.715V28.776H233.947V33H217.531ZM236.844 33V10.6H242.028V28.776H253.26V33H236.844ZM260.924 19.624H271.708V23.656H260.924V19.624ZM261.308 28.84H273.5V33H256.156V10.6H273.084V14.76H261.308V28.84ZM282.265 33V14.824H275.097V10.6H294.617V14.824H287.449V33H282.265Z" fill="white"/>
<path d="M2.93678 38.3733H10.5921C10.6458 39.2865 10.7533 41.3226 10.7533 42.1607C11.2045 43.1276 11.8546 42.5636 12.1232 42.1607C14.4601 36.6273 19.3272 25.19 20.1008 23.7073C20.8744 22.2246 20.262 21.9076 19.8591 21.9345H14.2183C16.8775 16.5623 22.3088 5.60846 22.7601 4.7704C23.2113 3.93235 22.572 3.77655 22.196 3.80341H2.3727C1.59374 3.91086 0.0358144 4.577 0.0358144 6.38205C0.0358144 8.63836 -0.044768 32.4102 0.0358144 35.3917C0.10028 37.777 1.99665 38.3733 2.93678 38.3733Z" fill="white"/>
<path d="M21.3096 17.5024H27.8367C24.5597 23.6536 17.8768 36.1976 17.361 37.1646C17.1676 38.0671 17.6028 38.2927 17.8445 38.2927H40.7299C42.7928 38.0348 43.416 36.1976 43.4697 35.3112V24.2714C43.4697 23.6267 43.0937 23.4655 42.9057 23.4655H33.4775C30.6571 22.1762 31.3824 19.3558 33.4775 18.55H42.9057C43.4214 18.55 43.4966 18.0665 43.4697 17.8248V7.26847C43.4697 4.88323 41.6432 3.96458 40.7299 3.80341H30.496V0.580121C30.0447 -0.386868 29.3947 0.0697657 29.1261 0.418956C26.44 5.54937 20.9872 15.9552 20.6649 16.5354C20.4715 17.1801 21.0141 17.4487 21.3096 17.5024Z" fill="white"/>
<circle cx="34.2835" cy="21.0481" r="1.69223" fill="white"/>
</svg>
