<svg width="393" height="107" viewBox="0 0 393 107" fill="none" xmlns="http://www.w3.org/2000/svg">
<path d="M177.937 99.3733H185.592C185.646 100.287 184.5 102.662 184.5 103.5C184.5 104 184.731 104.403 185 104C187.337 98.4667 194.327 86.1901 195.101 84.7073C195.874 83.2246 195.262 82.9077 194.859 82.9345C194.859 82.9345 187.5 83.5 187.5 79C187.5 74.5 200.113 66.6085 200.564 65.7704C201.015 64.9324 200.376 64.7766 200 64.8034L177.373 64.8035C176.594 64.9109 175.036 65.5771 175.036 67.3821C175.036 69.6384 174.955 93.4102 175.036 96.3918C175.1 98.777 176.997 99.3733 177.937 99.3733Z" fill="#4FBA74"/>
<path d="M193 77.5C195 80 205.277 75.8489 202 82C198.723 88.1512 190.431 97.2782 189.915 98.2452C189.721 99.1477 190.157 99.3733 190.398 99.3733C197.49 99.3733 214.441 99.2928 215.73 99.2928C217.793 99.0349 218.416 97.1976 218.47 96.3112V85.2714C218.47 84.6268 218.094 84.4656 217.906 84.4656H208.478C205.657 83.1763 206.382 80.3559 208.478 79.5501H217.906C218.421 79.5501 218.497 79.0666 218.47 78.8248V68.2685C218.47 65.8833 216.643 64.9646 215.73 64.8035L211 64.8034V61.5801C210.549 60.6131 209.899 61.0698 209.63 61.4189C209.63 61.4189 191 75 193 77.5Z" fill="#4FBA74"/>
<path d="M177.937 99.3733H185.592C185.646 100.287 184.5 102.662 184.5 103.5C184.5 104 184.731 104.403 185 104C187.337 98.4667 194.327 86.1901 195.101 84.7073C195.874 83.2246 195.262 82.9077 194.859 82.9345C194.859 82.9345 187.5 83.5 187.5 79C187.5 74.5 200.113 66.6085 200.564 65.7704C201.015 64.9324 200.376 64.7766 200 64.8034L177.373 64.8035C176.594 64.9109 175.036 65.5771 175.036 67.3821C175.036 69.6384 174.955 93.4102 175.036 96.3918C175.1 98.777 176.997 99.3733 177.937 99.3733Z" stroke="#4FBA74"/>
<path d="M193 77.5C195 80 205.277 75.8489 202 82C198.723 88.1512 190.431 97.2782 189.915 98.2452C189.721 99.1477 190.157 99.3733 190.398 99.3733C197.49 99.3733 214.441 99.2928 215.73 99.2928C217.793 99.0349 218.416 97.1976 218.47 96.3112V85.2714C218.47 84.6268 218.094 84.4656 217.906 84.4656H208.478C205.657 83.1763 206.382 80.3559 208.478 79.5501H217.906C218.421 79.5501 218.497 79.0666 218.47 78.8248V68.2685C218.47 65.8833 216.643 64.9646 215.73 64.8035L211 64.8034V61.5801C210.549 60.6131 209.899 61.0698 209.63 61.4189C209.63 61.4189 191 75 193 77.5Z" stroke="#4FBA74"/>
<circle cx="209.283" cy="82.0481" r="1.69223" fill="#1B8449"/>
</svg>
