<svg width="42" height="42" viewBox="0 0 42 42" fill="none" xmlns="http://www.w3.org/2000/svg">
<circle cx="21" cy="21" r="20.5" stroke="#A1A5AD"/>
<path d="M31.5312 16.0781L27.0312 20.5781C26.4688 21.1875 25.4844 21.1875 24.9219 20.5781C24.3125 20.0156 24.3125 19.0312 24.9219 18.4688L26.8438 16.5H12.5C11.6562 16.5 11 15.8438 11 15C11 14.2031 11.6562 13.5 12.5 13.5H26.8438L24.9219 11.5781C24.3125 11.0156 24.3125 10.0312 24.9219 9.46875C25.4844 8.85938 26.4688 8.85938 27.0312 9.46875L31.5312 13.9688C32.1406 14.5312 32.1406 15.5156 31.5312 16.0781ZM15.9219 32.5781L11.4219 28.0781C10.8125 27.5156 10.8125 26.5312 11.4219 25.9688L15.9219 21.4688C16.4844 20.8594 17.4688 20.8594 18.0312 21.4688C18.6406 22.0312 18.6406 23.0156 18.0312 23.5781L16.1094 25.5H30.5C31.2969 25.5 32 26.2031 32 27C32 27.8438 31.2969 28.5 30.5 28.5H16.1094L18.0312 30.4688C18.6406 31.0312 18.6406 32.0156 18.0312 32.5781C17.4688 33.1875 16.4844 33.1875 15.9219 32.5781Z" fill="#A1A5AD"/>
</svg>
